SplineFontDB: 3.2
FontName: ZameroSans-Thin
FullName: Zamero Sans Thin
FamilyName: Zamero Sans
Weight: Thin
Copyright: Copyright (c) 2024, Zamero Type Foundry
UComments: "2024-1-17: Created with FontForge (http://fontforge.org)+AAoACgAK-Instead of Charlie and the Alphabet and Charlie and the Numbers, how about Charlie and the Fonts? :)"
Version: 001.000
ItalicAngle: 0
UnderlinePosition: -100
UnderlineWidth: 50
Ascent: 800
Descent: 200
InvalidEm: 0
LayerCount: 2
Layer: 0 0 "Back" 1
Layer: 1 0 "Fore" 0
XUID: [1021 474 1118879153 20760]
StyleMap: 0x0000
FSType: 0
OS2Version: 0
OS2_WeightWidthSlopeOnly: 0
OS2_UseTypoMetrics: 1
CreationTime: 1705525712
ModificationTime: 1727720754
PfmFamily: 33
TTFWeight: 100
TTFWidth: 5
LineGap: 90
VLineGap: 90
OS2TypoAscent: 0
OS2TypoAOffset: 1
OS2TypoDescent: 0
OS2TypoDOffset: 1
OS2TypoLinegap: 90
OS2WinAscent: 0
OS2WinAOffset: 1
OS2WinDescent: 0
OS2WinDOffset: 1
HheadAscent: 0
HheadAOffset: 1
HheadDescent: 0
HheadDOffset: 1
OS2Vendor: 'ZAM '
Lookup: 1 0 0 "'ss15' Style Set 15 lookup 20" { "'ss15' Style Set 15 lookup 20-1" ("ss15") } ['ss15' ('DFLT' <'dflt' > 'grek' <'dflt' > 'latn' <'dflt' > ) ]
Lookup: 1 0 0 "'ss14' Style Set 14 lookup 19" { "'ss14' Style Set 14 lookup 19-1" ("ss14") } ['ss14' ('DFLT' <'dflt' > 'grek' <'dflt' > 'latn' <'dflt' > ) ]
Lookup: 1 0 0 "'onum' Oldstyle Figures lookup 18" { "'onum' Oldstyle Figures lookup 18-1" ("osf") } ['onum' ('DFLT' <'dflt' > 'grek' <'dflt' > 'latn' <'dflt' > ) ]
Lookup: 1 0 0 "'tnum' Tabular Numbers lookup 17" { "'tnum' Tabular Numbers lookup 17-1" ("tf") } ['tnum' ('DFLT' <'dflt' > 'grek' <'dflt' > 'latn' <'dflt' > ) ]
Lookup: 1 0 0 "'dnom' Denominators lookup 0" { "'dnom' Denominators lookup 0 subtable" ("dnom") } ['dnom' ('DFLT' <'dflt' > 'latn' <'dflt' > ) ]
Lookup: 1 0 0 "'numr' Numerators lookup 0" { "'numr' Numerators lookup 0 subtable" ("numr") } ['numr' ('DFLT' <'dflt' > 'latn' <'dflt' > ) ]

StartChar: I
Encoding: 73 73 0
Width: 434
Flags: W
HStem: 0 45<50 192.5 241.5 384> 30 15<192.5 241.5> 685 46<50 192.5 241.5 384> 685 16<192.5 241.5>
VStem: 192.5 49<30 701>
AnchorPoint: "Anchor-3" 271 0 basechar 0
AnchorPoint: "Anchor-2" 218 0 basechar 0
AnchorPoint: "Anchor-0" 216 731 basechar 0
LayerCount: 2
Fore
SplineSet
384 0 m 1x88
 50 0 l 5
 50 45 l 5
 384 45 l 1
 384 0 l 1x88
384 685 m 1x28
 50 685 l 5
 50 731 l 5
 384 731 l 1
 384 685 l 1x28
192.5 30 m 1x58
 192.5 701 l 1
 241.5 701 l 1
 241.5 30 l 1
 192.5 30 l 1x58
EndSplineSet
Validated: 524293
EndChar

StartChar: O
Encoding: 79 79 1
Width: 797
Flags: W
HStem: -9.99805 48.4619<278.711 519.067> 690.659 48.4619<278.711 519.067>
VStem: 55 49.8486<225.787 503.336> 692.929 49.8486<225.787 503.336>
AnchorPoint: "Anchor-3" 471 16 basechar 0
AnchorPoint: "Anchor-2" 398 0 basechar 0
AnchorPoint: "Anchor-0" 399 731 basechar 0
LayerCount: 2
Back
SplineSet
104.848632812 364.561523438 m 0
 104.848632812 169.015917071 203.263968617 38.4638671875 398.888671875 38.4638671875 c 4
 594.513375133 38.4638671875 692.928710938 169.015917071 692.928710938 364.561523438 c 0
 692.928710938 560.107129798 594.513375133 690.659179688 398.888671875 690.659179688 c 0
 203.263968617 690.659179688 104.848632812 560.107129798 104.848632812 364.561523438 c 0
55 364.561523438 m 0
 55 591.206054688 185.120861123 739.12109375 398.888671875 739.12109375 c 0
 612.656482627 739.12109375 742.77734375 591.206054688 742.77734375 364.561523438 c 0
 742.77734375 137.916992188 612.656482627 -9.998046875 398.888671875 -9.998046875 c 0
 185.120861123 -9.998046875 55 137.916992188 55 364.561523438 c 0
EndSplineSet
Fore
SplineSet
104.848632812 364.561523438 m 0
 104.848632812 169.015917071 204.911905576 38.4638671875 398.888671875 38.4638671875 c 0
 592.865438174 38.4638671875 692.928710938 169.015917071 692.928710938 364.561523438 c 0
 692.928710938 560.107129798 592.865438174 690.659179688 398.888671875 690.659179688 c 4
 204.911905576 690.659179688 104.848632812 560.107129798 104.848632812 364.561523438 c 0
55 364.561523438 m 0
 55 591.206054688 185.120861123 739.12109375 398.888671875 739.12109375 c 0
 612.656482627 739.12109375 742.77734375 591.206054688 742.77734375 364.561523438 c 0
 742.77734375 137.916992188 612.656482627 -9.998046875 398.888671875 -9.998046875 c 0
 185.120861123 -9.998046875 55 137.916992188 55 364.561523438 c 0
EndSplineSet
EndChar

StartChar: H
Encoding: 72 72 2
Width: 719
Flags: W
HStem: 0 21G<75 124 595 644> 335 46<90 614> 711.008 20G<75 124 595 644>
VStem: 75 49<0 335 381 731.008> 90 34<335 381> 595 49<0 335 381 731.008> 595 19<335 381>
AnchorPoint: "Anchor-2" 357 0 basechar 0
AnchorPoint: "Anchor-0" 357 731 basechar 0
LayerCount: 2
Fore
SplineSet
614 335 m 1xea
 90 335 l 1
 90 381 l 1
 614 381 l 1
 614 335 l 1xea
595 0 m 5xe4
 595 731.0078125 l 5
 644 731.0078125 l 5
 644 0 l 5
 595 0 l 5xe4
75 0 m 1xf0
 75 731.0078125 l 1
 124 731.0078125 l 1
 124 0 l 1
 75 0 l 1xf0
EndSplineSet
Validated: 524293
EndChar

StartChar: V
Encoding: 86 86 4
Width: 699
Flags: W
HStem: 0 21G<318.737 389.989> 711.008 20G<25 85.096 614.144 674>
AnchorPoint: "Anchor-2" 354 0.0117188 basechar 0
AnchorPoint: "Anchor-0" 353 731 basechar 0
LayerCount: 2
Fore
SplineSet
327 0 m 1
 25 731.0078125 l 1
 77 731.0078125 l 1
 353.606445312 47.6943359375 l 5
 622 731.0078125 l 1
 674 731.0078125 l 1
 382 0 l 1
 327 0 l 1
EndSplineSet
Validated: 524289
EndChar

StartChar: D
Encoding: 68 68 5
Width: 727
Flags: W
HStem: 0 44.3516<124 433.864> 686.649 44.3584<124 430.196>
VStem: 75 49<44.3516 686.649> 622.929 49.8486<225.272 503.916>
AnchorPoint: "Anchor-2" 356 0 basechar 0
AnchorPoint: "Anchor-0" 350 731 basechar 0
LayerCount: 2
Fore
SplineSet
75 0 m 1
 75 731.0078125 l 1
 308.888671875 731.0078125 l 2
 500.348140259 731.0078125 672.77734375 631.206054688 672.77734375 364.561523438 c 0
 672.77734375 97.9169921872 499.227546068 -2.33090194716e-14 308.888671875 0 c 2
 75 0 l 1
124 686.649414062 m 1
 124 44.3515625 l 1
 283.888671875 44.4619140625 l 2
 477.988951955 44.5958777069 622.928710938 122.020215092 622.928710938 364.561523438 c 0
 622.928710938 606.344160955 477.988964063 686.420233418 283.888671875 686.545898438 c 2
 124 686.649414062 l 1
EndSplineSet
Validated: 524289
EndChar

StartChar: U
Encoding: 85 85 6
Width: 719
Flags: W
HStem: -9.99805 49.4619<236.685 479.093> 711.008 20G<75 124 591.777 640.777>
VStem: 75 49<156.12 731.008> 591.777 49<156.12 731.008>
AnchorPoint: "Anchor-3" 451 18 basechar 0
AnchorPoint: "Anchor-2" 358 0.0117188 basechar 0
AnchorPoint: "Anchor-0" 362 731 basechar 0
LayerCount: 2
Fore
SplineSet
357.888671875 -9.998046875 m 0
 146.624670373 -9.998046875 75 110.273718446 75 294.561523438 c 2
 75 731.0078125 l 1
 124 731.0078125 l 1
 124 304.561523438 l 2
 124 145.594781592 166.247505978 39.4638671875 357.888671875 39.4638671875 c 0
 549.529837772 39.4638671875 591.77734375 145.594781592 591.77734375 304.561523438 c 2
 591.77734375 731.0078125 l 1
 640.77734375 731.0078125 l 1
 640.77734375 294.561523438 l 2
 640.77734375 110.273718446 569.152673377 -9.998046875 357.888671875 -9.998046875 c 0
EndSplineSet
Validated: 524289
EndChar

StartChar: L
Encoding: 76 76 7
Width: 568
Flags: W
HStem: 0 46<124 544> 711.008 20G<75 124>
VStem: 75 49<46 731.008>
AnchorPoint: "Anchor-2" 308 0 basechar 0
AnchorPoint: "Anchor-0" 139 731 basechar 0
LayerCount: 2
Fore
SplineSet
124 46 m 1
 544 46 l 1
 544 0 l 1
 75 0 l 1
 75 731.0078125 l 5
 124 731.0078125 l 5
 124 46 l 1
EndSplineSet
Validated: 524289
EndChar

StartChar: F
Encoding: 70 70 8
Width: 574
Flags: W
HStem: 0 21G<75 124> 331 45<90 454> 685.008 46<124 514>
VStem: 75 49<0 331 376 685.008> 90 34<331 376>
AnchorPoint: "Anchor-2" 297 0 basechar 0
AnchorPoint: "Anchor-0" 306 731 basechar 0
LayerCount: 2
Fore
SplineSet
454 331 m 1xe8
 90 331 l 1
 90 376 l 1
 454 376 l 1
 454 331 l 1xe8
124 685.0078125 m 5xf0
 124 0 l 1
 75 0 l 1
 75 731.0078125 l 1
 514 731.0078125 l 1
 514 685.0078125 l 5
 124 685.0078125 l 5xf0
EndSplineSet
Validated: 524293
EndChar

StartChar: C
Encoding: 67 67 9
Width: 667
Flags: W
HStem: -9.99805 44.4619<281.783 551.603> 694.659 44.4619<282.79 537.393>
VStem: 55 46.8486<222.517 506.233>
AnchorPoint: "Anchor-0" 406 731 basechar 0
AnchorPoint: "Anchor-2" 406 0 basechar 0
LayerCount: 2
Fore
SplineSet
55 360.561523438 m 4
 55 589.626439045 182.093073751 739.12109375 405.888671875 739.12109375 c 0
 554.484297201 739.12109375 629.681640625 672.891601562 629.681640625 672.891601562 c 1
 607.35546875 634.138671875 l 1
 607.35546875 634.138671875 535.435623143 694.659179688 419.888671875 694.659179688 c 0
 197.099765272 694.659179688 101.848632812 560.904357932 101.848632812 360.561523438 c 4
 101.848632812 165.015917072 203.104823731 34.4638671875 409.888671875 34.4638671875 c 0
 543.338250298 34.4638671875 614.018554688 84.595703125 614.018554688 84.595703125 c 1
 632.827148438 44.595703125 l 1
 632.827148438 44.595703125 563.50703734 -9.998046875 405.888671875 -9.998046875 c 0
 182.093073751 -9.998046875 55 136.337376545 55 360.561523438 c 4
EndSplineSet
Validated: 524289
Substitution2: "'ss12' Style Set 12 lookup 13-1" C.ss12
EndChar

StartChar: E
Encoding: 69 69 10
Width: 579
Flags: W
HStem: 0 46<124 529> 347 46<100 469> 685.008 46<124 529>
VStem: 100 24<347 393>
AnchorPoint: "Anchor-3" 471 0 basechar 0
AnchorPoint: "Anchor-2" 306 0 basechar 0
AnchorPoint: "Anchor-0" 306 731 basechar 0
LayerCount: 2
Fore
SplineSet
469 347 m 1
 100 347 l 1
 100 393 l 1
 469 393 l 1
 469 347 l 1
124 685.0078125 m 1
 124 46 l 1
 529 46 l 5
 529 0 l 5
 75 0 l 1
 75 731.0078125 l 1
 529 731.0078125 l 1
 529 685.0078125 l 1
 124 685.0078125 l 1
EndSplineSet
Validated: 524293
EndChar

StartChar: N
Encoding: 78 78 11
Width: 719
Flags: W
HStem: 0 21G<75 124 574.802 644> 711.008 20G<75 144.255 595 644>
VStem: 75 49<0 655.005> 595 49<78.5996 731.008>
AnchorPoint: "Anchor-2" 365 0 basechar 0
AnchorPoint: "Anchor-0" 363 731 basechar 0
LayerCount: 2
Fore
SplineSet
75 0 m 5
 75 731.0078125 l 5
 130 731.0078125 l 5
 595 78.599609375 l 5
 595 731.0078125 l 5
 644 731.0078125 l 5
 644 0 l 5
 589 0 l 5
 124 655.004882812 l 5
 124 0 l 5
 75 0 l 5
EndSplineSet
Validated: 524289
EndChar

StartChar: M
Encoding: 77 77 12
Width: 830
Flags: W
HStem: 0 21G<75 124 706 755> 711.008 20G<75 154.875 675.125 755>
VStem: 75 49<0 675.005> 706 49<0 675.005>
AnchorPoint: "Anchor-2" 411 0 basechar 0
AnchorPoint: "Anchor-0" 412 731 basechar 0
LayerCount: 2
Fore
SplineSet
75 0 m 1
 75 731.0078125 l 1
 144 731.0078125 l 1
 415 232.599609375 l 5
 686 731.0078125 l 1
 755 731.0078125 l 1
 755 0 l 1
 706 0 l 1
 706 675.004882812 l 1
 435 180 l 1
 395 180 l 1
 124 675.004882812 l 1
 124 0 l 1
 75 0 l 1
EndSplineSet
Validated: 524289
EndChar

StartChar: G
Encoding: 71 71 13
Width: 789
Flags: W
HStem: -9.99805 44.4619<284.308 522.583> 331 43<416 596.019 641.827 744> 331 23.5957<596.019 641.827> 694.659 44.4619<286.221 538.056>
VStem: 55 45.8486<228.664 500.459> 629.481 44.001<131.253 330.16>
AnchorPoint: "Anchor-2" 401 0 basechar 0
AnchorPoint: "Anchor-0" 408 731 basechar 0
LayerCount: 2
Fore
SplineSet
744 331 m 1xdc
 416 331 l 1
 416 374 l 1
 744 374 l 1
 744 331 l 1xdc
55 364.561523438 m 0
 55 591.206054688 188.904668843 739.12109375 408.888671875 739.12109375 c 0
 575.988351259 739.12109375 644.681640625 663.891601562 644.681640625 663.891601562 c 1
 623.35546875 624.138671875 l 1
 623.35546875 624.138671875 554.829669806 694.659179688 415.888671875 694.659179688 c 0
 208.362552303 694.659179688 100.848632812 562.505743865 100.848632812 364.561523438 c 0
 100.848632812 166.617303005 207.43701214 34.4638671875 406.888671875 34.4638671875 c 0
 555.240325935 34.4638671875 629.481445312 111.449714239 629.481445312 227 c 4
 629.481445312 306.240817594 596.018554688 354.595703125 596.018554688 354.595703125 c 1
 641.827148438 354.595703125 l 1xbc
 641.827148438 354.595703125 673.482421875 313.538471622 673.482421875 222 c 4
 673.482421875 93.0859042083 585.430330142 -9.998046875 399.888671875 -9.998046875 c 0
 180.211665901 -9.998046875 55 137.916992188 55 364.561523438 c 0
EndSplineSet
Validated: 524293
Substitution2: "'ss12' Style Set 12 lookup 13-1" G.ss12
Substitution2: "'ss08' Style Set 8 lookup 9-1" G.ss08
EndChar

StartChar: A
Encoding: 65 65 14
Width: 719
Flags: W
HStem: 0 21G<25 86.4019 632.349 694> 185 48<132 586> 711.008 20G<326.519 382.755>
AnchorPoint: "Anchor-3" 654 0 basechar 0
AnchorPoint: "Anchor-2" 362 0 basechar 0
AnchorPoint: "Anchor-0" 352 731 basechar 0
LayerCount: 2
Fore
SplineSet
586 185 m 1
 132 185 l 1
 132 233 l 1
 586 233 l 1
 586 185 l 1
374 731.0078125 m 5
 694 0 l 5
 641 0 l 5
 355.393554688 660.313476562 l 5
 78 0 l 5
 25 0 l 5
 335 731.0078125 l 5
 374 731.0078125 l 5
EndSplineSet
EndChar

StartChar: P
Encoding: 80 80 15
Width: 665
Flags: W
HStem: 0 21G<75 124> 264 42.3516<94 453.346> 684.649 46.3584<124 453.346>
VStem: 75 49<0 264 306.352 684.649> 94 30<264 306.352> 565.929 49.8486<399.285 588.075>
AnchorPoint: "Anchor-2" 342 0 basechar 0
AnchorPoint: "Anchor-0" 339 731 basechar 0
LayerCount: 2
Fore
SplineSet
94 264 m 5xec
 94 306.3515625 l 5xec
 316.888671875 306.461914062 l 6
 459.463836585 306.669187552 565.928710938 350.284804258 565.928710938 494.561523438 c 0
 565.928710938 639.024331685 459.463852368 684.351970265 316.888671875 684.545898438 c 2
 124 684.649414062 l 1
 124 0 l 1
 75 0 l 1
 75 731.0078125 l 1xf4
 338.888671875 731.0078125 l 2
 484.573223267 731.0078125 615.77734375 666.61159406 615.77734375 494.561523438 c 0
 615.77734375 325.926148092 483.720545343 264 338.888671875 264 c 6
 94 264 l 5xec
EndSplineSet
Validated: 524293
EndChar

StartChar: R
Encoding: 82 82 16
Width: 660
Flags: W
HStem: 0 21G<75 124 579.484 640> 302 50.3516<94 452.414> 684.649 46.3584<124 455.1>
VStem: 75 49<0 302 352.352 684.649> 94 30<302 352.352> 550.929 49.8486<428.706 604.861>
AnchorPoint: "Anchor-2" 342 0.0117188 basechar 0
AnchorPoint: "Anchor-0" 325 731 basechar 0
LayerCount: 2
Back
SplineSet
124 383.3515625 m 1xec
 300.888671875 383.461914062 l 2
 383.403259307 383.509014034 462.928710938 404.697396723 462.928710938 501.561523438 c 0
 462.928710938 596.672668425 383.403268044 618.487535435 300.888671875 618.545898438 c 2
 184 618.649414062 l 1
 184 0 l 1
 55 0 l 1
 55 731.0078125 l 1xf4
 308.888671875 731.0078125 l 2
 457.204101562 731.0078125 590.77734375 670.696715458 590.77734375 509.561523438 c 4
 590.77734375 364.195131811 466.688476562 330.276367188 466.688476562 330.276367188 c 1
 466.688476562 330.276367188 540.174524344 311.767586577 573.702148438 195.399414062 c 2
 630 0 l 1
 492 0 l 1
 447 165 l 2
 420.732434887 256.417062766 391.813913829 266 270 266 c 2
 124 266 l 1
 124 383.3515625 l 1xec
EndSplineSet
Fore
SplineSet
94 352.3515625 m 5xec
 322.888671875 352.461914062 l 6
 453.441258995 352.524855937 550.928710938 389.609033706 550.928710938 514.561523438 c 4
 550.928710938 646.762958768 453.441273265 684.4779497 322.888671875 684.545898438 c 6
 124 684.649414062 l 5
 124 0 l 5
 75 0 l 5
 75 731.0078125 l 5xf4
 338.888671875 731.0078125 l 6
 476.681122494 731.0078125 600.77734375 672.330820883 600.77734375 515.561523438 c 4
 600.77734375 356.29437543 460.688476562 326.276367188 460.688476562 326.276367188 c 5
 460.688476562 326.276367188 522.608007031 320.197108466 571.227539062 187.583007812 c 6
 640 0 l 5
 587 0 l 5
 542.952148438 117.215820312 l 6
 492.403168417 251.731805743 482.480623146 302 349 302 c 6
 94 302 l 5
 94 352.3515625 l 5xec
EndSplineSet
Validated: 524293
Substitution2: "'ss01' Style Set 1 lookup 2-1" R.ss01
EndChar

StartChar: T
Encoding: 84 84 17
Width: 614
Flags: W
HStem: 0 21G<282.5 331.5> 685 46<40 282.5 331.5 574> 685 16<282.5 331.5>
VStem: 282.5 49<0 701>
AnchorPoint: "Anchor-2" 311 0.0117188 basechar 0
AnchorPoint: "Anchor-0" 310 731 basechar 0
LayerCount: 2
Fore
SplineSet
574 685 m 5xd0
 40 685 l 5
 40 731 l 1
 574 731 l 1
 574 685 l 5xd0
282.5 0 m 1
 282.5 701 l 1
 331.5 701 l 1xb0
 331.5 0 l 1
 282.5 0 l 1
EndSplineSet
Validated: 524293
EndChar

StartChar: Q
Encoding: 81 81 18
Width: 866
Flags: W
HStem: -9.99805 58.4619<287.048 668.199> 690.659 48.4619<280.508 527.617>
VStem: 55 49.8486<227.947 503.336> 702.929 51.8486<229.704 507.683>
AnchorPoint: "Anchor-2" 518 0 basechar 0
AnchorPoint: "Anchor-0" 404 731 basechar 0
LayerCount: 2
Fore
SplineSet
55 364.561523438 m 0
 55 591.206054687 187.012764983 739.12109375 403.888671875 739.12109375 c 0
 622.007817223 739.12109375 754.77734375 589.104132899 754.77734375 384.561523438 c 0
 754.77734375 105.863669653 589.938476562 45.5986328125 589.938476562 45.5986328125 c 5
 690.184464712 47.438109306 814.888671875 68.001953125 814.888671875 68.001953125 c 1
 821.888671875 19.001953125 l 1
 821.888671875 19.001953125 716.311406133 -9.998046875 444 -9.998046875 c 0
 174.693414144 -9.998046875 55 137.916992188 55 364.561523438 c 0
104.848632812 364.561523438 m 0
 104.848632812 175.012452239 200.271755916 48.4638671875 403.888671875 48.4638671875 c 0
 607.505587834 48.4638671875 702.928710938 175.012452239 702.928710938 364.561523438 c 0
 702.928710938 560.107129798 607.505587834 690.659179688 403.888671875 690.659179688 c 0
 200.271755916 690.659179688 104.848632812 560.107129798 104.848632812 364.561523438 c 0
EndSplineSet
Validated: 524289
Substitution2: "'ss10' Style Set 10 lookup 11-1" Q.ss10
Substitution2: "'ss09' Style Set 9 lookup 10-1" Q.ss09
EndChar

StartChar: B
Encoding: 66 66 19
Width: 640
Flags: W
HStem: 0 44.46<119 459.868> 344.656 41.6953<94 431.765> 686.649 44.3584<119 432.204>
VStem: 94 25<344.656 386.352> 521.929 44.8486<457.195 614.961> 544.929 44.8486<114.871 276.33>
AnchorPoint: "Anchor-2" 343 0 basechar 0
AnchorPoint: "Anchor-0" 320 731 basechar 0
LayerCount: 2
Fore
SplineSet
437.662109375 368.4375 m 1xf8
 437.662109375 368.4375 589.77734375 344.417598123 589.77734375 196.446289062 c 0xf4
 589.77734375 53.5022063246 465.197709119 -1.70598732154e-14 325.888671875 0 c 2
 75 0 l 1
 75 731.0078125 l 1
 304.888671875 731.0078125 l 2
 442.6809962 731.0078125 566.77734375 677.233255873 566.77734375 533.561523438 c 4
 566.77734375 393.818927531 437.662109375 368.4375 437.662109375 368.4375 c 1xf8
119 44.4599609375 m 1
 322.888671875 44.4619140625 l 2
 449.869335576 44.4631304572 544.928710938 73.4394961536 544.928710938 199.446289062 c 0xf4
 544.928710938 318.454998132 441.456205335 344.472696077 302.888671875 344.545898438 c 2
 94 344.65625 l 1
 94 386.3515625 l 1
 280.888671875 386.461914062 l 2
 418.883404258 386.555295065 521.928710938 413.272069242 521.928710938 535.561523438 c 4xf8
 521.928710938 658.316200307 418.883934973 686.467523604 280.888671875 686.545898438 c 2
 119 686.649414062 l 1
 119 44.4599609375 l 1
EndSplineSet
Validated: 524293
EndChar

StartChar: J
Encoding: 74 74 20
Width: 432
Flags: W
HStem: -10 45<32.6605 233.647> 685.008 46<60 298>
VStem: 298 49<101.465 685.008>
AnchorPoint: "Anchor-2" 175 0 basechar 0
AnchorPoint: "Anchor-0" 209 731 basechar 0
LayerCount: 2
Fore
SplineSet
138 35 m 0
 250.648437501 35 298 87.911321067 298 212 c 2
 298 685.0078125 l 1
 60 685.0078125 l 5
 60 731.0078125 l 5
 347 731.0078125 l 1
 347 201 l 2
 347 74.4647758463 290.431034483 -10 154 -10 c 0
 74.7877882051 -10 20 16 20 16 c 1
 33 58 l 1
 33 58 76.7555870643 35 138 35 c 0
EndSplineSet
Validated: 524289
EndChar

StartChar: K
Encoding: 75 75 21
Width: 669
Flags: W
HStem: 0 21G<75 124 557.339 644> 331 50<96 277> 711.008 20G<75 124 553.308 634>
VStem: 75 49<0 331 381 731.008> 96 28<331 381>
AnchorPoint: "Anchor-2" 335 0 basechar 0
AnchorPoint: "Anchor-0" 329 731 basechar 0
LayerCount: 2
Fore
SplineSet
96 381 m 1xe8
 277 381 l 1
 277 331 l 1
 96 331 l 1
 96 381 l 1xe8
577 0 m 1
 229 354 l 5
 229 364 l 5
 572 731.0078125 l 1
 634 731.0078125 l 1
 291 359 l 1
 644 0 l 1
 577 0 l 1
75 0 m 1xf0
 75 731.0078125 l 1
 124 731.0078125 l 1
 124 0 l 1
 75 0 l 1xf0
EndSplineSet
Validated: 524293
EndChar

StartChar: S
Encoding: 83 83 22
Width: 591
Flags: W
HStem: -10 47.4619<145.274 400.209> 690.659 48.4619<197.727 445.776>
VStem: 69.627 49.3115<472.016 622.226> 484.338 52.1816<108.841 263.476>
AnchorPoint: "Anchor-2" 292 0.0117188 basechar 0
AnchorPoint: "Anchor-0" 303 731 basechar 0
LayerCount: 2
Fore
SplineSet
283.3828125 347.140625 m 4
 119.656237463 388.852917068 69.626953125 445.736710738 69.626953125 540 c 4
 69.626953125 661.124440713 164.073232582 739.12109375 319.233398438 739.12109375 c 4
 446.737017503 739.12109375 508.745117188 688.891601562 508.745117188 688.891601562 c 5
 490.37109375 648.138671875 l 5
 490.37109375 648.138671875 426.130557695 690.659179688 325.36328125 690.659179688 c 4
 182.971173768 690.659179688 118.938476562 638.835884219 118.938476562 541 c 4
 118.938476562 465.935561279 161.970304853 424.571391939 321.997070312 385.081054688 c 4
 478.918971883 346.356915026 536.51953125 289.614097058 536.51953125 194 c 4
 536.51953125 68.2777132601 448.535382434 -10 283.8046875 -10 c 4
 148.54983712 -10 62.81640625 42.2294921875 62.81640625 42.2294921875 c 5
 79.97265625 85.982421875 l 5
 79.97265625 85.982421875 167.456653927 37.4619140625 279.696289062 37.4619140625 c 4
 410.207901204 37.4619140625 484.337890625 88.3306589176 484.337890625 187 c 4
 484.337890625 268.217087875 451.707286403 304.256935434 283.3828125 347.140625 c 4
EndSplineSet
Validated: 524289
EndChar

StartChar: W
Encoding: 87 87 23
Width: 949
Flags: W
HStem: 0 21G<228.282 302.756 636.375 720.718> 711.008 20G<25 79.5741 867.315 924>
AnchorPoint: "Anchor-2" 475 0 basechar 0
AnchorPoint: "Anchor-0" 474 731 basechar 0
LayerCount: 2
Fore
SplineSet
234 0 m 1
 25 731.0078125 l 1
 74 731.0078125 l 1
 263.606445312 50.6943359375 l 5
 440 671.0078125 l 1
 503 671.0078125 l 1
 679.606445312 50.6943359375 l 1
 873 731.0078125 l 1
 924 731.0078125 l 1
 715 0 l 1
 642 0 l 1
 471.5 606.271484375 l 1
 297 0 l 1
 234 0 l 1
EndSplineSet
Validated: 524289
EndChar

StartChar: X
Encoding: 88 88 24
Width: 689
Flags: W
HStem: 0 21G<33 109.408 579.592 656> 711.008 20G<43 121.666 567.334 646>
VStem: 340 9<331 401>
AnchorPoint: "Anchor-2" 352 0 basechar 0
AnchorPoint: "Anchor-0" 344 731 basechar 0
LayerCount: 2
Fore
SplineSet
94 0 m 1
 33 0 l 1
 313 368 l 5
 43 731.0078125 l 1
 107 731.0078125 l 1
 349 401 l 5
 349 331 l 5
 94 0 l 1
595 0 m 1
 340 331 l 5
 340 401 l 5
 582 731.0078125 l 1
 646 731.0078125 l 1
 376 368 l 5
 656 0 l 1
 595 0 l 1
EndSplineSet
Validated: 524293
EndChar

StartChar: Y
Encoding: 89 89 25
Width: 689
Flags: W
HStem: 0 21G<320 369> 282 39<326 363> 711.008 20G<40 109.657 579.343 649>
VStem: 320 49<0 321>
AnchorPoint: "Anchor-2" 345 0 basechar 0
AnchorPoint: "Anchor-0" 346 731 basechar 0
LayerCount: 2
Fore
SplineSet
326 282 m 1
 40 731.0078125 l 1
 97 731.0078125 l 1
 344.5 339.916015625 l 5
 592 731.0078125 l 1
 649 731.0078125 l 1
 363 282 l 1
 326 282 l 1
320 0 m 1
 320 321 l 1
 369 321 l 1
 369 0 l 1
 320 0 l 1
EndSplineSet
Validated: 524293
EndChar

StartChar: Z
Encoding: 90 90 26
Width: 594
Flags: W
HStem: 0 46<110 554> 685 46<50 484>
AnchorPoint: "Anchor-2" 306 0 basechar 0
AnchorPoint: "Anchor-0" 294 731 basechar 0
LayerCount: 2
Fore
SplineSet
554 0 m 1
 40 0 l 1
 40 31 l 1
 484 685 l 5
 50 685 l 5
 50 731 l 1
 544 731 l 1
 544 690 l 1
 110 46 l 1
 554 46 l 1
 554 0 l 1
EndSplineSet
Validated: 1
EndChar

StartChar: ampersand
Encoding: 38 38 27
Width: 754
Flags: W
HStem: -10 40.0928<175.824 366.726 558.685 727.399> 698.762 40.2305<301.357 488.996>
VStem: 55 43.8369<94.7445 244.27> 181.551 43.376<421.454 622.448> 626.25 45.2881<364.183 421.721>
LayerCount: 2
Fore
SplineSet
251.267578125 388.821289062 m 1
 267.341796875 350.713867188 l 0
 267.341796875 350.713867188 98.8369140625 307.797779035 98.8369140625 167 c 0
 98.8369140625 79.5922563237 168.097073802 30.0927734375 272 30.0927734375 c 0
 394.649170484 30.0927734375 548.553221716 125.743012698 626.25 432.205078125 c 1
 671.538085938 419.8046875 l 1
 582.4225378 106.417214756 433.225738894 -10 265.928710938 -10 c 0
 132.401486186 -10 55 62.7828192696 55 168.185546875 c 0
 55 329.715807506 251.267578125 388.821289062 251.267578125 388.821289062 c 1
732.451171875 4.5546875 m 1
 732.451171875 4.5546875 706.334472319 -10 636 -10 c 0
 508.852211839 -10 430.174111216 75.8080525794 355 166 c 0
 245.45349071 297.431058461 181.55078125 420.639773051 181.55078125 525 c 0
 181.55078125 664.943985047 258.842722869 738.9921875 387.022460938 738.9921875 c 0
 471.061174521 738.9921875 522.400390625 705.649414062 522.400390625 705.649414062 c 5
 509.5703125 669.848632812 l 1
 509.5703125 669.848632812 456.975704628 698.76171875 394 698.76171875 c 0
 282.688655381 698.76171875 224.926757812 638.21465751 224.926757812 524 c 0
 224.926757812 433.281716076 280.456777784 329.606605335 376.9375 208 c 0
 443.406994916 124.22026194 520.156515634 33.3046875 641.51171875 33.3046875 c 0
 693.741353409 33.3046875 723.62890625 43.5546875 723.62890625 43.5546875 c 1
 732.451171875 4.5546875 l 1
EndSplineSet
Validated: 524293
EndChar

StartChar: i
Encoding: 105 105 28
Width: 269
Flags: W
HStem: 0 21G<112 157> 481.011 20G<112 157> 613.551 86.4492<96.5703 172.43>
VStem: 91.8867 85.2266<618.302 695.249> 112 45<0 501.011>
AnchorPoint: "Anchor-3" 141 0 basechar 0
AnchorPoint: "Anchor-2" 137 0 basechar 0
LayerCount: 2
Fore
SplineSet
112 0 m 1xe8
 112 501.010742188 l 1
 157 501.010742188 l 1
 157 0 l 1
 112 0 l 1xe8
91.88671875 656.775390625 m 4xf0
 91.88671875 682.961557837 108.683402665 700 134.499023438 700 c 4
 160.315728066 700 177.11328125 682.961557837 177.11328125 656.775390625 c 4
 177.11328125 630.58875032 160.315728066 613.55078125 134.499023438 613.55078125 c 4
 108.683402665 613.55078125 91.88671875 630.58875032 91.88671875 656.775390625 c 4xf0
EndSplineSet
Validated: 524289
EndChar

StartChar: o
Encoding: 111 111 29
Width: 589
Flags: W
HStem: -9.99805 41.4619<203.647 385.001> 469.284 41.6494<203.675 387.877>
VStem: 55 45.8486<138.726 365.4> 488.929 45.8486<138.726 365.4>
AnchorPoint: "Anchor-3" 357 9 basechar 0
AnchorPoint: "Anchor-2" 294 0 basechar 0
AnchorPoint: "Anchor-0" 294 501.011 basechar 0
LayerCount: 2
Fore
SplineSet
100.848632812 253.561523438 m 0
 100.848632812 120.379882812 168.874591401 31.4638671875 293.888671875 31.4638671875 c 0
 420.305979235 31.4638671875 488.928710938 120.379882812 488.928710938 253.561523438 c 0
 488.928710938 382.920372892 420.339199272 469.284179688 294 469.284179688 c 0
 168.907808986 469.284179688 100.848632812 382.920372892 100.848632812 253.561523438 c 0
55 253.561523438 m 0
 55 409.296356709 145.39088007 510.93359375 293.888671875 510.93359375 c 0
 443.629702136 510.93359375 534.77734375 409.296356709 534.77734375 253.561523438 c 0
 534.77734375 94.0826581122 443.629702136 -9.998046875 293.888671875 -9.998046875 c 0
 145.39088007 -9.998046875 55 94.0826581122 55 253.561523438 c 0
EndSplineSet
EndChar

StartChar: n
Encoding: 110 110 30
Width: 595
Flags: W
HStem: 0 21G<77 122 483.777 528.777> 465.284 45.6494<221.051 416.479> 481.011 20G<77 122>
VStem: 77 45<0 501.011> 483.777 45<0 389.765>
AnchorPoint: "Anchor-2" 305 0 basechar 0
AnchorPoint: "Anchor-0" 295 501.011 basechar 0
LayerCount: 2
Fore
SplineSet
122 284 m 5xd8
 87 293.561523438 l 5
 113.399687322 444 196.850181543 510.93359375 332 510.93359375 c 4
 461.949232851 510.93359375 528.77734375 437.606197646 528.77734375 284.561523438 c 6
 528.77734375 0 l 5
 483.77734375 0 l 5
 483.77734375 267.561523438 l 6
 483.77734375 412.812252174 434.65213299 465.284179688 319 465.284179688 c 4
 202.069867068 465.284179688 122 392.707695874 122 284 c 5xd8
77 0 m 5
 77 501.010742188 l 5
 122 501.010742188 l 5xb8
 122 0 l 5
 77 0 l 5
EndSplineSet
Validated: 524293
EndChar

StartChar: m
Encoding: 109 109 31
Width: 882
Flags: W
HStem: 0 21G<77 122 418.777 463.777 770.555 815.555> 465.284 45.6494<197.603 363.652 541.683 717.747> 481.011 20G<77 122>
VStem: 77 45<0 501.011> 418.777 45<0 405.823> 770.555 45<0 405.823>
AnchorPoint: "Anchor-2" 445 0 basechar 0
AnchorPoint: "Anchor-0" 454 501.011 basechar 0
LayerCount: 2
Fore
SplineSet
463.77734375 284 m 5xdc
 425.77734375 313.561523438 l 1
 449.267677775 450.158435502 514.96839543 510.93359375 643.77734375 510.93359375 c 0
 747.216897391 510.93359375 815.5546875 447.323924219 815.5546875 314.561523438 c 2
 815.5546875 0 l 1
 770.5546875 0 l 1
 770.5546875 297.561523438 l 2
 770.5546875 413.808249631 730.373402461 465.284179688 635.77734375 465.284179688 c 0
 515.290338249 465.284179688 463.77734375 392.707695872 463.77734375 284 c 5xdc
122 284 m 1
 87 293.561523438 l 1
 108.550765161 444 169.652340991 510.93359375 287 510.93359375 c 0
 393.853360482 510.93359375 463.77734375 447.323924219 463.77734375 314.561523438 c 6
 463.77734375 0 l 5
 418.77734375 0 l 1
 418.77734375 297.561523438 l 2
 418.77734375 413.808249631 377.105404424 465.284179688 279 465.284179688 c 0
 179.020582188 465.284179688 122 392.707695874 122 284 c 1
77 0 m 1
 77 501.010742188 l 1
 122 501.010742188 l 1xbc
 122 0 l 1
 77 0 l 1
EndSplineSet
Validated: 524293
EndChar

StartChar: p
Encoding: 112 112 32
Width: 602
Flags: W
HStem: -9.99805 41.4619<220.955 408.848> 470.284 40.6494<223.66 410.102> 481.011 20G<77 122>
VStem: 77 45<-180 501.011> 89.1514 32.8486<283.562 389.377> 104.151 17.8486<66.4394 183.562> 504.08 44.8486<133.477 370.783>
AnchorPoint: "Anchor-2" 106 -179.988 basechar 0
AnchorPoint: "Anchor-0" 294 501.011 basechar 0
LayerCount: 2
Fore
SplineSet
77 -180 m 1xb2
 77 501.010742188 l 1
 122 501.010742188 l 1
 122 -180 l 1
 77 -180 l 1xb2
122 213.561523438 m 1
 122 124.84461924 180.712845664 31.4638671875 318.040039062 31.4638671875 c 0
 448.362174002 31.4638671875 504.080078125 120.379882811 504.080078125 253.561523438 c 0
 504.080078125 383.520026408 448.395516124 470.284179688 318.151367188 470.284179688 c 0
 200.746187787 470.284179688 122 395.530420906 122 283.561523438 c 1xd2
 89.1513671875 283.561523438 l 1xca
 89.1513671875 425.746590474 182.000216155 510.93359375 325 510.93359375 c 0
 467.240588621 510.93359375 548.928710938 409.296356709 548.928710938 253.561523438 c 0
 548.928710938 94.0826581122 463.456780901 -9.998046875 323.040039062 -9.998046875 c 0
 186.97463182 -9.998046875 104.151367188 66.4393843714 104.151367188 183.561523438 c 1xc6
 122 213.561523438 l 1
EndSplineSet
Validated: 524293
EndChar

StartChar: j
Encoding: 106 106 33
Width: 269
Flags: W
HStem: -190 41<-71.7463 78.4959> 481.011 20G<112 157> 613.551 86.4492<96.5703 172.43>
VStem: 91.8867 85.2266<618.302 695.249> 112 45<-114.921 501.011>
AnchorPoint: "Anchor-2" 17 -179.988 basechar 0
LayerCount: 2
Fore
SplineSet
112 -20 m 2xe8
 112 501.010742188 l 1
 157 501.010742188 l 1
 157 -19 l 2
 157 -121.924170616 118.017241379 -190 24 -190 c 4
 -36.2958627096 -190 -78 -171 -78 -171 c 1
 -66 -130 l 1
 -66 -130 -32.6624098557 -149 14 -149 c 0
 82.9971679687 -149 112 -110.144578313 112 -20 c 2xe8
91.88671875 656.775390625 m 0xf0
 91.88671875 682.961557837 108.683402665 700 134.499023438 700 c 0
 160.315728066 700 177.11328125 682.961557837 177.11328125 656.775390625 c 0
 177.11328125 630.58875032 160.315728066 613.55078125 134.499023438 613.55078125 c 0
 108.683402665 613.55078125 91.88671875 630.58875032 91.88671875 656.775390625 c 0xf0
EndSplineSet
EndChar

StartChar: k
Encoding: 107 107 34
Width: 555
Flags: W
HStem: 0 21G<77 122 452.343 535> 233 46<91 243> 481.011 20G<440.451 525> 731.002 20G<77 122>
VStem: 77 45<0 233 279 751.002> 91 31<233 279>
AnchorPoint: "Anchor-2" 275 0 basechar 0
AnchorPoint: "Anchor-0" 104 749.002 basechar 0
LayerCount: 2
Fore
SplineSet
243 279 m 1xf4
 243 233 l 1
 91 233 l 1
 91 279 l 1
 243 279 l 1xf4
472 0 m 1
 243 233 l 1
 243 279 l 1
 460 501.010742188 l 5
 525 501.010742188 l 5
 285 255 l 1
 535 0 l 1
 472 0 l 1
77 0 m 1xf8
 77 751.001953125 l 1
 122 751.001953125 l 1
 122 0 l 1
 77 0 l 1xf8
EndSplineSet
Validated: 524293
EndChar

StartChar: l
Encoding: 108 108 35
Width: 371
Flags: W
HStem: -10.0088 44<160.685 310.385> 731.002 20G<77 122>
VStem: 77 45<75.445 751.002>
AnchorPoint: "Anchor-2" 240 0 basechar 0
AnchorPoint: "Anchor-0" 104 749.002 basechar 0
LayerCount: 2
Fore
SplineSet
122 171.991210938 m 2
 122 75.5574759966 155.73798828 33.9912109375 236 33.9912109375 c 0
 277.412888748 33.9912109375 307 48.9912109375 307 48.9912109375 c 1
 315 5.9912109375 l 1
 315 5.9912109375 280.65541635 -10.0087890625 231 -10.0087890625 c 0
 122.137931034 -10.0087890625 77 49.067040321 77 160.991210938 c 2
 77 751.001953125 l 1
 122 751.001953125 l 1
 122 171.991210938 l 2
EndSplineSet
Validated: 524289
EndChar

StartChar: h
Encoding: 104 104 36
Width: 595
Flags: W
HStem: 0 21G<77 122 483.777 528.777> 465.284 45.6494<220.626 416.479> 731.002 20G<77 122>
VStem: 77 45<0 751.002> 483.777 45<0 389.765>
AnchorPoint: "Anchor-2" 299 0 basechar 0
AnchorPoint: "Anchor-0" 104 751.004 basechar 0
LayerCount: 2
Fore
SplineSet
77 0 m 1
 77 751.001953125 l 1
 122 751.001953125 l 1
 122 0 l 1
 77 0 l 1
122 284 m 9
 87 293.561523438 l 17
 113.399687322 444 195.999117713 510.93359375 332 510.93359375 c 0
 461.949232851 510.93359375 528.77734375 437.606197646 528.77734375 284.561523438 c 2
 528.77734375 0 l 1
 483.77734375 0 l 1
 483.77734375 267.561523438 l 2
 483.77734375 412.812252174 434.65213299 465.284179688 319 465.284179688 c 0
 201.000348352 465.284179688 122 392.707695874 122 284 c 9
EndSplineSet
Validated: 524293
EndChar

StartChar: q
Encoding: 113 113 37
Width: 602
Flags: W
HStem: -9.99805 41.4619<201.014 391.32> 468.284 42.6494<199.738 396.525> 481.011 20G<485 530>
VStem: 58.0713 44.8486<133.477 367.371> 485 45<-180 501.011> 485 28.8486<66.4394 183.562 283.562 425.747>
AnchorPoint: "Anchor-2" 507 -179.988 basechar 0
AnchorPoint: "Anchor-0" 308 501.011 basechar 0
LayerCount: 2
Fore
SplineSet
530 -180 m 1xb8
 485 -180 l 1
 485 501.010742188 l 1
 530 501.010742188 l 1
 530 -180 l 1xb8
485 205.561523438 m 1
 513.848632812 183.561523438 l 1xd4
 513.848632812 66.4393843712 430.646987409 -9.998046875 293.959960938 -9.998046875 c 0
 147.327026816 -9.998046875 58.0712890625 94.082658112 58.0712890625 253.561523438 c 0
 58.0712890625 409.296356709 143.407363532 510.93359375 292 510.93359375 c 0
 435.90498125 510.93359375 512.848632812 425.746590474 512.848632812 283.561523438 c 1
 485 275.561523438 l 1
 485 391.128342006 429.248753755 468.284179688 298.848632812 468.284179688 c 0xd8
 161.599425417 468.284179688 102.919921875 382.320719373 102.919921875 253.561523438 c 0
 102.919921875 120.379882811 161.632767538 31.4638671875 298.959960938 31.4638671875 c 0
 429.282095876 31.4638671875 485 120.742172062 485 205.561523438 c 1
EndSplineSet
Validated: 524293
EndChar

StartChar: g
Encoding: 103 103 38
Width: 602
Flags: W
HStem: -190 44<156.758 406.777> 20.002 40.4619<201.614 391.472> 468.284 42.6494<194.335 396.492> 481.011 20G<485 530>
VStem: 58.0713 44.8486<155.552 374.95> 485 45<-69.5917 31 223.562 501.011> 485 32.8486<100.388 223.562 293.562 389.843>
AnchorPoint: "Anchor-2" 295 -179.988 basechar 0
AnchorPoint: "Anchor-0" 308 501.011 basechar 0
LayerCount: 2
Fore
SplineSet
485 31 m 6xdc
 485 501.010742188 l 1
 530 501.010742188 l 1
 530 31 l 2
 530 -102.018957346 461.120689656 -190 295 -190 c 0
 172.634866854 -190 88 -146 88 -146 c 1
 103 -101 l 1
 103 -101 178.843017578 -146 285 -146 c 0
 425.810546874 -146 485 -92.6867469881 485 31 c 6xdc
485 235.561523438 m 1
 517.848632812 223.561523438 l 1xea
 517.848632812 100.388423477 441.79082269 20.001953125 293.959960938 20.001953125 c 0
 136.400623415 20.001953125 58.0712890625 115.39477208 58.0712890625 261.561523438 c 0
 58.0712890625 412.455587994 132.472472656 510.93359375 292 510.93359375 c 0
 434.572142949 510.93359375 512.848632812 429.493180948 512.848632812 293.561523438 c 1
 485 285.561523438 l 1
 485 395.13180684 424.176121643 468.284179688 294.848632812 468.284179688 c 0xec
 160.4014488 468.284179688 102.919921875 386.72453069 102.919921875 264.561523438 c 0
 102.919921875 142.173646111 161.632767538 60.4638671875 298.959960938 60.4638671875 c 0
 429.282095877 60.4638671875 485 150.254977958 485 235.561523438 c 1
EndSplineSet
Validated: 524293
Substitution2: "'ss14' Style Set 14 lookup 19-1" g.ss14
EndChar

StartChar: f
Encoding: 102 102 39
Width: 398
Flags: W
HStem: 0 21G<152 197> 459 42.0107<34 362> 722.011 39<236.926 387.512>
VStem: 152 45<0 683.399>
AnchorPoint: "Anchor-2" 173 0 basechar 0
AnchorPoint: "Anchor-0" 296 752.002 basechar 0
LayerCount: 2
Fore
SplineSet
34 501.010742188 m 1
 362 501.010742188 l 1
 362 459 l 1
 34 459 l 1
 34 501.010742188 l 1
197 587.010742188 m 2
 197 0 l 1
 152 0 l 1
 152 600.010742188 l 2
 152 696.915811109 195.965389039 761.010742188 302 761.010742188 c 0
 355.202223558 761.010742188 392 745.010742188 392 745.010742188 c 1
 384 707.010742188 l 5
 384 707.010742188 352.329003906 722.010742188 308 722.010742188 c 4
 229.850585937 722.010742188 197 681.347482341 197 587.010742188 c 2
EndSplineSet
EndChar

StartChar: c
Encoding: 99 99 40
Width: 492
Flags: W
HStem: -9.99805 41.4619<202.794 417.387> 469.284 41.6494<199.949 401.997>
VStem: 55 42.8486<144.067 360.196>
AnchorPoint: "Anchor-3" 357 18 basechar 0
AnchorPoint: "Anchor-0" 291 501.011 basechar 0
AnchorPoint: "Anchor-2" 297 0 basechar 0
LayerCount: 2
Fore
SplineSet
55 253.561523438 m 4
 55 409.296356709 144.868048496 510.93359375 293.888671875 510.93359375 c 4
 408.546684572 510.93359375 455.681640625 460.704101562 455.681640625 460.704101562 c 5
 438.35546875 428.951171875 l 5
 438.35546875 428.951171875 390.675194235 469.284179688 294 469.284179688 c 4
 166.594820599 469.284179688 97.8486328125 382.92037289 97.8486328125 253.561523438 c 4
 97.8486328125 120.37988281 166.561478476 31.4638671875 293.888671875 31.4638671875 c 4
 386.805851276 31.4638671875 436.018554688 60.595703125 436.018554688 60.595703125 c 5
 448.827148438 23.595703125 l 5
 448.827148438 23.595703125 392.218821339 -9.998046875 293.888671875 -9.998046875 c 4
 145.093468688 -9.998046875 55 94.0826581127 55 253.561523438 c 4
EndSplineSet
Validated: 524289
Substitution2: "'ss12' Style Set 12 lookup 13-1" c.ss12
EndChar

StartChar: t
Encoding: 116 116 41
Width: 412
Flags: W
HStem: -10 43<226.243 361.485> 459 42.0107<34 362>
VStem: 152 45<63.8153 657.011>
AnchorPoint: "Anchor-2" 208 0.0117188 basechar 0
AnchorPoint: "Anchor-0" 173 660 basechar 0
LayerCount: 2
Fore
SplineSet
34 501.010742188 m 1
 362 501.010742188 l 1
 362 459 l 1
 34 459 l 1
 34 501.010742188 l 1
197 156 m 6
 197 70.0487478586 223.339658995 33 286 33 c 4
 327.995898437 33 358 44 358 44 c 5
 367 4 l 5
 367 4 332.246544471 -10 282 -10 c 4
 176.199593851 -10 152 60.1138794585 152 141 c 6
 152 657.010742188 l 5
 197 663.010742188 l 5
 197 156 l 6
EndSplineSet
Validated: 524293
Substitution2: "'ss11' Style Set 11 lookup 12-1" t.ss11
EndChar

StartChar: r
Encoding: 114 114 42
Width: 420
Flags: W
HStem: 0 21G<77 122> 471.284 39.6494<202.23 369.245> 481.011 20G<77 122>
VStem: 77 45<0 501.011>
AnchorPoint: "Anchor-2" 172 0.0117188 basechar 0
AnchorPoint: "Anchor-0" 235 501.011 basechar 0
LayerCount: 2
Fore
SplineSet
77 0 m 1xb0
 77 501.010742188 l 1
 122 501.010742188 l 1
 122 0 l 1
 77 0 l 1xb0
285 510.93359375 m 0xd0
 354.384528775 510.93359375 385 484.93359375 385 484.93359375 c 1
 372 449.93359375 l 5
 372 449.93359375 339.942900509 471.284179688 283 471.284179688 c 4
 184.860835373 471.284179688 122 407.885614134 122 284 c 1
 89 293.561523438 l 1
 110.016221672 444 164.380645094 510.93359375 285 510.93359375 c 0xd0
EndSplineSet
Validated: 524293
EndChar

StartChar: e
Encoding: 101 101 43
Width: 551
Flags: W
HStem: -9.99805 42.4619<208.985 448.84> 232 42<69 463> 469.284 41.6494<194.805 377.46>
VStem: 69 30.8486<232 274> 464 42.4658<253.01 380.429>
AnchorPoint: "Anchor-3" 409 14 basechar 0
AnchorPoint: "Anchor-2" 302 0 basechar 0
AnchorPoint: "Anchor-0" 289 501.011 basechar 0
LayerCount: 2
Fore
SplineSet
55 253.561523438 m 0
 55 409.296356709 143.12059544 510.93359375 287.888671875 510.93359375 c 0
 454.304426619 510.93359375 506.465820312 380.849744815 506.465820312 287.7109375 c 4
 506.465820312 253.317301433 502 232 502 232 c 5
 69 232 l 5
 69 274 l 5
 463 274 l 5
 463 274 464 278.717920265 464 289 c 4
 464 383.20689359 411.244681062 469.284179688 287 469.284179688 c 0
 155.899373214 469.284179688 99.8486328125 382.119679924 99.8486328125 251.561523438 c 0
 99.8486328125 108.390132954 170.164836408 32.4638671875 322 32.4638671875 c 0
 413.739831479 32.4638671875 466.018554688 60.595703125 466.018554688 60.595703125 c 1
 476.827148438 18.595703125 l 1
 476.827148438 18.595703125 420.949541407 -9.998046875 323.888671875 -9.998046875 c 0
 138.126919654 -9.998046875 55 94.0826581127 55 253.561523438 c 0
EndSplineSet
Validated: 524293
Substitution2: "'ss03' Style Set 3 lookup 4-1" e.ss03
EndChar

StartChar: d
Encoding: 100 100 44
Width: 602
Flags: W
HStem: -9.99805 41.6494<203.447 394.29> 0 21G<485 530> 468.472 42.4619<204.728 391.981> 731.002 20G<485 530>
VStem: 58.0713 44.8486<135.535 361.951> 485 45<217.374 751.002> 485 32.8486<75.1885 217.374 317.374 401.424>
AnchorPoint: "Anchor-2" 316 0 basechar 0
AnchorPoint: "Anchor-0" 473 750.002 basechar 0
LayerCount: 2
Fore
SplineSet
530 0 m 1x7c
 485 0 l 1x7a
 485 751.001953125 l 1
 530 751.001953125 l 1
 530 0 l 1x7c
485 295.374023438 m 5xbc
 485 379.706664718 427.785395946 468.471679688 293.959960938 468.471679688 c 4
 170.136048509 468.471679688 102.919921875 379.956510178 102.919921875 247.374023438 c 4
 102.919921875 118.015542514 170.101197087 31.6513671875 293.848632812 31.6513671875 c 4
 427.75035289 31.6513671875 485 109.207965885 485 225.374023438 c 5xbc
 517.848632812 217.374023438 l 5xba
 517.848632812 75.1884765621 428.936399325 -9.998046875 292 -9.998046875 c 4
 143.407733598 -9.998046875 58.0712890625 91.6396484369 58.0712890625 247.374023438 c 4
 58.0712890625 406.852539062 147.326765387 510.93359375 293.959960938 510.93359375 c 4
 430.02521722 510.93359375 512.848632812 434.49609375 512.848632812 317.374023438 c 5
 485 295.374023438 l 5xbc
EndSplineSet
Validated: 524293
Substitution2: "'ss05' Style Set 5 lookup 6-1" d.ss05
EndChar

StartChar: b
Encoding: 98 98 45
Width: 602
Flags: W
HStem: -9.99805 41.6494<212.797 408.847> 0 21G<77 122> 468.472 42.4619<215.245 407.594> 731.002 20G<77 122>
VStem: 77 45<197.374 751.002> 99.1514 22.8486<55.1885 197.374 297.374 424.496> 504.08 44.8486<130.422 367.189>
AnchorPoint: "Anchor-2" 296 0 basechar 0
AnchorPoint: "Anchor-0" 134 749.002 basechar 0
LayerCount: 2
Fore
SplineSet
77 0 m 1x7a
 77 751.001953125 l 1
 122 751.001953125 l 1x7a
 122 0 l 1x76
 77 0 l 1x7a
122 295.374023438 m 1
 94.1513671875 297.374023438 l 1
 94.1513671875 424.49609375 180.758597396 510.93359375 323.040039062 510.93359375 c 0
 463.457031249 510.93359375 548.928710938 406.852539062 548.928710938 247.374023438 c 0
 548.928710938 91.6396484369 467.240234374 -9.998046875 325 -9.998046875 c 0
 188.063600675 -9.998046875 99.1513671875 55.1884765621 99.1513671875 197.374023438 c 1xb6
 122 225.374023438 l 1
 122 109.207965885 179.24964711 31.6513671875 313.151367188 31.6513671875 c 4xba
 446.898802913 31.6513671875 504.080078125 118.015542514 504.080078125 247.374023438 c 0
 504.080078125 379.956510178 446.863951491 468.471679688 313.040039062 468.471679688 c 0
 179.214604054 468.471679688 122 379.706664718 122 295.374023438 c 1
EndSplineSet
Validated: 524293
EndChar

StartChar: a
Encoding: 97 97 46
Width: 566
Flags: W
HStem: -9.99805 43.4619<137.543 323.014 450.958 530.155> 246.284 43.6494<208.041 412.777> 469.011 42<132.743 337.988>
VStem: 45 51.8486<71.4163 186.632> 396.929 45<38.1168 246.284 289.934 411.136> 396.929 24.8486<57.3566 160.562>
AnchorPoint: "Anchor-3" 458 0 basechar 0
AnchorPoint: "Anchor-2" 284 0 basechar 0
AnchorPoint: "Anchor-0" 274 501.011 basechar 0
LayerCount: 2
Back
SplineSet
357.928710938 177.561523438 m 5x7c
 407.77734375 180.561523438 l 5x7a
 407.77734375 65.2546726394 343.443566636 -9.998046875 207.888671875 -9.998046875 c 4
 103.525845263 -9.998046875 40 50 40 141 c 4
 40 286.71747631 179.159368499 309.798279039 373.928710938 309.93359375 c 5
 373.77734375 224.284179688 l 5x79
 214.9215174 224.170106541 164.848632812 210.544945242 164.848632812 148.561523438 c 4
 164.848632812 111.324445486 189.419144912 86.4638671875 246.888671875 86.4638671875 c 4
 313.711369303 86.4638671875 357.928710938 123.027306191 357.928710938 177.561523438 c 5x7c
357.928710938 299.010742188 m 6xbc
 357.928710938 377.97408765 325.670027448 412.010742188 248.928710938 412.010742188 c 4
 170.769677734 412.010742188 114.928710938 368.010742188 114.928710938 368.010742188 c 5
 79.9287109375 467.010742188 l 5
 79.9287109375 467.010742188 159.657226562 511.010742188 274.928710938 511.010742188 c 4
 417.721987032 511.010742188 476.928710938 427.01055301 476.928710938 300.010742188 c 6
 476.928710938 118 l 6
 476.928710938 93.251950046 485.36431245 84 507.928710938 84 c 4
 525.694039812 84 536.928710938 91 536.928710938 91 c 5
 545.928710938 13 l 5
 545.928710938 13 520.8653569 -9.998046875 467.928710938 -9.998046875 c 4
 394.082557091 -9.998046875 357.928710938 33 357.928710938 125 c 6
 357.928710938 299.010742188 l 6xbc
EndSplineSet
Fore
SplineSet
396.928710938 177.561523438 m 5xf8
 421.77734375 160.561523438 l 5xf4
 421.77734375 57.356594428 356.156174478 -9.998046875 217.888671875 -9.998046875 c 4
 110.417749123 -9.998046875 45 46.821254414 45 128 c 4
 45 268.366606025 209.864709967 289.803885994 412.928710938 289.93359375 c 5
 412.77734375 246.284179688 l 5
 215.395783496 246.105989311 96.8486328125 226.013050237 96.8486328125 128 c 4
 96.8486328125 73.9379583337 136.992840924 33.4638671875 230.888671875 33.4638671875 c 4
 330.809775874 33.4638671875 396.928710938 91.2996675995 396.928710938 177.561523438 c 5xf8
396.928710938 309.010742188 m 6xf8
 396.928710938 420.817249036 352.831978462 469.010742188 247.928710938 469.010742188 c 4
 156.354321288 469.010742188 90.9287109375 430.010742188 90.9287109375 430.010742188 c 5
 74.9287109375 467.010742188 l 5
 74.9287109375 467.010742188 146.888807091 511.010742188 250.928710938 511.010742188 c 4
 385.94611556 511.010742188 441.928710938 434.972656249 441.928710938 320.010742188 c 6
 441.928710938 116 l 6
 441.928710938 53.4019912928 455.534519827 30 491.928710938 30 c 4
 513.369625096 30 526.928710938 39 526.928710938 39 c 5
 535.928710938 3 l 5
 535.928710938 3 514.785872998 -9.998046875 482 -9.998046875 c 4
 420.750834362 -9.998046875 396.928710938 29.8149134102 396.928710938 115 c 6
 396.928710938 309.010742188 l 6xf8
EndSplineSet
Validated: 524293
Substitution2: "'ss15' Style Set 15 lookup 20-1" a.ss15
Substitution2: "'ss02' Style Set 2 lookup 3-1" a.ss02
EndChar

StartChar: plus
Encoding: 43 43 47
Width: 450
Flags: W
HStem: 338 40<30 420>
VStem: 205 40<163 553>
LayerCount: 2
Fore
SplineSet
245 553 m 5
 245 163 l 5
 205 163 l 5
 205 553 l 5
 245 553 l 5
420 338 m 1
 30 338 l 1
 30 378 l 1
 420 378 l 1
 420 338 l 1
EndSplineSet
Validated: 5
EndChar

StartChar: s
Encoding: 115 115 48
Width: 476
Flags: W
HStem: -9.99805 42.9795<99.5667 332.63> 469.904 41.0293<155.933 370.527>
VStem: 59.2041 46.0576<311.972 427.126> 377.521 44.1689<73.0582 183.182>
AnchorPoint: "Anchor-2" 235 0.0117188 basechar 0
AnchorPoint: "Anchor-0" 257 501.011 basechar 0
LayerCount: 2
Fore
SplineSet
224.0625 232.336914062 m 4
 91.2905570541 256.148707084 59.2041015625 299.002808129 59.2041015625 365 c 4
 59.2041015625 455.906656001 133.674715577 510.93359375 256.017578125 510.93359375 c 4
 358.496516581 510.93359375 408.334960938 473.225585938 408.334960938 473.225585938 c 5
 393.294921875 439.444335938 l 5
 393.294921875 439.444335938 339.716372788 469.904296875 260.743164062 469.904296875 c 4
 153.494108719 469.904296875 105.26171875 431.097894028 105.26171875 368.518554688 c 4
 105.26171875 313.234818853 135.997180279 289.343678871 248.563476562 269.692382812 c 4
 380.200260064 246.711850538 421.689453125 202.795859219 421.689453125 133.40234375 c 4
 421.689453125 45.0263222041 354.204802572 -9.998046875 227.856445312 -9.998046875 c 4
 120.224601994 -9.998046875 52 26.5625 52 26.5625 c 5
 65.314453125 68.861328125 l 5
 65.314453125 68.861328125 132.554998645 32.9814453125 214.993164062 32.9814453125 c 4
 325.09988771 32.9814453125 377.520507812 65.4188186225 377.520507812 128.336914062 c 4
 377.520507812 176.007215841 352.908226741 209.229262635 224.0625 232.336914062 c 4
EndSplineSet
Validated: 524289
EndChar

StartChar: y
Encoding: 121 121 49
Width: 539
Flags: W
HStem: 481.011 20G<25 84.2591 455.305 514>
AnchorPoint: "Anchor-2" 192 -179.994 basechar 0
AnchorPoint: "Anchor-0" 277 501.011 basechar 0
LayerCount: 2
Fore
SplineSet
248 13 m 1
 25 501.010742188 l 1
 75 501.010742188 l 1
 275.606445312 67.6943359375 l 1
 464 501.010742188 l 1
 514 501.010742188 l 1
 217 -179.994140625 l 5
 165 -179.994140625 l 1
 248 13 l 1
EndSplineSet
Validated: 524289
Substitution2: "'ss04' Style Set 4 lookup 5-1" y.ss04
EndChar

StartChar: u
Encoding: 117 117 50
Width: 595
Flags: W
HStem: -9.92285 45.6494<189.298 385.152> 0 21G<483.777 528.777> 481.011 20G<77 122 483.777 528.777>
VStem: 77 45<111.246 501.011> 483.777 45<207.449 501.011>
AnchorPoint: "Anchor-3" 494 0 basechar 0
AnchorPoint: "Anchor-2" 312 0.0117188 basechar 0
AnchorPoint: "Anchor-0" 302 501.011 basechar 0
LayerCount: 2
Fore
SplineSet
483.77734375 217.010742188 m 13xb8
 518.77734375 207.44921875 l 21
 492.377656428 57.0107421877 409.778226037 -9.9228515625 273.77734375 -9.9228515625 c 4
 143.828110899 -9.9228515625 77 63.4045445419 77 216.44921875 c 6
 77 501.010742188 l 5
 122 501.010742188 l 5
 122 233.44921875 l 6
 122 88.1984900123 171.12521076 35.7265625 286.77734375 35.7265625 c 4
 404.776995398 35.7265625 483.77734375 108.303046313 483.77734375 217.010742188 c 13xb8
528.77734375 501.010742188 m 5
 528.77734375 0 l 5
 483.77734375 0 l 5x78
 483.77734375 501.010742188 l 5
 528.77734375 501.010742188 l 5
EndSplineSet
Substitution2: "'ss05' Style Set 5 lookup 6-1" u.ss05
EndChar

StartChar: backslash
Encoding: 92 92 51
Width: 434
Flags: W
VStem: 58 318
LayerCount: 2
Fore
SplineSet
333 -171.469726562 m 5
 58 761.403320312 l 5
 101 761.403320312 l 1
 376 -171.469726562 l 1
 333 -171.469726562 l 5
EndSplineSet
Validated: 524289
EndChar

StartChar: equal
Encoding: 61 61 52
Width: 450
Flags: W
HStem: 254 41<30 420> 421 41<30 420>
LayerCount: 2
Back
SplineSet
420 285 m 5xea
 30 285 l 5
 30 431 l 5
 420 431 l 5
 420 285 l 5xea
EndSplineSet
Fore
SplineSet
420 254 m 5
 30 254 l 5
 30 295 l 1
 420 295 l 1
 420 254 l 5
420 421 m 1
 30 421 l 1
 30 462 l 1
 420 462 l 1
 420 421 l 1
EndSplineSet
Validated: 1
EndChar

StartChar: v
Encoding: 118 118 53
Width: 539
Flags: W
HStem: 0 21G<236.218 312.383> 481.011 20G<25 83.6291 455.728 514>
AnchorPoint: "Anchor-2" 273 0.0117188 basechar 0
AnchorPoint: "Anchor-0" 272 501.011 basechar 0
LayerCount: 2
Fore
SplineSet
245 0 m 1
 25 501.010742188 l 1
 75 501.010742188 l 1
 273.606445312 40.6943359375 l 5
 464 501.010742188 l 1
 514 501.010742188 l 1
 304 0 l 1
 245 0 l 1
EndSplineSet
Validated: 524289
EndChar

StartChar: w
Encoding: 119 119 54
Width: 735
Flags: W
HStem: 0 21G<169.012 243.463 490.587 565.028> 481.011 20G<25 77.874 657.126 710>
AnchorPoint: "Anchor-2" 370 0 basechar 0
AnchorPoint: "Anchor-0" 368 501.011 basechar 0
LayerCount: 2
Fore
SplineSet
175 0 m 1
 25 501.010742188 l 1
 72 501.010742188 l 1
 206.606445312 42.6943359375 l 1
 335 451.010742188 l 1
 399 451.010742188 l 1
 528.393554688 42.6943359375 l 1
 663 501.010742188 l 1
 710 501.010742188 l 1
 559 0 l 1
 497 0 l 1
 367.5 403.841796875 l 1
 237 0 l 1
 175 0 l 1
EndSplineSet
Validated: 524289
EndChar

StartChar: x
Encoding: 120 120 55
Width: 528
Flags: W
HStem: 0 21G<25 105.982 426.562 503> 481.011 20G<35 110.887 417.113 493>
VStem: 263 2<219 287>
AnchorPoint: "Anchor-2" 267 0 basechar 0
AnchorPoint: "Anchor-0" 266 501.011 basechar 0
LayerCount: 2
Fore
SplineSet
90 0 m 1
 25 0 l 1
 233 253 l 1
 35 501.010742188 l 1
 95 501.010742188 l 1
 265 287 l 1
 265 219 l 1
 90 0 l 1
443 0 m 5
 263 219 l 1
 263 287 l 1
 433 501.010742188 l 5
 493 501.010742188 l 5
 295 253 l 1
 503 0 l 5
 443 0 l 5
EndSplineSet
Validated: 524293
EndChar

StartChar: z
Encoding: 122 122 56
Width: 478
Flags: W
HStem: 0 45<100 438> 456.011 45<50 368>
AnchorPoint: "Anchor-2" 246 0 basechar 0
AnchorPoint: "Anchor-0" 240 501.011 basechar 0
LayerCount: 2
Fore
SplineSet
438 0 m 1
 40 0 l 1
 40 46 l 1
 368 456.010742188 l 5
 50 456.010742188 l 5
 50 501.010742188 l 1
 428 501.010742188 l 1
 428 460.010742188 l 1
 100 45 l 1
 438 45 l 1
 438 0 l 1
EndSplineSet
EndChar

StartChar: period
Encoding: 46 46 57
Width: 245
Flags: W
HStem: -10 86.4492<84.6836 160.543>
VStem: 80 85.2266<-5.24913 71.6983>
LayerCount: 2
Fore
SplineSet
80 33.224609375 m 0
 80 59.4105850447 96.7968911669 76.44921875 122.612304688 76.44921875 c 0
 148.428806352 76.44921875 165.2265625 59.4105850447 165.2265625 33.224609375 c 4
 165.2265625 7.03818091149 148.428806352 -10 122.612304688 -10 c 0
 96.7968911672 -10 80 7.03818091149 80 33.224609375 c 0
EndSplineSet
Validated: 524289
EndChar

StartChar: two
Encoding: 50 50 58
Width: 608
Flags: W
HStem: 0 46<103.813 568.549> 696.599 42.3936<172.153 411.456>
VStem: 58 45.8135<46 143.429> 507.676 43.0859<445.683 611.705>
LayerCount: 2
Fore
SplineSet
507.67578125 527 m 0
 507.67578125 618.770830576 453.188420732 696.598632812 293.328125 696.598632812 c 4
 178.654104254 696.598632812 96.5380859375 639.754882812 96.5380859375 639.754882812 c 5
 79.322265625 679.796875 l 5
 79.322265625 679.796875 167.84775285 738.9921875 296.69140625 738.9921875 c 4
 455.120829194 738.9921875 550.76171875 667.676711346 550.76171875 526.93359375 c 0
 550.76171875 401.402309676 463.813757836 349.432691203 349.374023438 301.0234375 c 0
 135.982950771 210.756690299 103.813476562 143.424764946 103.813476562 46 c 1
 568.548828125 46 l 1
 568.548828125 0 l 1
 58 0 l 1
 58 54 l 2
 58 185.58755434 148.12860922 263.856832719 314.821289062 335.876953125 c 0
 437.24362948 388.769927823 507.67578125 419.932907424 507.67578125 527 c 0
EndSplineSet
Validated: 524289
Substitution2: "'onum' Oldstyle Figures lookup 18-1" two.osf
Substitution2: "'tnum' Tabular Numbers lookup 17-1" two.tf
Substitution2: "'numr' Numerators lookup 0 subtable" two.numr
Substitution2: "'dnom' Denominators lookup 0 subtable" two.dnom
Substitution2: "'sups' Superscript lookup 0 subtable" two.superior
Substitution2: "'sinf' Scientific Inferiors lookup 0 subtable" two.inferior
Substitution2: "'sups' Superscript lookup 0 subtable" two.superior
EndChar

StartChar: three
Encoding: 51 51 59
Width: 579
Flags: W
HStem: -9.99805 42.9375<108.481 381.482> 351 43.4814<164.139 377.353> 696.599 42.3936<125.401 375.9>
VStem: 465.984 43.0859<462.896 621.118> 479.827 45.084<111.966 276.327>
LayerCount: 2
Fore
SplineSet
265.138671875 394.481445312 m 2xe8
 396.311291863 394.481445312 465.984375 442.172968122 465.984375 537.05859375 c 0
 465.984375 627.750546199 413.902251208 696.598632812 252 696.598632812 c 4
 131.631427199 696.598632812 62.8466796875 645.754882812 62.8466796875 645.754882812 c 5
 44.630859375 684.796875 l 5
 44.630859375 684.796875 121.593003477 738.9921875 255 738.9921875 c 4
 415.302093477 738.9921875 509.0703125 670.273168235 509.0703125 539.868164062 c 0xf0
 509.0703125 401.249582832 380.163085938 372.697265625 380.163085938 372.697265625 c 1
 380.163085938 372.697265625 524.911132812 349.658491736 524.911132812 196 c 0
 524.911132812 53.5320493201 415.013909841 -9.998046875 250 -9.998046875 c 0
 109.204711624 -9.998046875 25.451171875 40.9091796875 25.451171875 40.9091796875 c 1
 43.7744140625 82.2626953125 l 1
 43.7744140625 82.2626953125 120.072517776 32.939453125 250 32.939453125 c 0
 405.820178793 32.939453125 479.827148438 90.0441727426 479.827148438 193 c 0
 479.827148438 303.070412726 406.006335357 350.371418185 265.138671875 350.737304688 c 2
 164 351 l 1
 164.138671875 394.481445312 l 1
 265.138671875 394.481445312 l 2xe8
EndSplineSet
Validated: 524289
Substitution2: "'onum' Oldstyle Figures lookup 18-1" three.osf
Substitution2: "'tnum' Tabular Numbers lookup 17-1" three.tf
Substitution2: "'numr' Numerators lookup 0 subtable" three.numr
Substitution2: "'dnom' Denominators lookup 0 subtable" three.dnom
Substitution2: "'sups' Superscript lookup 0 subtable" three.superior
Substitution2: "'sinf' Scientific Inferiors lookup 0 subtable" three.inferior
Substitution2: "'sups' Superscript lookup 0 subtable" three.superior
EndChar

StartChar: comma
Encoding: 44 44 61
Width: 252
Flags: W
HStem: -12.4492 88.8984<86.676 125.948>
VStem: 80 92.2266<-2.81984 68.5422>
LayerCount: 2
Fore
SplineSet
80 33.224609375 m 0
 80 59.4105850447 96.7968911669 76.44921875 122.612304688 76.44921875 c 0
 152.669535182 76.44921875 172.2265625 56.3599702418 172.2265625 20 c 0
 172.2265625 -42.7194293996 100 -92 100 -92 c 5
 75 -63 l 1
 75 -63 111 -45 125.948242188 -12.44921875 c 1
 97.8798058713 -10.0964541272 80 7.36880727296 80 33.224609375 c 0
EndSplineSet
Validated: 524289
EndChar

StartChar: zero
Encoding: 48 48 63
Width: 683
Flags: W
HStem: -9.99805 45.4619<238.884 444.893> 693.659 45.4619<238.884 444.893>
VStem: 55 46.8486<201.351 527.772> 581.929 46.8486<201.351 527.772>
LayerCount: 2
Fore
SplineSet
101.848632812 364.561523438 m 0
 101.848632812 167.21695652 173.739221257 35.4638671875 341.888671875 35.4638671875 c 4
 510.038122493 35.4638671875 581.928710938 167.21695652 581.928710938 364.561523438 c 0
 581.928710938 561.906090349 510.038122493 693.659179688 341.888671875 693.659179688 c 0
 173.739221257 693.659179688 101.848632812 561.906090349 101.848632812 364.561523438 c 0
55 364.561523438 m 0
 55 591.206054688 154.20485925 739.12109375 341.888671875 739.12109375 c 0
 529.5724845 739.12109375 628.77734375 591.206054688 628.77734375 364.561523438 c 0
 628.77734375 137.916992188 529.5724845 -9.998046875 341.888671875 -9.998046875 c 0
 154.20485925 -9.998046875 55 137.916992188 55 364.561523438 c 0
EndSplineSet
Substitution2: "'onum' Oldstyle Figures lookup 18-1" zero.osf
Substitution2: "'tnum' Tabular Numbers lookup 17-1" zero.tf
Substitution2: "'numr' Numerators lookup 0 subtable" zero.numr
Substitution2: "'dnom' Denominators lookup 0 subtable" zero.dnom
Substitution2: "'sups' Superscript lookup 0 subtable" zero.superior
Substitution2: "'sinf' Scientific Inferiors lookup 0 subtable" zero.inferior
Substitution2: "'sups' Superscript lookup 0 subtable" zero.superior
EndChar

StartChar: one
Encoding: 49 49 64
Width: 415
Flags: W
HStem: 0 21G<281 330> 711 20G<257.675 330>
VStem: 281 49<0 671>
LayerCount: 2
Fore
SplineSet
330 731 m 1
 330 0 l 1
 281 0 l 1
 281 671 l 1
 68 566 l 5
 50 608 l 5
 298 731 l 1
 330 731 l 1
EndSplineSet
Validated: 1
Substitution2: "'onum' Oldstyle Figures lookup 18-1" one.osf
Substitution2: "'tnum' Tabular Numbers lookup 17-1" one.tf
Substitution2: "'numr' Numerators lookup 0 subtable" one.numr
Substitution2: "'dnom' Denominators lookup 0 subtable" one.dnom
Substitution2: "'sups' Superscript lookup 0 subtable" one.superior
Substitution2: "'sinf' Scientific Inferiors lookup 0 subtable" one.inferior
Substitution2: "'sups' Superscript lookup 0 subtable" one.superior
EndChar

StartChar: four
Encoding: 52 52 65
Width: 660
Flags: W
HStem: 0 21G<433 480> 205 43<125 610> 711 20G<419.878 480>
VStem: 433 47<0 661>
LayerCount: 2
Fore
SplineSet
480 731 m 1
 480 0 l 1
 433 0 l 1
 433 661 l 5
 125 248 l 1
 610 248 l 1
 610 205 l 1
 76 205 l 1
 63 239 l 1
 435 731 l 1
 480 731 l 1
EndSplineSet
Validated: 5
Substitution2: "'onum' Oldstyle Figures lookup 18-1" four.osf
Substitution2: "'tnum' Tabular Numbers lookup 17-1" four.tf
Substitution2: "'numr' Numerators lookup 0 subtable" four.numr
Substitution2: "'dnom' Denominators lookup 0 subtable" four.dnom
Substitution2: "'sups' Superscript lookup 0 subtable" four.superior
Substitution2: "'sinf' Scientific Inferiors lookup 0 subtable" four.inferior
Substitution2: "'sups' Superscript lookup 0 subtable" four.superior
EndChar

StartChar: exclam
Encoding: 33 33 66
Width: 274
Flags: W
HStem: -10 86.4492<99.0703 174.929> 711.008 20G<113 165>
VStem: 94.3867 85.2266<-5.24913 71.6983> 119 40<210 731.008>
LayerCount: 2
Fore
SplineSet
119 210 m 5xd0
 113 731.0078125 l 1
 165 731.0078125 l 1
 159 210 l 5
 119 210 l 5xd0
94.38671875 33.224609375 m 0xe0
 94.38671875 59.4105850447 111.183609917 76.44921875 136.999023438 76.44921875 c 0
 162.815525102 76.44921875 179.61328125 59.4105850447 179.61328125 33.224609375 c 0
 179.61328125 7.03818091149 162.815525102 -10 136.999023438 -10 c 0
 111.183609917 -10 94.38671875 7.03818091149 94.38671875 33.224609375 c 0xe0
EndSplineSet
Validated: 524289
EndChar

StartChar: five
Encoding: 53 53 67
Width: 594
Flags: W
HStem: -9.99805 42.8926<120.915 380.171> 428.936 41.4346<208.846 402.517> 685.841 45.167<142.805 504.672>
VStem: 495.845 43.9824<135.769 336.743>
LayerCount: 2
Fore
SplineSet
267 -9.998046875 m 0
 121.815612706 -9.998046875 35.451171875 40.9091796875 35.451171875 40.9091796875 c 1
 52.7744140625 81.2626953125 l 1
 52.7744140625 81.2626953125 139.958404353 32.89453125 252 32.89453125 c 0
 422.074395277 32.89453125 495.844726562 110.290097828 495.844726562 235.576171875 c 0
 495.844726562 356.679720718 429.393967401 428.935546875 301 428.935546875 c 4
 159.506865098 428.935546875 117 318 117 318 c 1
 66.947265625 330.728515625 l 1
 103 731.0078125 l 1
 504.671875 731.0078125 l 1
 504.671875 685.840820312 l 1
 142.8046875 685.840820312 l 1
 114.470703125 377.322265625 l 1
 114.470703125 377.322265625 161.937821434 470.370117188 314.815429688 470.370117188 c 4
 450.313080734 470.370117188 539.827148438 383.084162316 539.827148438 237.497070312 c 0
 539.827148438 84.0963905374 437.936799938 -9.998046875 267 -9.998046875 c 0
EndSplineSet
Validated: 524289
Substitution2: "'onum' Oldstyle Figures lookup 18-1" five.osf
Substitution2: "'tnum' Tabular Numbers lookup 17-1" five.tf
Substitution2: "'numr' Numerators lookup 0 subtable" five.numr
Substitution2: "'dnom' Denominators lookup 0 subtable" five.dnom
Substitution2: "'sups' Superscript lookup 0 subtable" five.superior
Substitution2: "'sinf' Scientific Inferiors lookup 0 subtable" five.inferior
Substitution2: "'sups' Superscript lookup 0 subtable" five.superior
EndChar

StartChar: six
Encoding: 54 54 68
Width: 640
Flags: W
HStem: -9.99805 46.8887<223.492 438.279> 436.891 39.709<228.154 436.36> 696.52 42.4727<246.442 484.535>
VStem: 55 38.3037<328.996 495.16> 541.398 43.7666<136.764 337.132>
LayerCount: 2
Back
SplineSet
188.3984375 236.890625 m 4
 188.3984375 160.019065367 229.88147703 103.890625 330.3984375 103.890625 c 4
 431.623435844 103.890625 473.3984375 160.019065367 473.3984375 236.890625 c 4
 473.3984375 314.340166284 431.623435844 370.890625 330.3984375 370.890625 c 4
 229.88147703 370.890625 188.3984375 314.340166284 188.3984375 236.890625 c 4
173.303710938 405.747070312 m 5
 173.303710938 405.747070312 214.094697864 475.599609375 341.263671875 475.599609375 c 4
 515.711185917 475.599609375 595.165039062 379.238029036 595.165039062 239 c 4
 595.165039062 79.095703125 494.937095781 -9.998046875 331.297851562 -9.998046875 c 4
 151.540405276 -9.998046875 45 99.6728515624 45 365.331054688 c 4
 45 605.528320312 159.046377502 738.9921875 364.297851562 738.9921875 c 4
 505.428880973 738.9921875 576.923828125 678.860351562 576.923828125 678.860351562 c 5
 532.619140625 573.388671875 l 5
 532.619140625 573.388671875 473.487673927 622.51953125 364.778320312 622.51953125 c 4
 242.266224145 622.51953125 180.301516454 546.295339891 173.303710938 405.747070312 c 5
EndSplineSet
Fore
SplineSet
116.3984375 236.890625 m 0
 116.3984375 121.294294725 188.776882028 36.890625 330.3984375 36.890625 c 4
 475.814474859 36.890625 541.3984375 121.294294725 541.3984375 236.890625 c 0
 541.3984375 352.486955275 479.758400092 436.890625 330.3984375 436.890625 c 0
 188.776882028 436.890625 116.3984375 352.486955275 116.3984375 236.890625 c 0
93.3037109375 319.747070312 m 1
 93.3037109375 319.747070312 123.391384801 476.599609375 338.263671875 476.599609375 c 0
 493.400390626 476.599609375 585.165039062 379.830752031 585.165039062 239 c 0
 585.165039062 79.095703125 488.735519687 -9.998046875 331.297851562 -9.998046875 c 0
 148.8190918 -9.998046875 55 99.6728515623 55 365.331054688 c 0
 55 605.528320312 161.90280438 738.9921875 354.297851562 738.9921875 c 0
 488.791355695 738.9921875 556.923828125 685.860351562 556.923828125 685.860351562 c 1
 539.619140625 649.388671875 l 1
 539.619140625 649.388671875 475.555378361 696.51953125 357.778320312 696.51953125 c 0
 188.558292219 696.51953125 93.3037109375 595.995944747 93.3037109375 319.747070312 c 1
EndSplineSet
Validated: 524289
Substitution2: "'onum' Oldstyle Figures lookup 18-1" six.osf
Substitution2: "'tnum' Tabular Numbers lookup 17-1" six.tf
Substitution2: "'numr' Numerators lookup 0 subtable" six.numr
Substitution2: "'dnom' Denominators lookup 0 subtable" six.dnom
Substitution2: "'ss07' Style Set 7 lookup 8-1" six.ss07
Substitution2: "'sups' Superscript lookup 0 subtable" six.superior
Substitution2: "'sinf' Scientific Inferiors lookup 0 subtable" six.inferior
Substitution2: "'sups' Superscript lookup 0 subtable" six.superior
EndChar

StartChar: parenright
Encoding: 41 41 69
Width: 402
Flags: W
HStem: -171.47 44.5254<50 150.836> 714.944 44.5254<50 150.836>
VStem: 306.448 45.6787<88.5414 499.459>
LayerCount: 2
Fore
SplineSet
50 -126.944335938 m 5
 211.869007195 -126.944335938 306.448242188 -10.3164853893 306.448242188 294 c 4
 306.448242188 598.316485388 211.869007195 714.944335938 50 714.944335938 c 5
 50 759.469726562 l 1
 246.463867188 759.469726562 352.126953125 611.823242188 352.126953125 294 c 0
 352.126953125 -23.8232421881 246.463867188 -171.469726562 50 -171.469726562 c 1
 50 -126.944335938 l 5
EndSplineSet
Validated: 524289
EndChar

StartChar: seven
Encoding: 55 55 70
Width: 604
Flags: W
HStem: 0 21G<221 271.03> 685 46<50 500>
VStem: 221 48<0 162.434>
LayerCount: 2
Fore
SplineSet
269 0 m 1
 221 0 l 5
 235.194811374 417.042735042 500 685 500 685 c 5
 50 685 l 1
 50 731 l 1
 554 731 l 1
 554 689 l 1
 554 689 273.059654038 402.4544 269 0 c 1
EndSplineSet
Validated: 524289
Substitution2: "'onum' Oldstyle Figures lookup 18-1" seven.osf
Substitution2: "'tnum' Tabular Numbers lookup 17-1" seven.tf
Substitution2: "'numr' Numerators lookup 0 subtable" seven.numr
Substitution2: "'dnom' Denominators lookup 0 subtable" seven.dnom
Substitution2: "'sups' Superscript lookup 0 subtable" seven.superior
Substitution2: "'sinf' Scientific Inferiors lookup 0 subtable" seven.inferior
Substitution2: "'sups' Superscript lookup 0 subtable" seven.superior
EndChar

StartChar: eight
Encoding: 56 56 71
Width: 647
Flags: W
HStem: -9.99805 42.7637<201.098 445.902> 362.397 36.6641<206.698 444.919> 369.573 28.2568<171.702 478.552> 694.998 43.8867<214.618 434.979>
VStem: 55 42.7676<119.193 272.091> 90.2598 42.6885<471.127 620.45> 519.052 42.6885<471.127 620.45> 549.232 42.7676<119.193 272.091>
LayerCount: 2
Fore
SplineSet
325.5 399.061523438 m 0xd6
 444.91917685 399.061523438 519.051757812 454.240451447 519.051757812 541.869140625 c 0
 519.051757812 638.148269541 447.084859667 694.998046875 323.5 694.998046875 c 0
 203.075544573 694.998046875 132.948242188 638.148269541 132.948242188 541.869140625 c 0
 132.948242188 454.240451447 206.697849899 399.061523438 325.5 399.061523438 c 0xd6
323.5 738.884765625 m 0
 471.99469494 738.884765625 561.740234375 665.090820312 561.740234375 543.655273438 c 0
 561.740234375 439.077686505 478.551741285 369.573242188 323.5 369.573242188 c 0xb6
 171.702184193 369.573242188 90.259765625 439.077686505 90.259765625 543.655273438 c 0
 90.259765625 665.090820312 178.121543082 738.884765625 323.5 738.884765625 c 0
323.5 32.765625 m 0
 459.405509824 32.765625 549.232421875 91.2821176591 549.232421875 197.020507812 c 4
 549.232421875 298.162918094 459.436819513 362.397460938 323.5 362.397460938 c 0
 187.563180487 362.397460938 97.767578125 298.162918094 97.767578125 197.020507812 c 4xd9
 97.767578125 91.2821176591 187.594490176 32.765625 323.5 32.765625 c 0
323.5 397.830078125 m 0xb9
 496.705835085 397.830078125 592 325.048505731 592 193.381835938 c 4
 592 70.253065943 486.374788717 -9.998046875 323.5 -9.998046875 c 0
 160.625211283 -9.998046875 55 70.2530659432 55 193.381835938 c 4
 55 325.048505731 150.294164915 397.830078125 323.5 397.830078125 c 0xb9
EndSplineSet
Validated: 524293
Substitution2: "'onum' Oldstyle Figures lookup 18-1" eight.osf
Substitution2: "'tnum' Tabular Numbers lookup 17-1" eight.tf
Substitution2: "'numr' Numerators lookup 0 subtable" eight.numr
Substitution2: "'dnom' Denominators lookup 0 subtable" eight.dnom
Substitution2: "'sups' Superscript lookup 0 subtable" eight.superior
Substitution2: "'sinf' Scientific Inferiors lookup 0 subtable" eight.inferior
Substitution2: "'sups' Superscript lookup 0 subtable" eight.superior
EndChar

StartChar: nine
Encoding: 57 57 72
Width: 640
Flags: W
HStem: -9.99805 42.4727<155.63 393.723> 252.395 41.709<201.442 414.431> 692.104 46.8887<202.103 416.873>
VStem: 55 43.7666<392.372 590.117> 546.861 38.3037<233.835 399.998>
LayerCount: 2
Fore
SplineSet
523.766601562 492.103515625 m 0
 523.766601562 607.6998459 451.388157036 692.103515625 309.766601562 692.103515625 c 0
 165.336545514 692.103515625 98.7666015625 607.6998459 98.7666015625 492.103515625 c 0
 98.7666015625 377.663148653 160.406638972 294.103515625 309.766601562 294.103515625 c 4
 451.388157036 294.103515625 523.766601562 377.663148653 523.766601562 492.103515625 c 0
546.861328125 409.247070312 m 1
 546.861328125 409.247070312 517.007053556 252.39453125 301.901367188 252.39453125 c 0
 146.764648437 252.39453125 55 349.164169963 55 489.994140625 c 0
 55 649.8984375 151.429519378 738.9921875 308.8671875 738.9921875 c 0
 492.345947262 738.9921875 585.165039062 629.321289062 585.165039062 363.663085938 c 0
 585.165039062 123.465820312 478.262234682 -9.998046875 285.8671875 -9.998046875 c 0
 151.373683367 -9.998046875 83.2412109375 43.1337890625 83.2412109375 43.1337890625 c 1
 100.545898438 79.60546875 l 1
 100.545898438 79.60546875 164.609660701 32.474609375 282.38671875 32.474609375 c 0
 451.606746844 32.474609375 546.861328125 133 546.861328125 409.247070312 c 1
EndSplineSet
Validated: 524289
Substitution2: "'onum' Oldstyle Figures lookup 18-1" nine.osf
Substitution2: "'tnum' Tabular Numbers lookup 17-1" nine.tf
Substitution2: "'numr' Numerators lookup 0 subtable" nine.numr
Substitution2: "'dnom' Denominators lookup 0 subtable" nine.dnom
Substitution2: "'ss07' Style Set 7 lookup 8-1" nine.ss07
Substitution2: "'sups' Superscript lookup 0 subtable" nine.superior
Substitution2: "'sinf' Scientific Inferiors lookup 0 subtable" nine.inferior
Substitution2: "'sups' Superscript lookup 0 subtable" nine.superior
EndChar

StartChar: question
Encoding: 63 63 73
Width: 562
Flags: W
HStem: -10 86.4492<187.07 262.929> 299.594 42.4551<226.042 393.071> 696.229 42.7637<113.975 356.052>
VStem: 182.387 85.2266<-5.24913 71.6983> 202.423 46.9561<210 302.653> 468.096 43.7744<413.478 597.528>
LayerCount: 2
Back
SplineSet
152.38671875 63.224609375 m 0xf4
 152.38671875 107.584937143 181.008990842 136.44921875 224.999023438 136.44921875 c 0
 268.990077228 136.44921875 297.61328125 107.584937143 297.61328125 63.224609375 c 0
 297.61328125 18.8635145521 268.990077228 -10 224.999023438 -10 c 0
 181.008990842 -10 152.38671875 18.8635145521 152.38671875 63.224609375 c 0xf4
280.88671875 300.653320312 m 1
 282.37890625 210 l 1
 169.422851562 210 l 1xec
 171.15625 399.46875 l 1
 171.15625 399.46875 208.949224154 395.048828125 256.3984375 395.048828125 c 0
 348.180522211 395.048828125 392.095703125 431.389934102 392.095703125 499.145507812 c 0
 392.095703125 585.201602829 327.571533338 623.228515625 232.89453125 623.228515625 c 0
 138.66274719 623.228515625 76.923828125 573.958007812 76.923828125 573.958007812 c 1
 30.2412109375 685.311523438 l 1
 30.2412109375 685.311523438 107.390463661 738.9921875 239.89453125 738.9921875 c 0
 405.150107971 738.9921875 521.870117188 670 521.870117188 501.010742188 c 0
 521.870117188 365.685958308 421.37343496 300.59375 309 300.59375 c 0
 290.63582236 300.59375 280.88671875 300.653320312 280.88671875 300.653320312 c 1
EndSplineSet
Fore
SplineSet
182.38671875 33.224609375 m 0xf4
 182.38671875 59.4105850447 199.183609917 76.44921875 224.999023438 76.44921875 c 0
 250.815525102 76.44921875 267.61328125 59.4105850447 267.61328125 33.224609375 c 0
 267.61328125 7.03818091149 250.815525102 -10 224.999023438 -10 c 0
 199.183609917 -10 182.38671875 7.03818091149 182.38671875 33.224609375 c 0xf4
247.88671875 302.653320312 m 5
 249.37890625 210 l 5
 202.422851562 210 l 5xec
 204.15625 348.46875 l 5
 204.15625 348.46875 242.835944104 342.048828125 291.3984375 342.048828125 c 4
 410.911850885 342.048828125 468.095703125 398.289157084 468.095703125 503.145507812 c 4
 468.095703125 637.055621367 374.389962812 696.228515625 236.89453125 696.228515625 c 4
 122.72535631 696.228515625 47.923828125 643.958007812 47.923828125 643.958007812 c 5
 30.2412109375 685.311523438 l 5
 30.2412109375 685.311523438 107.390463661 738.9921875 239.89453125 738.9921875 c 4
 399.289473754 738.9921875 511.870117188 661.327703299 511.870117188 505.010742188 c 4
 511.870117188 366.309877707 420.517446001 299.59375 300 299.59375 c 4
 265.958525234 299.59375 247.88671875 302.653320312 247.88671875 302.653320312 c 5
EndSplineSet
Validated: 524289
EndChar

StartChar: hyphen
Encoding: 45 45 74
Width: 354
Flags: W
HStem: 258 43<50 304>
VStem: 50 254<258 301>
LayerCount: 2
Fore
SplineSet
304 258 m 5
 50 258 l 5
 50 301 l 5
 304 301 l 5
 304 258 l 5
EndSplineSet
Validated: 1
EndChar

StartChar: quotesingle
Encoding: 39 39 75
Width: 266
Flags: W
HStem: 456 275.008<116 154>
VStem: 116 38<456 731.008>
LayerCount: 2
Fore
SplineSet
116 456 m 5
 110 731.0078125 l 5
 160 731.0078125 l 1
 154 456 l 1
 116 456 l 5
EndSplineSet
Validated: 524289
EndChar

StartChar: parenleft
Encoding: 40 40 77
Width: 402
Flags: W
HStem: -171.47 44.5254<251.291 352.127> 714.944 44.5254<251.291 352.127>
VStem: 50 45.6787<88.5414 499.459>
LayerCount: 2
Fore
SplineSet
352.126953125 -126.944335938 m 5
 352.126953125 -171.469726562 l 1
 155.663085937 -171.469726562 50 -23.8232421881 50 294 c 0
 50 611.823242188 155.663085937 759.469726562 352.126953125 759.469726562 c 1
 352.126953125 714.944335938 l 5
 190.257945929 714.944335938 95.6787109375 598.316485388 95.6787109375 294 c 4
 95.6787109375 -10.3164853893 190.257945929 -126.944335938 352.126953125 -126.944335938 c 5
EndSplineSet
Validated: 524289
EndChar

StartChar: asterisk
Encoding: 42 42 78
Width: 400
Flags: W
HStem: 718.992 20G<176.534 223.905>
VStem: 180.543 39.3535<572.151 738.992>
LayerCount: 2
Fore
SplineSet
223.905273438 738.9921875 m 1
 219.896484375 572.151367188 l 5
 381.440429688 628.549804688 l 1
 395.440429688 579.369140625 l 1
 237.896484375 537.767578125 l 5
 346.905273438 405.006835938 l 1
 312.75390625 374.916992188 l 1
 200.219726562 521.075195312 l 5
 87.685546875 374.916992188 l 1
 53.5341796875 405.006835938 l 1
 162.54296875 537.767578125 l 5
 5 579.369140625 l 1
 19 628.549804688 l 1
 180.54296875 572.151367188 l 5
 176.534179688 738.9921875 l 1
 223.905273438 738.9921875 l 1
EndSplineSet
Validated: 524289
Substitution2: "'ss13' Style Set 13 lookup 14-1" asterisk.ss13
EndChar

StartChar: less
Encoding: 60 60 79
Width: 450
Flags: W
LayerCount: 2
Fore
SplineSet
420 175 m 1
 30 335 l 1
 30 381 l 1
 420 541 l 1
 420 500 l 1
 82.4541015625 358 l 1
 420 216 l 1
 420 175 l 1
EndSplineSet
Validated: 524289
EndChar

StartChar: greater
Encoding: 62 62 80
Width: 450
Flags: W
LayerCount: 2
Fore
SplineSet
30 541 m 1
 420 381 l 1
 420 335 l 1
 30 175 l 1
 30 216 l 5
 367.545898438 358 l 1
 30 500 l 1
 30 541 l 1
EndSplineSet
Validated: 524289
EndChar

StartChar: slash
Encoding: 47 47 81
Width: 434
Flags: W
VStem: 58 318
LayerCount: 2
Fore
SplineSet
58 -171.469726562 m 5
 333 761.403320312 l 5
 376 761.403320312 l 1
 101 -171.469726562 l 1
 58 -171.469726562 l 5
EndSplineSet
Validated: 524289
EndChar

StartChar: bar
Encoding: 124 124 82
Width: 249
Flags: W
VStem: 105 39<-171.47 759.47>
LayerCount: 2
Fore
SplineSet
105 -171.469726562 m 5
 105 759.469726562 l 5
 144 759.469726562 l 1
 144 -171.469726562 l 1
 105 -171.469726562 l 5
EndSplineSet
Validated: 524289
EndChar

StartChar: bracketleft
Encoding: 91 91 83
Width: 375
Flags: W
HStem: -171.47 45<122 315> 715.47 44<122 315>
VStem: 77 45<-126.47 715.47>
LayerCount: 2
Fore
SplineSet
77 759.469726562 m 5
 315 759.469726562 l 5
 315 715.469726562 l 5
 122 715.469726562 l 5
 122 -126.469726562 l 5
 315 -126.469726562 l 5
 315 -171.469726562 l 5
 77 -171.469726562 l 5
 77 759.469726562 l 5
EndSplineSet
Validated: 524289
EndChar

StartChar: bracketright
Encoding: 93 93 84
Width: 375
Flags: W
HStem: -171.47 45<60 253> 715.47 44<60 253>
VStem: 253 45<-126.47 715.47>
LayerCount: 2
Fore
SplineSet
298 -171.469726562 m 1
 60 -171.469726562 l 1
 60 -126.469726562 l 5
 253 -126.469726562 l 5
 253 715.469726562 l 1
 60 715.469726562 l 1
 60 759.469726562 l 1
 298 759.469726562 l 1
 298 -171.469726562 l 1
EndSplineSet
Validated: 524289
EndChar

StartChar: asciicircum
Encoding: 94 94 85
Width: 449
Flags: W
HStem: 440 291.008
LayerCount: 2
Fore
SplineSet
254 731.0078125 m 1
 424 440 l 1
 377 440 l 1
 225.393554688 699.313476562 l 1
 73 440 l 1
 25 440 l 1
 195 731.0078125 l 1
 254 731.0078125 l 1
EndSplineSet
Validated: 524289
EndChar

StartChar: braceleft
Encoding: 123 123 86
Width: 433
Flags: W
HStem: -171.47 42.9961<228.533 378.73> 291.532 46<50 148.652> 716.474 42.9961<228.433 378.629>
VStem: 160 49<-108.749 281.399 346.973 696.748>
LayerCount: 2
Fore
SplineSet
169 314.532226562 m 1
 169 314.532226562 209 291.913178943 209 219.532226562 c 6
 209 -51.4736328125 l 2
 209 -110.594902886 242.791173986 -128.473632812 303 -128.473632812 c 0
 362.837079894 -128.473632812 376 -118.473632812 376 -118.473632812 c 1
 383 -158.469726562 l 1
 383 -158.469726562 349.81443299 -171.469726562 296 -171.469726562 c 0
 195.873655914 -171.469726562 160 -121.782421875 160 -37.4697265625 c 2
 160 209.532226562 l 6
 160 272.127488659 141.501953125 291.532226562 105 291.532226562 c 2
 50 291.532226562 l 1
 50 337.532226562 l 1
 105 337.532226562 l 2
 141.501953125 337.532226562 160 356.938256049 160 419.532226562 c 2
 160 625.469726562 l 2
 160 709.780112593 195.873655914 759.469726562 296 759.469726562 c 0
 345.105670103 759.469726562 383 746.469726562 383 746.469726562 c 1
 376 706.473632812 l 1
 376 706.473632812 352.951280381 716.473632812 302 716.473632812 c 0
 242.431827911 716.473632812 209 698.593858507 209 639.473632812 c 2
 209 409.532226562 l 2
 209 335.344401042 169 314.532226562 169 314.532226562 c 1
EndSplineSet
Validated: 524289
EndChar

StartChar: grave
Encoding: 96 96 87
Width: 242
Flags: W
HStem: 536 205.008
VStem: 31 180
LayerCount: 2
Fore
SplineSet
181 536 m 5
 31 711.0078125 l 1
 77 741.0078125 l 1
 211 556 l 5
 181 536 l 5
EndSplineSet
Validated: 524289
EndChar

StartChar: underscore
Encoding: 95 95 88
Width: 564
Flags: W
HStem: -41 41<40 524>
LayerCount: 2
Fore
SplineSet
524 -41 m 1
 40 -41 l 1
 40 0 l 1
 524 0 l 1
 524 -41 l 1
EndSplineSet
Validated: 1
EndChar

StartChar: dollar
Encoding: 36 36 89
Width: 591
Flags: W
HStem: -10 47.4619<145.274 400.209> 690.659 48.4619<197.727 445.776> 715 114.47<270 319>
VStem: 69.627 49.3115<472.016 622.226> 270 49<-105 19.4697 715 829.47> 484.338 52.1816<108.841 263.476>
LayerCount: 2
Fore
SplineSet
270 -105 m 1x9c
 270 19.4697265625 l 1
 319 19.4697265625 l 5
 319 -105 l 5
 270 -105 l 1x9c
270 715 m 1xbc
 270 829.469726562 l 1
 319 829.469726562 l 5
 319 715 l 5
 270 715 l 1xbc
EndSplineSet
Refer: 22 83 N 1 0 0 1 0 0 2
Validated: 524293
EndChar

StartChar: percent
Encoding: 37 37 90
Width: 953
Flags: W
HStem: -9.99805 40.7803<650.078 794.814> 0 21G<231 292.175> 321.072 40.7793<648.016 796.877> 367.143 40.7793<159.367 303.814> 698.212 40.7803<157.305 305.877> 711.008 20G<663.825 725>
VStem: 55 45.6602<464.797 642.507> 364.41 43.5498<468.262 639.066> 546 44.6602<89.1267 263.91> 855.41 43.5498<91.1214 261.926>
LayerCount: 2
Fore
SplineSet
590.66015625 176.481445312 m 4xb3c0
 590.66015625 71.9572169306 654.831295282 30.7822265625 722.48046875 30.7822265625 c 4
 788.955016329 30.7822265625 855.41015625 71.9572169306 855.41015625 176.481445312 c 4
 855.41015625 282.515450977 788.955016329 321.072265625 722.48046875 321.072265625 c 4
 654.831295282 321.072265625 590.66015625 282.515450977 590.66015625 176.481445312 c 4xb3c0
546 176.481445312 m 4
 546 278.624023438 610.39139749 361.8515625 722.48046875 361.8515625 c 4
 834.568582554 361.8515625 898.959960938 278.624023438 898.959960938 176.481445312 c 4
 898.959960938 74.4218750005 834.568582554 -9.998046875 722.48046875 -9.998046875 c 4
 610.39139749 -9.998046875 546 74.4218750005 546 176.481445312 c 4
100.66015625 553.622070312 m 4
 100.66015625 449.098455052 164.380208739 407.921875 231.48046875 407.921875 c 4
 297.955016329 407.921875 364.41015625 449.098455052 364.41015625 553.622070312 c 4
 364.41015625 659.654868211 297.955016329 698.211914062 231.48046875 698.211914062 c 4x3bc0
 164.380208739 698.211914062 100.66015625 659.654868211 100.66015625 553.622070312 c 4
55 553.622070312 m 4
 55 655.764648438 119.39139749 738.9921875 231.48046875 738.9921875 c 4
 343.568582554 738.9921875 407.959960938 655.764648438 407.959960938 553.622070312 c 4
 407.959960938 451.5625 343.568582554 367.142578125 231.48046875 367.142578125 c 4
 119.39139749 367.142578125 55 451.5625 55 553.622070312 c 4
EndSplineSet
Refer: 138 8260 N 1 0 0 1 301 0 2
Validated: 524289
EndChar

StartChar: at
Encoding: 64 64 91
Width: 924
Flags: W
HStem: -159.727 41.7578<345.369 649.282> 71.9697 42.7539<360.245 513.53 658.015 783.727> 438.303 40.7734<380.025 527.183> 667.738 39.9883<351.091 611.013>
VStem: 45 41.1748<134.019 404.612> 259.842 50.5166<168.045 364.224> 583.183 49.9023<181.342 387.737> 586.533 35.4717<155.479 350.156> 840.417 38.8701<197.321 447.43>
LayerCount: 2
Fore
SplineSet
310.358398438 261.0546875 m 0xfe80
 310.358398438 165.301138805 353.849058868 114.723632812 436.194335938 114.723632812 c 0
 529.022440313 114.723632812 583.182617188 181.342218181 583.182617188 295.529296875 c 0
 583.182617188 387.736843136 534.656376076 438.302734375 455.834960938 438.302734375 c 0
 363.862827669 438.302734375 310.358398438 373.113011053 310.358398438 261.0546875 c 0xfe80
423.392578125 71.9697265625 m 0
 325.482088212 71.9697265625 259.841796875 146.245237785 259.841796875 257.037109375 c 0
 259.841796875 388.627283766 340.096200281 479.076171875 451 479.076171875 c 0
 565.762314591 479.076171875 622.004882812 398.901110711 622.004882812 274.27734375 c 0xfd80
 622.004882812 155.478927049 540.0224904 71.9697265625 423.392578125 71.9697265625 c 0
487.713867188 -159.7265625 m 0
 213.589372133 -159.7265625 45 14.611328125 45 268.08984375 c 0
 45 524.041992188 221.735351562 707.7265625 476.420898438 707.7265625 c 0
 711.621489311 707.7265625 879.287109375 561.379882812 879.287109375 321.901367188 c 0
 879.287109375 171.18359375 816.396298998 72.708984375 706.626953125 72.708984375 c 0
 631.333944905 72.708984375 586.533203125 120.982421875 586.533203125 228.081054688 c 0xfd80
 586.533203125 350.15625 625.563476562 476.46484375 625.563476562 476.46484375 c 1
 674.37890625 476.46484375 l 1
 674.37890625 476.46484375 633.084960938 331.944544316 633.084960938 227.827148438 c 0xfe80
 633.084960938 151.607595761 658.079935382 111.384765625 718 111.384765625 c 4
 779.085608861 111.384765625 840.416992188 156.882555919 840.416992188 328.072265625 c 0
 840.416992188 545.156453945 681.782309373 667.73828125 475.984375 667.73828125 c 0
 257.371586841 667.73828125 86.1748046875 513.497596599 86.1748046875 267.489257812 c 0
 86.1748046875 27.9708065764 244.151284786 -117.96875 497.6796875 -117.96875 c 0
 675.47189948 -117.96875 786.61328125 -35.4423828125 786.61328125 -35.4423828125 c 1
 805.250976562 -72.2255859375 l 1
 805.250976562 -72.2255859375 701.004882812 -159.7265625 487.713867188 -159.7265625 c 0
EndSplineSet
Validated: 524293
EndChar

StartChar: numbersign
Encoding: 35 35 92
Width: 767
Flags: W
HStem: 0 21G<140.5 191.014 410.5 461.014> 206 47<65 667> 461 47<100 702> 711.008 20G<300.986 351.5 570.986 621.5>
LayerCount: 2
Fore
SplineSet
100 508 m 1
 702 508 l 5
 702 461 l 5
 100 461 l 1
 100 508 l 1
65 253 m 1
 667 253 l 5
 667 206 l 5
 65 206 l 1
 65 253 l 1
410.5 0 m 1
 575.5 731.0078125 l 1
 621.5 731.0078125 l 1
 456.5 0 l 1
 410.5 0 l 1
140.5 0 m 1
 305.5 731.0078125 l 1
 351.5 731.0078125 l 1
 186.5 0 l 1
 140.5 0 l 1
EndSplineSet
Validated: 524293
EndChar

StartChar: braceright
Encoding: 125 125 93
Width: 433
Flags: W
HStem: -171.47 42.9961<54.2704 204.467> 291.532 46<284.348 383> 716.474 42.9961<54.3705 204.567>
VStem: 224 49<-108.749 281.399 346.973 696.748>
LayerCount: 2
Fore
SplineSet
265 314.532226562 m 1
 265 314.532226562 224 335.344401042 224 409.532226562 c 2
 224 639.473632812 l 2
 224 698.593858507 190.568172089 716.473632812 131 716.473632812 c 0
 80.0487196181 716.473632812 57 706.473632812 57 706.473632812 c 1
 50 746.469726562 l 1
 50 746.469726562 87.8943298969 759.469726562 137 759.469726562 c 0
 237.126344086 759.469726562 273 709.780112592 273 625.469726562 c 2
 273 419.532226562 l 2
 273 356.938256049 291.498046875 337.532226562 328 337.532226562 c 2
 383 337.532226562 l 1
 383 291.532226562 l 1
 328 291.532226562 l 2
 291.498046875 291.532226562 273 272.127488659 273 209.532226562 c 2
 273 -37.4697265625 l 2
 273 -121.782421875 237.126344086 -171.469726562 137 -171.469726562 c 0
 83.1855670103 -171.469726562 50 -158.469726562 50 -158.469726562 c 1
 57 -118.473632812 l 1
 57 -118.473632812 70.1629201061 -128.473632812 130 -128.473632812 c 4
 190.208826014 -128.473632812 224 -110.594902886 224 -51.4736328125 c 2
 224 219.532226562 l 2
 224 291.913178943 265 314.532226562 265 314.532226562 c 1
EndSplineSet
Validated: 524289
EndChar

StartChar: asciitilde
Encoding: 126 126 94
Width: 436
VWidth: 999
Flags: W
HStem: 311 40<249.174 364.978> 380 39<72.8076 187.961>
LayerCount: 2
Fore
SplineSet
421 364 m 1
 421 364 374.967213115 311 304 311 c 0
 221.615384616 311 194.153846153 380 134 380 c 0
 82.231884058 380 40 336 40 336 c 1
 15 369 l 1
 15 369 65.8278688525 419 132 419 c 0
 213.076923077 419 247.076923077 351 302 351 c 0
 361.538461538 351 392 396 392 396 c 1
 421 364 l 1
EndSplineSet
Validated: 524289
EndChar

StartChar: cent
Encoding: 162 162 95
Width: 492
Flags: W
HStem: 105.002 41.4619<202.794 417.387> 584.284 41.6494<199.949 401.997>
VStem: 55 42.8486<259.067 475.196> 273 41<-5 134.47 600 729.47>
LayerCount: 2
Fore
SplineSet
273 -5 m 1
 273 134.469726562 l 1
 314 134.469726562 l 5
 314 -5 l 5
 273 -5 l 1
273 600 m 1
 273 729.469726562 l 1
 314 729.469726562 l 5
 314 600 l 5
 273 600 l 1
EndSplineSet
Refer: 40 99 N 1 0 0 1 0 115 2
Validated: 524293
EndChar

StartChar: sterling
Encoding: 163 163 96
Width: 553
Flags: W
HStem: 0 46<100.319 523> 323 42<50 434> 692.621 46.8408<200.562 418.641>
VStem: 79.3516 53.9785<447.616 630.156> 156.824 47.6572<188.644 348.439>
LayerCount: 2
Fore
SplineSet
434 323 m 1
 50 323 l 1
 50 365 l 1
 434 365 l 1
 434 323 l 1
523 0 m 1
 30 0 l 1
 30 42 l 1
 30 42 156.82421875 143.315626273 156.82421875 289.379882812 c 0
 156.82421875 391.588284089 79.3515625 418.167846584 79.3515625 547.185546875 c 0
 79.3515625 671.3984375 168.765181604 739.461914062 302.80859375 739.461914062 c 0
 432.1704466 739.461914062 489.95703125 691.405273438 489.95703125 691.405273438 c 1
 474.9375 646.024414062 l 1
 474.9375 646.024414062 395.644700803 692.62109375 307.80859375 692.62109375 c 0
 210.830136135 692.62109375 133.330078125 663.294238939 133.330078125 542 c 4
 133.330078125 429.217185139 204.481445312 412.4421136 204.481445312 290.158203125 c 0
 204.481445312 138.866475482 100.319335938 46 100.319335938 46 c 1
 523 46 l 1
 523 0 l 1
EndSplineSet
EndChar

StartChar: yen
Encoding: 165 165 97
Width: 649
Flags: W
HStem: 0 21G<300 349> 195 46<99.5 549.5> 325 56<300 349> 325 46<99.5 549.5> 332 39<306 343> 711.008 20G<40 118.887 530.113 609>
VStem: 300 49<0 381>
LayerCount: 2
Fore
SplineSet
306 332 m 5xce
 40 731.0078125 l 1
 106 731.0078125 l 1
 324.5 391.916015625 l 5
 543 731.0078125 l 1
 609 731.0078125 l 1
 343 332 l 5
 306 332 l 5xce
300 0 m 1
 300 381 l 5
 349 381 l 5xe6
 349 0 l 1
 300 0 l 1
549.5 195 m 1
 99.5 195 l 1
 99.5 241 l 1
 549.5 241 l 1
 549.5 195 l 1
549.5 325 m 1xd6
 99.5 325 l 1
 99.5 371 l 1
 549.5 371 l 1
 549.5 325 l 1xd6
EndSplineSet
EndChar

StartChar: currency
Encoding: 164 164 98
Width: 513
Flags: W
HStem: 156.724 48.4619<170.266 341.76> 509.006 48.6494<168.812 343.278>
VStem: 62.6113 46.8486<266.852 449.447> 403.54 46.8486<266.852 449.447>
LayerCount: 2
Fore
SplineSet
365.239257812 223.436523438 m 1
 393.889648438 246.325195312 l 1
 488.259765625 104.765625 l 1
 439.580078125 76.1455078125 l 1
 365.239257812 223.436523438 l 1
148.020507812 223.436523438 m 1
 73.6796875 76.1455078125 l 1
 25 104.765625 l 1
 119.370117188 246.325195312 l 1
 148.020507812 223.436523438 l 1
365.239257812 487.74609375 m 1
 439.580078125 635.036132812 l 1
 488.259765625 606.416015625 l 1
 393.889648438 464.856445312 l 1
 365.239257812 487.74609375 l 1
148.020507812 487.74609375 m 1
 119.370117188 464.856445312 l 1
 25 606.416015625 l 1
 73.6796875 635.036132812 l 1
 148.020507812 487.74609375 l 1
109.459960938 359.283203125 m 0
 109.459960938 266.879094038 153.198819533 205.185546875 255.5 205.185546875 c 4
 359.202954541 205.185546875 403.540039062 266.879094038 403.540039062 359.283203125 c 0
 403.540039062 449.064662343 359.23600266 509.005859375 255.611328125 509.005859375 c 0
 153.231862946 509.005859375 109.459960938 449.064662343 109.459960938 359.283203125 c 0
62.611328125 359.283203125 m 0
 62.611328125 479.317382812 135.596105533 557.655273438 255.5 557.655273438 c 0
 376.647062457 557.655273438 450.388671875 479.317382812 450.388671875 359.283203125 c 0
 450.388671875 236.715820312 376.647062457 156.723632812 255.5 156.723632812 c 0
 135.596105533 156.723632812 62.611328125 236.715820312 62.611328125 359.283203125 c 0
EndSplineSet
EndChar

StartChar: brokenbar
Encoding: 166 166 99
Width: 249
Flags: W
VStem: 105 39<-171.47 239 339 759.47>
LayerCount: 2
Fore
SplineSet
105 -171.469726562 m 1
 105 239 l 1
 144 239 l 5
 144 -171.469726562 l 5
 105 -171.469726562 l 1
105 339 m 1
 105 759.469726562 l 1
 144 759.469726562 l 5
 144 339 l 5
 105 339 l 1
EndSplineSet
Validated: 524289
EndChar

StartChar: section
Encoding: 167 167 100
Width: 593
Flags: W
HStem: -19.6709 44.3906<164.208 373.5> 710.212 44.3906<219.405 424.249>
VStem: 49.6328 43.8594<333.185 425.317> 125.533 45.2324<546.103 665.819> 418.234 49.2324<66.3592 197.629> 499.508 43.8594<315.95 406.049>
LayerCount: 2
Fore
SplineSet
199.71484375 513.153320312 m 5
 224.5234375 477.951171875 l 5
 224.5234375 477.951171875 93.4921875 457.75514834 93.4921875 372.393554688 c 0
 93.4921875 334.707205877 128.88423122 304.87471864 292.860351562 290.17578125 c 0
 422.165596 278.584766118 467.466796875 212.382237164 467.466796875 135.370117188 c 0
 467.466796875 38.7898814389 400.430307644 -19.6708984375 290.30078125 -19.6708984375 c 0
 177.5859375 -19.6708984375 122.76953125 19.734375 122.76953125 19.734375 c 1
 140.896484375 57.8251953125 l 1
 140.896484375 57.8251953125 195.428905981 24.7197265625 275.8046875 24.7197265625 c 0
 374.051608704 24.7197265625 418.234375 64.8053346571 418.234375 129.443359375 c 0
 418.234375 194.399858178 388.790964996 234.807011834 247.696289062 249.377929688 c 0
 91.5903527934 265.499067914 49.6328125 316.166033714 49.6328125 372.309570312 c 0
 49.6328125 481.180190857 199.71484375 513.153320312 199.71484375 513.153320312 c 5
373.28515625 229.778320312 m 1
 348.4765625 264.98046875 l 1
 348.4765625 264.98046875 499.5078125 276.177076524 499.5078125 365 c 0
 499.5078125 410.360472 451.992133466 432.38235358 292.208007812 454.451171875 c 0
 169.913497656 471.342057074 125.533203125 527.372589834 125.533203125 599.561523438 c 0
 125.533203125 696.141759186 192.569692356 754.602539062 302.69921875 754.602539062 c 0
 415.4140625 754.602539062 470.23046875 715.197265625 470.23046875 715.197265625 c 1
 452.103515625 675.106445312 l 1
 452.103515625 675.106445312 397.572148763 710.211914062 317.1953125 710.211914062 c 0
 216.189221549 710.211914062 170.765625 668.212430035 170.765625 600.48828125 c 0
 170.765625 551.249248718 198.58815243 512.698043057 352.260742188 493.03125 c 0
 498.083537485 474.369062146 543.3671875 422.723936551 543.3671875 363.622070312 c 0
 543.3671875 251.480213201 373.28515625 229.778320312 373.28515625 229.778320312 c 1
EndSplineSet
EndChar

StartChar: dieresis
Encoding: 168 168 101
Width: 459
Flags: W
HStem: 652.543 86.4492<86.5703 162.43 296.57 372.43>
VStem: 81.8867 85.2266<657.294 734.241> 291.887 85.2266<657.294 734.241>
LayerCount: 2
Fore
SplineSet
291.88671875 695.767578125 m 0
 291.88671875 721.953745338 308.683402665 738.9921875 334.499023438 738.9921875 c 0
 360.315728066 738.9921875 377.11328125 721.953745338 377.11328125 695.767578125 c 4
 377.11328125 669.580937819 360.315728066 652.54296875 334.499023438 652.54296875 c 0
 308.683402664 652.54296875 291.88671875 669.580937819 291.88671875 695.767578125 c 0
81.88671875 695.767578125 m 0
 81.88671875 721.953745338 98.6834026649 738.9921875 124.499023438 738.9921875 c 0
 150.315728066 738.9921875 167.11328125 721.953745338 167.11328125 695.767578125 c 4
 167.11328125 669.580937819 150.315728066 652.54296875 124.499023438 652.54296875 c 0
 98.6834026646 652.54296875 81.88671875 669.580937819 81.88671875 695.767578125 c 0
EndSplineSet
EndChar

StartChar: copyright
Encoding: 169 169 102
Width: 797
Flags: W
HStem: -9.99805 43.8574<274.996 522.781> 177.281 41.2314<341.562 515.529> 510.61 41.2314<341.562 506.785> 695.264 43.8574<274.996 522.781>
VStem: 45 42.8965<228.54 500.583> 241.957 43.4238<274.576 454.547> 709.881 42.8965<228.54 500.583>
LayerCount: 2
Fore
SplineSet
241.95703125 364.561523438 m 0
 241.95703125 477.88408452 302.301974634 551.841796875 418.401367188 551.841796875 c 0
 494.501488551 551.841796875 531.297851562 518.7265625 531.297851562 518.7265625 c 1
 514.634765625 483.849609375 l 1
 514.634765625 483.849609375 489.417636066 510.610351562 423.901367188 510.610351562 c 0
 323.076554549 510.610351562 285.380859375 452.140843367 285.380859375 364.561523438 c 4
 285.380859375 276.982203511 323.076554549 218.512695312 423.901367188 218.512695312 c 0
 490.757655658 218.512695312 519.465820312 241.578125 519.465820312 241.578125 c 1
 532.870117188 204.578125 l 1
 532.870117188 204.578125 494.072022159 177.28125 418.401367188 177.28125 c 0
 302.301974634 177.28125 241.95703125 251.238962356 241.95703125 364.561523438 c 0
87.896484375 364.561523438 m 0
 87.896484375 166.254919594 201.037081196 33.859375 398.888671875 33.859375 c 0
 596.740262554 33.859375 709.880859375 166.254919594 709.880859375 364.561523438 c 0
 709.880859375 562.868127281 596.740262554 695.263671875 398.888671875 695.263671875 c 0
 201.037081196 695.263671875 87.896484375 562.868127281 87.896484375 364.561523438 c 0
45 364.561523438 m 0
 45 591.206054688 178.904668843 739.12109375 398.888671875 739.12109375 c 0
 618.872674907 739.12109375 752.77734375 591.206054688 752.77734375 364.561523438 c 0
 752.77734375 137.916992188 618.872674907 -9.998046875 398.888671875 -9.998046875 c 0
 178.904668843 -9.998046875 45 137.916992188 45 364.561523438 c 0
EndSplineSet
EndChar

StartChar: registered
Encoding: 174 174 103
Width: 797
Flags: W
HStem: -9.99805 43.8574<274.996 522.781> 320.752 39.1758<297 463.219> 510.076 38.1797<310 467.963> 695.264 43.8574<274.996 522.781>
VStem: 45 42.8965<228.54 500.583> 262.5 47.5<182.752 320.752 359.928 510.076> 297 13<320.752 359.928> 495.465 44.9238<377.427 487.381> 709.881 42.8965<228.54 500.583>
LayerCount: 2
Fore
SplineSet
297 359.927734375 m 1xfb80
 382.444335938 359.982421875 l 2
 447.148403405 360.027875966 495.46484375 362.668493551 495.46484375 434.533203125 c 4
 495.46484375 495.910189502 447.148410667 509.980366448 382.444335938 510.025390625 c 2
 310 510.076171875 l 1
 310 182.751953125 l 1
 262.5 182.751953125 l 1
 262.5 548.255859375 l 1xfd80
 399.444335938 548.255859375 l 2
 473.602050781 548.255859375 540.388671875 517.405518783 540.388671875 433 c 0
 540.388671875 354.603973479 478.34375 336.890625 478.34375 336.890625 c 1
 478.34375 336.890625 509.347998813 328.182634635 527.3515625 271.451171875 c 2
 555.5 182.751953125 l 1
 508.5 182.751953125 l 1
 484 265.251953125 l 2
 468.556061204 317.257053151 437.639344262 320.751953125 383 320.751953125 c 2
 297 320.751953125 l 1
 297 359.927734375 l 1xfb80
87.896484375 364.561523438 m 0
 87.896484375 166.254919594 201.037081196 33.859375 398.888671875 33.859375 c 0
 596.740262554 33.859375 709.880859375 166.254919594 709.880859375 364.561523438 c 0
 709.880859375 562.868127281 596.740262554 695.263671875 398.888671875 695.263671875 c 0
 201.037081196 695.263671875 87.896484375 562.868127281 87.896484375 364.561523438 c 0
45 364.561523438 m 0
 45 591.206054688 178.904668843 739.12109375 398.888671875 739.12109375 c 0
 618.872674907 739.12109375 752.77734375 591.206054688 752.77734375 364.561523438 c 0
 752.77734375 137.916992188 618.872674907 -9.998046875 398.888671875 -9.998046875 c 0
 178.904668843 -9.998046875 45 137.916992188 45 364.561523438 c 0
EndSplineSet
EndChar

StartChar: uni2117
Encoding: 8471 8471 104
Width: 797
Flags: W
HStem: -9.99805 43.8574<274.996 522.781> 306.752 35.1758<309.694 478.995> 510.076 38.1797<322.694 481.417> 695.264 43.8574<274.996 522.781>
VStem: 45 42.8965<228.54 500.583> 274.194 48.5<182.752 306.752 341.928 510.076> 309.694 13<306.752 341.928> 511.659 44.9238<367.677 485.607> 709.881 42.8965<228.54 500.583>
LayerCount: 2
Fore
SplineSet
309.694335938 306.751953125 m 5xfb80
 309.694335938 341.927734375 l 5xfb80
 390.138671875 341.982421875 l 6
 459.709063228 342.031355752 511.659179688 357.095905387 511.659179688 426.033203125 c 4
 511.659179688 494.321288145 463.984047189 509.93507995 400.138671875 510.025390625 c 6
 322.694335938 510.076171875 l 5
 322.694335938 182.751953125 l 5
 274.194335938 182.751953125 l 5
 274.194335938 548.255859375 l 5xfd80
 404.138671875 548.255859375 l 6
 484.347026168 548.255859375 556.583007812 514.968481927 556.583007812 426.033203125 c 4
 556.583007812 338.789511873 484.831436295 306.751953125 406.138671875 306.751953125 c 6
 309.694335938 306.751953125 l 5xfb80
87.896484375 364.561523438 m 0
 87.896484375 166.254919594 201.037081196 33.859375 398.888671875 33.859375 c 0
 596.740262554 33.859375 709.880859375 166.254919594 709.880859375 364.561523438 c 0
 709.880859375 562.868127281 596.740262554 695.263671875 398.888671875 695.263671875 c 0
 201.037081196 695.263671875 87.896484375 562.868127281 87.896484375 364.561523438 c 0
45 364.561523438 m 0
 45 591.206054688 178.904668843 739.12109375 398.888671875 739.12109375 c 0
 618.872674907 739.12109375 752.77734375 591.206054688 752.77734375 364.561523438 c 0
 752.77734375 137.916992188 618.872674907 -9.998046875 398.888671875 -9.998046875 c 0
 178.904668843 -9.998046875 45 137.916992188 45 364.561523438 c 0
EndSplineSet
EndChar

StartChar: guillemotleft
Encoding: 171 171 105
Width: 590
Flags: W
LayerCount: 2
Fore
SplineSet
75 271 m 1
 215 441 l 1
 270 441 l 1
 116.75 254 l 1
 270 67 l 1
 215 67 l 1
 75 237 l 5
 75 271 l 1
325 271 m 1
 465 441 l 1
 520 441 l 1
 366.75 254 l 1
 520 67 l 1
 465 67 l 1
 325 237 l 5
 325 271 l 1
EndSplineSet
EndChar

StartChar: guillemotright
Encoding: 187 187 106
Width: 590
Flags: W
LayerCount: 2
Fore
SplineSet
515 237 m 5
 375 67 l 1
 320 67 l 1
 473.25 254 l 1
 320 441 l 1
 375 441 l 1
 515 271 l 1
 515 237 l 5
265 237 m 5
 125 67 l 1
 70 67 l 1
 223.25 254 l 1
 70 441 l 1
 125 441 l 1
 265 271 l 1
 265 237 l 5
EndSplineSet
EndChar

StartChar: mu
Encoding: 181 181 107
Width: 595
Flags: W
HStem: -9.92285 45.6494<189.413 385.066> 0 21G<483.777 528.777> 481.011 20G<77 122 483.777 528.777>
VStem: 77 45<-180 501.011> 85 37<56.9261 321.011> 483.777 45<207.449 501.011>
LayerCount: 2
Fore
SplineSet
77 -180 m 1x34
 77 501.010742188 l 1
 122 501.010742188 l 5
 122 -180 l 5
 77 -180 l 1x34
483.77734375 217.010742188 m 9
 518.77734375 207.44921875 l 17
 492.377656428 57.0107421877 409.390247895 -9.9228515625 273.77734375 -9.9228515625 c 0
 151.000646581 -9.9228515625 85 56.9260601597 85 196.44921875 c 2
 85 321.010742188 l 1xac
 122 321.010742188 l 1
 122 213.44921875 l 2
 122 100.867825041 164.12521076 35.7265625 286.77734375 35.7265625 c 0xb4
 404.776995398 35.7265625 483.77734375 108.303046313 483.77734375 217.010742188 c 9
528.77734375 501.010742188 m 1
 528.77734375 0 l 1
 483.77734375 0 l 1x64
 483.77734375 501.010742188 l 1
 528.77734375 501.010742188 l 1
EndSplineSet
EndChar

StartChar: acute
Encoding: 180 180 108
Width: 242
Flags: W
HStem: 536 205.008
VStem: 31 180
LayerCount: 2
Fore
SplineSet
61 536 m 5
 31 556 l 5
 165 741.0078125 l 1
 211 711.0078125 l 1
 61 536 l 5
EndSplineSet
Validated: 524289
EndChar

StartChar: macron
Encoding: 175 175 109
Width: 374
Flags: W
HStem: 692.008 39<50 324>
VStem: 50 274<692.008 731.008>
LayerCount: 2
Fore
SplineSet
324 692.0078125 m 5
 50 692.0078125 l 5
 50 731.0078125 l 1
 324 731.0078125 l 1
 324 692.0078125 l 5
EndSplineSet
EndChar

StartChar: uni00AD
Encoding: 173 173 110
Width: 354
Flags: W
HStem: 258 43<50 304>
VStem: 50 254<258 301>
LayerCount: 2
Fore
SplineSet
304 258 m 5
 50 258 l 5
 50 301 l 1
 304 301 l 1
 304 258 l 5
EndSplineSet
Validated: 1
EndChar

StartChar: logicalnot
Encoding: 172 172 111
Width: 450
Flags: W
HStem: 335 46<30 360>
VStem: 360 45<170 335>
LayerCount: 2
Fore
SplineSet
405 170 m 1
 360 170 l 5
 360 335 l 5
 30 335 l 1
 30 381 l 1
 405 381 l 1
 405 170 l 1
EndSplineSet
Validated: 1
EndChar

StartChar: minus
Encoding: 8722 8722 112
Width: 450
Flags: W
HStem: 338 40<30 420>
LayerCount: 2
Fore
SplineSet
420 338 m 5
 30 338 l 5
 30 378 l 5
 420 378 l 5
 420 338 l 5
EndSplineSet
Validated: 1
EndChar

StartChar: notequal
Encoding: 8800 8800 113
Width: 450
Flags: W
HStem: 254 41<30 420> 421 41<30 420>
LayerCount: 2
Fore
SplineSet
99.5 108.530273438 m 5
 304.5 601.403320312 l 5
 350.5 601.403320312 l 1
 145.5 108.530273438 l 1
 99.5 108.530273438 l 5
EndSplineSet
Refer: 52 61 N 1 0 0 1 0 0 2
Validated: 524293
EndChar

StartChar: partialdiff
Encoding: 8706 8706 114
Width: 620
Flags: W
HStem: -9.99805 46.8887<189.439 393.899> 426.891 43.709<205.604 399.663> 697.52 41.4727<185.009 390.723>
VStem: 55 47.7666<126.553 325.831> 517.861 47.3037<359.578 528.207>
LayerCount: 2
Fore
SplineSet
491.766601562 246.890625 m 0
 491.766601562 350.927322248 418.148760583 426.890625 309.766601562 426.890625 c 0
 173.640117507 426.890625 102.766601562 342.486955276 102.766601562 226.890625 c 0
 102.766601562 117.074111238 157.395449883 36.890625 289.766601562 36.890625 c 0
 432.755517161 36.890625 491.766601562 125.51447821 491.766601562 246.890625 c 0
517.861328125 349.747070312 m 1
 517.861328125 576.652453569 448.814186066 697.51953125 295.8671875 697.51953125 c 0
 190.330493289 697.51953125 131.545898438 647.388671875 131.545898438 647.388671875 c 5
 113.241210938 688.860351562 l 1
 113.241210938 688.860351562 174.648733922 738.9921875 295.8671875 738.9921875 c 0
 468.977594364 738.9921875 565.165039062 612.671898034 565.165039062 385.331054688 c 0
 565.165039062 105.516837439 462.345947262 -9.998046875 288.8671875 -9.998046875 c 0
 143.832671567 -9.998046875 55 75.5176128099 55 229 c 0
 55 372.20164401 150.764648438 470.599609375 301.901367188 470.599609375 c 0
 465.412995235 470.599609375 517.861328125 349.747070312 517.861328125 349.747070312 c 1
EndSplineSet
EndChar

StartChar: emptyset
Encoding: 8709 8709 115
Width: 797
Flags: W
HStem: -9.99805 45.4619<273.353 524.425> 693.659 45.4619<273.353 524.425>
VStem: 45 44.8486<225.139 503.984> 707.929 44.8486<225.139 503.984>
LayerCount: 2
Fore
SplineSet
89.8486328125 364.561523438 m 0
 89.8486328125 167.216956522 192.404317887 35.4638671875 398.888671875 35.4638671875 c 0
 605.373025863 35.4638671875 707.928710938 167.216956522 707.928710938 364.561523438 c 0
 707.928710938 561.906090349 605.373025863 693.659179688 398.888671875 693.659179688 c 0
 192.404317887 693.659179688 89.8486328125 561.906090349 89.8486328125 364.561523438 c 0
45 364.561523438 m 0
 45 591.206054688 178.904668843 739.12109375 398.888671875 739.12109375 c 0
 618.872674907 739.12109375 752.77734375 591.206054688 752.77734375 364.561523438 c 0
 752.77734375 137.916992188 618.872674907 -9.998046875 398.888671875 -9.998046875 c 0
 178.904668843 -9.998046875 45 137.916992188 45 364.561523438 c 0
141.5 -90.873046875 m 5
 606.5 812 l 5
 655.5 812 l 1
 190.5 -90.873046875 l 1
 141.5 -90.873046875 l 5
EndSplineSet
EndChar

StartChar: Delta
Encoding: 8710 8710 116
Width: 719
Flags: W
HStem: 0 46<110 609> 711.008 20G<326.943 382.345>
LayerCount: 2
Fore
SplineSet
664 0 m 5
 55 0 l 1
 55 36 l 1
 335 731.0078125 l 1
 374 731.0078125 l 1
 664 36 l 5
 664 0 l 5
609 46 m 5
 355.393554688 660.313476562 l 1
 110 46 l 1
 609 46 l 5
EndSplineSet
EndChar

StartChar: plusminus
Encoding: 177 177 117
Width: 450
Flags: W
HStem: 161 40<30 420> 364 40<30 420>
VStem: 205 40<166 558>
LayerCount: 2
Fore
SplineSet
420 161 m 5
 30 161 l 5
 30 201 l 5
 420 201 l 5
 420 161 l 5
205 166 m 5
 205 558 l 1
 245 558 l 1
 245 166 l 5
 205 166 l 5
420 364 m 1
 30 364 l 1
 30 404 l 1
 420 404 l 1
 420 364 l 1
EndSplineSet
EndChar

StartChar: degree
Encoding: 176 176 118
Width: 431
Flags: W
HStem: 420.07 36.5264<139.548 291.213> 724.288 36.7139<139.574 291.238>
VStem: 45 40.4121<508.405 672.78> 346.365 40.4121<509.692 671.501>
LayerCount: 2
Fore
SplineSet
85.412109375 590.854492188 m 0
 85.412109375 510.346900192 124.159653461 456.596679688 214.786132812 456.596679688 c 0
 306.957826295 456.596679688 346.365234375 510.346900192 346.365234375 590.854492188 c 0
 346.365234375 670.868408649 306.995219966 724.288085938 214.909179688 724.288085938 c 0
 124.197055742 724.288085938 85.412109375 670.868408649 85.412109375 590.854492188 c 0
45 590.629882812 m 0
 45 693.721714468 109.282249204 761.001953125 214.888671875 761.001953125 c 0
 321.738264136 761.001953125 386.77734375 693.721714468 386.77734375 590.629882812 c 0
 386.77734375 487.425198367 321.738264136 420.0703125 214.888671875 420.0703125 c 0
 109.282249204 420.0703125 45 487.425198367 45 590.629882812 c 0
EndSplineSet
EndChar

StartChar: cedilla
Encoding: 184 184 120
Width: 317
VWidth: 999
Flags: W
HStem: -240 38<65.9712 206.279> -82 36<103.617 211.029>
VStem: 225 42<-185.288 -93.6765>
LayerCount: 2
Fore
SplineSet
267 -136 m 0
 267 -202.233492944 224.036382148 -240 144 -240 c 0
 77.929819137 -240 37 -211 37 -211 c 1
 53 -175 l 1
 53 -175 85.9329255757 -202 139 -202 c 0
 202.971598307 -202 225 -176.687921301 225 -139 c 4
 225 -99.2886029407 200.235788447 -82 160 -82 c 0
 112.537499999 -82 96 -106 96 -106 c 1
 57 -92 l 1
 79 39 l 1
 121 39 l 1
 103.485351562 -62.603515625 l 1
 103.485351562 -62.603515625 120.087313176 -46 163 -46 c 0
 225.971998762 -46 267 -79.9737215909 267 -136 c 0
EndSplineSet
EndChar

StartChar: paragraph
Encoding: 182 182 121
Width: 682
Flags: W
HStem: 684.992 46<375.889 525.889>
VStem: 40 335.889<398.486 611.704> 333.889 42<-179.994 273.992> 525.889 42<-179.994 684.992>
LayerCount: 2
Fore
SplineSet
375.888671875 -179.994140625 m 1xb0
 333.888671875 -179.994140625 l 1
 333.888671875 273.9921875 l 5xb0
 148 273.9921875 40 333.64715269 40 509.432617188 c 0xd0
 40 669.794365084 152 730.9921875 293.888671875 730.9921875 c 2
 567.888671875 730.9921875 l 1
 567.888671875 -179.994140625 l 1
 525.888671875 -179.994140625 l 1
 525.888671875 684.9921875 l 1
 375.888671875 684.9921875 l 1
 375.888671875 -179.994140625 l 1xb0
EndSplineSet
EndChar

StartChar: ordfeminine
Encoding: 170 170 122
Width: 402
Flags: W
HStem: 369.992 37<101.961 236.011 324.296 378.149> 549.992 38<125.608 297> 700.992 38<94.5846 244.849>
VStem: 40 42<425.213 518.08> 275 41<410.175 486.992 590.992 670.384> 275 22<414.792 481.992>
LayerCount: 2
Fore
SplineSet
275 494.9921875 m 1xf4
 275 441.782885174 231 406.9921875 167 406.9921875 c 0
 106.87804878 406.9921875 82 432.92767137 82 473.9921875 c 0
 82 529.686200804 134.242990654 549.9921875 297 549.9921875 c 1
 297 587.9921875 l 1
 147.179372197 587.9921875 40 566.161679025 40 475.9921875 c 0
 40 411.9921875 86 369.9921875 160 369.9921875 c 0
 253.796875 369.9921875 298 414.7921875 298 481.9921875 c 1
 275 494.9921875 l 1xf4
275 590.9921875 m 2xf8
 275 459.9921875 l 2
 275 398.9921875 296.436170212 369.9921875 340 369.9921875 c 0
 368.394366197 369.9921875 382 380.9921875 382 380.9921875 c 1
 376 411.9921875 l 1
 376 411.9921875 366.421052632 406.9921875 350 406.9921875 c 0
 325.714285714 406.9921875 316 427.861752717 316 486.9921875 c 2
 316 595.9921875 l 2
 316 682.197861259 277.8125 738.9921875 186 738.9921875 c 0
 110.707142858 738.9921875 59 708.9921875 59 708.9921875 c 1
 73 670.9921875 l 1
 73 670.9921875 117.689655172 700.9921875 181 700.9921875 c 0
 246.193548386 700.9921875 275 667.28251008 275 590.9921875 c 2xf8
EndSplineSet
EndChar

StartChar: ordmasculine
Encoding: 186 186 123
Width: 418
Flags: W
HStem: 367.992 40<139.039 279.542> 698.992 40<139.039 279.149>
VStem: 43 42<464.713 643.635> 333 42<462.686 643.635>
LayerCount: 2
Fore
SplineSet
85 554.9921875 m 0
 85 465.600295608 126.136507937 407.9921875 209 407.9921875 c 0
 293.634920636 407.9921875 333 465.600295608 333 554.9921875 c 4
 333 640.175286092 291.863492063 698.9921875 209 698.9921875 c 0
 126.136507937 698.9921875 85 640.175286092 85 554.9921875 c 0
43 555.9921875 m 0
 43 667.025895365 106.365591398 738.9921875 209 738.9921875 c 0
 312.52688172 738.9921875 375 667.025895365 375 555.9921875 c 0
 375 441.959400615 312.52688172 367.9921875 209 367.9921875 c 0
 106.365591398 367.9921875 43 441.959400615 43 555.9921875 c 0
EndSplineSet
EndChar

StartChar: arrowleft
Encoding: 8592 8592 124
Width: 550
Flags: W
HStem: 337.64 42<69.749 537.749>
LayerCount: 2
Fore
SplineSet
537.749023438 331.639648438 m 1
 69.7490234375 337.639648438 l 1
 69.7490234375 379.639648438 l 1
 537.749023438 385.639648438 l 1
 537.749023438 331.639648438 l 1
77.5615234375 358.638671875 m 1
 277.848632812 160.1171875 l 5
 241.510742188 123.779296875 l 1
 12.2509765625 358.638671875 l 1
 241.510742188 593.5 l 1
 277.848632812 557.16015625 l 1
 77.5615234375 358.638671875 l 1
EndSplineSet
EndChar

StartChar: product
Encoding: 8719 8719 128
Width: 719
Flags: W
HStem: 685.008 46<124 595>
VStem: 75 49<-179.994 685.008> 595 49<-179.994 685.008>
LayerCount: 2
Fore
SplineSet
644 731.0078125 m 1
 644 -179.994140625 l 1
 595 -179.994140625 l 1
 595 685.0078125 l 5
 124 685.0078125 l 5
 124 -179.994140625 l 1
 75 -179.994140625 l 1
 75 731.0078125 l 1
 644 731.0078125 l 1
EndSplineSet
EndChar

StartChar: summation
Encoding: 8721 8721 129
Width: 634
Flags: W
HStem: -179.994 46<119 584> 685.008 46<131 584>
LayerCount: 2
Back
SplineSet
264 585.0078125 m 5
 394 410 l 5
 394 319 l 5
 244 146 l 5
 544 146 l 5
 544 0 l 5
 55 0 l 5
 55 161 l 5
 235 358 l 5
 55 589 l 5
 55 731.0078125 l 5
 544 731.0078125 l 5
 544 585.0078125 l 5
 264 585.0078125 l 5
EndSplineSet
Fore
SplineSet
131 685.0078125 m 1
 391 294 l 5
 391 263 l 5
 119 -133.994140625 l 1
 584 -133.994140625 l 1
 584 -179.994140625 l 1
 75 -179.994140625 l 1
 75 -118.994140625 l 1
 345 278 l 5
 75 689 l 1
 75 731.0078125 l 1
 584 731.0078125 l 1
 584 685.0078125 l 1
 131 685.0078125 l 1
EndSplineSet
EndChar

StartChar: approxequal
Encoding: 8776 8776 130
Width: 450
VWidth: 999
Flags: W
HStem: 227 43<231.359 376.357> 276 42<77.4744 200.18> 413 44<233.455 372.851> 462 43<74.6665 201.964>
LayerCount: 2
Fore
SplineSet
428 275 m 1
 428 275 376.065429688 227 296 227 c 0
 218.461914062 227 192.615234375 276 136 276 c 0
 90.289855072 276 53 235 53 235 c 1
 22 268 l 1
 22 268 70.6561316288 318 134 318 c 0
 211.73838501 318 244.33838501 270 297 270 c 0
 365.138461539 270 400 309 400 309 c 1
 428 275 l 1
428 470 m 1
 428 470 376.065429688 413 296 413 c 0
 218.461914062 413 192.615234375 462 136 462 c 0
 90.289855072 462 53 423 53 423 c 1
 26 455 l 1
 26 455 74.6561316288 505 138 505 c 0
 215.73838501 505 248.33838501 457 301 457 c 0
 365.830769231 457 399 502 399 502 c 1
 428 470 l 1
EndSplineSet
EndChar

StartChar: perthousand
Encoding: 8240 8240 131
Width: 1263
Flags: W
HStem: -9.99805 40.7803<645.688 793.647 961.249 1109.21> 0 21G<231 292.175> 321.072 40.7793<645.688 795.672 959.224 1109.21> 367.143 40.7793<159.399 303.783> 698.212 40.7803<157.337 305.845> 711.008 20G<663.825 725>
VStem: 55 45.6602<464.797 642.507> 364.41 43.5498<468.262 639.066> 546 44.6602<87.6566 267.322> 851.41 53.25<71.9576 282.515> 861 32.96<74.4222 278.624> 1165.41 43.5498<87.6568 265.367>
LayerCount: 2
Fore
SplineSet
904.66015625 176.481445312 m 4xb3d0
 904.66015625 71.9576270088 963.529296875 30.7822265625 1035.48046875 30.7822265625 c 4
 1105.19931093 30.7822265625 1165.41015625 71.9576270088 1165.41015625 176.481445312 c 4
 1165.41015625 282.515671767 1105.19931093 321.072265625 1035.48046875 321.072265625 c 4
 963.529296875 321.072265625 904.66015625 282.515671767 904.66015625 176.481445312 c 4xb3d0
861 176.481445312 m 4xb3b0
 861 278.623614564 925.391214191 361.8515625 1037.48046875 361.8515625 c 4
 1152.23356968 361.8515625 1208.95996094 278.623614564 1208.95996094 176.481445312 c 4
 1208.95996094 74.4221678794 1152.23356968 -9.998046875 1037.48046875 -9.998046875 c 4
 925.391214191 -9.998046875 861 74.4221678794 861 176.481445312 c 4xb3b0
590.66015625 176.481445312 m 4
 590.66015625 71.9572169306 648.62856569 30.7822265625 719.48046875 30.7822265625 c 4
 790.272367873 30.7822265625 851.41015625 71.9572169306 851.41015625 176.481445312 c 4xb3d0
 851.41015625 282.515450977 790.272367873 321.072265625 719.48046875 321.072265625 c 4
 648.62856569 321.072265625 590.66015625 282.515450977 590.66015625 176.481445312 c 4
546 176.481445312 m 4
 546 278.624023438 602.72641724 361.8515625 717.48046875 361.8515625 c 4
 829.568783015 361.8515625 893.959960938 278.623614564 893.959960938 176.481445312 c 4xb3b0
 893.959960938 74.4221678794 829.568783015 -9.998046875 717.48046875 -9.998046875 c 4
 602.72641724 -9.998046875 546 74.4218750005 546 176.481445312 c 4
100.66015625 553.622070312 m 4
 100.66015625 449.098455052 164.528554338 407.921875 231.48046875 407.921875 c 4
 297.808955965 407.921875 364.41015625 449.098455052 364.41015625 553.622070312 c 4
 364.41015625 659.654868211 297.808955965 698.211914062 231.48046875 698.211914062 c 4x3b90
 164.528554338 698.211914062 100.66015625 659.654868211 100.66015625 553.622070312 c 4
55 553.622070312 m 4
 55 655.764648438 119.39139749 738.9921875 231.48046875 738.9921875 c 4
 343.568582554 738.9921875 407.959960938 655.764648438 407.959960938 553.622070312 c 4
 407.959960938 451.5625 343.568582554 367.142578125 231.48046875 367.142578125 c 4
 119.39139749 367.142578125 55 451.5625 55 553.622070312 c 4
EndSplineSet
Refer: 138 8260 N 1 0 0 1 301 0 2
EndChar

StartChar: uni2031
Encoding: 8241 8241 132
Width: 1573
Flags: W
HStem: -9.99805 40.7803<645.688 793.647 957.297 1107.6 1271.25 1419.21> 0 21G<231 292.175> 321.072 40.7793<645.688 795.672 957.297 1107.6 1269.22 1419.21> 367.143 40.7793<159.182 304> 698.212 40.7803<157.119 306.063> 711.008 20G<663.825 725>
VStem: 55 45.6602<464.797 642.507> 364.41 43.5498<468.262 641.05> 546 44.6602<87.6566 267.322> 851.41 50.25<71.9576 282.515> 862 31.96<74.4222 278.624> 1164.41 50.25<71.9576 282.516> 1171 31.96<74.4222 278.624> 1475.41 43.5498<87.6568 265.367>
LayerCount: 2
Fore
SplineSet
1214.66015625 176.481445312 m 0xb394
 1214.66015625 71.9576270088 1273.52929688 30.7822265625 1345.48046875 30.7822265625 c 0
 1415.19931093 30.7822265625 1475.41015625 71.9576270088 1475.41015625 176.481445312 c 0
 1475.41015625 282.515671767 1415.19931093 321.072265625 1345.48046875 321.072265625 c 0
 1273.52929688 321.072265625 1214.66015625 282.515671767 1214.66015625 176.481445312 c 0xb394
1171 176.481445312 m 0xb38c
 1171 278.623614564 1235.39121418 361.8515625 1347.48046875 361.8515625 c 0
 1462.23356968 361.8515625 1518.95996094 278.623614564 1518.95996094 176.481445312 c 0
 1518.95996094 74.4221678794 1462.23356968 -9.998046875 1347.48046875 -9.998046875 c 0
 1235.39121418 -9.998046875 1171 74.4221678794 1171 176.481445312 c 0xb38c
901.66015625 176.481445312 m 0xb3d4
 901.66015625 71.9576270088 960.529296875 30.7822265625 1032.48046875 30.7822265625 c 0
 1103.27248895 30.7822265625 1164.41015625 71.9576270088 1164.41015625 176.481445312 c 0
 1164.41015625 282.515671767 1103.27248895 321.072265625 1032.48046875 321.072265625 c 0
 960.529296875 321.072265625 901.66015625 282.515671767 901.66015625 176.481445312 c 0xb3d4
862 176.481445312 m 0xb3ac
 862 278.623614564 918.395613285 361.8515625 1032.48046875 361.8515625 c 0
 1146.56437537 361.8515625 1202.95996094 278.623614564 1202.95996094 176.481445312 c 0
 1202.95996094 74.4221678794 1146.56437537 -9.998046875 1032.48046875 -9.998046875 c 0
 918.395613285 -9.998046875 862 74.4221678794 862 176.481445312 c 0xb3ac
590.66015625 176.481445312 m 0
 590.66015625 71.9572169306 648.62856569 30.7822265625 719.48046875 30.7822265625 c 0
 790.272367873 30.7822265625 851.41015625 71.9572169306 851.41015625 176.481445312 c 0xb3c4
 851.41015625 282.515450977 790.272367873 321.072265625 719.48046875 321.072265625 c 0
 648.62856569 321.072265625 590.66015625 282.515450977 590.66015625 176.481445312 c 0
546 176.481445312 m 0
 546 278.624023438 602.72641724 361.8515625 717.48046875 361.8515625 c 0
 829.568783015 361.8515625 893.959960938 278.623614564 893.959960938 176.481445312 c 0xb3a4
 893.959960938 74.4221678794 829.568783015 -9.998046875 717.48046875 -9.998046875 c 0
 602.72641724 -9.998046875 546 74.4218750005 546 176.481445312 c 0
100.66015625 553.622070312 m 0
 100.66015625 449.098455052 163.528554338 407.921875 231.48046875 407.921875 c 0
 298.808955965 407.921875 364.41015625 449.098455052 364.41015625 553.622070312 c 0
 364.41015625 659.654868211 298.808955965 698.211914062 231.48046875 698.211914062 c 0x3b84
 163.528554338 698.211914062 100.66015625 659.654868211 100.66015625 553.622070312 c 0
55 553.622070312 m 0
 55 655.764648438 119.39139749 738.9921875 231.48046875 738.9921875 c 0
 343.568582554 738.9921875 407.959960938 655.764648438 407.959960938 553.622070312 c 0
 407.959960938 451.5625 343.568582554 367.142578125 231.48046875 367.142578125 c 0
 119.39139749 367.142578125 55 451.5625 55 553.622070312 c 0
EndSplineSet
Refer: 138 8260 N 1 0 0 1 301 0 2
EndChar

StartChar: uni203D
Encoding: 8253 8253 133
Width: 566
Flags: W
HStem: -10 86.4492<200.07 275.929> 292 43.0488<259.781 386.85> 696.229 42.7637<113.866 361.36>
VStem: 195.387 85.2266<-5.24913 71.6983> 220 38<210 305 345.469 791.008> 468.096 43.7744<415.235 600.358>
LayerCount: 2
Fore
SplineSet
220 210 m 1xec
 214 791.0078125 l 1
 264 791.0078125 l 1
 258 210 l 1
 220 210 l 1xec
195.38671875 33.224609375 m 0xf4
 195.38671875 59.4105850447 212.183609917 76.44921875 237.999023438 76.44921875 c 0
 263.815525102 76.44921875 280.61328125 59.4105850447 280.61328125 33.224609375 c 0
 280.61328125 7.03818091149 263.815525102 -10 237.999023438 -10 c 0
 212.183609917 -10 195.38671875 7.03818091149 195.38671875 33.224609375 c 0xf4
222.422851562 305 m 1
 234.15625 345.46875 l 1
 234.15625 345.46875 263.525384622 335.048828125 300.3984375 335.048828125 c 0
 390.594904675 335.048828125 468.095703125 393.732921309 468.095703125 503.145507812 c 0
 468.095703125 637.055621367 381.026291611 696.228515625 236.89453125 696.228515625 c 0
 122.538188249 696.228515625 47.923828125 643.958007812 47.923828125 643.958007812 c 1
 30.2412109375 685.311523438 l 1
 30.2412109375 685.311523438 107.0703125 738.9921875 239.89453125 738.9921875 c 0
 403.017611016 738.9921875 511.870117188 661.327703299 511.870117188 505.010742188 c 0
 511.870117188 357.985517121 398.073276051 292 298 292 c 0
 248.51389419 292 222.422851562 305 222.422851562 305 c 1
EndSplineSet
EndChar

StartChar: lira
Encoding: 8356 8356 134
Width: 553
Flags: W
HStem: 0 46<100.319 523> 235 46<60 424> 365 46<60 424> 692.621 46.8408<198.782 418.566>
VStem: 79.3516 53.9785<447.616 630.156> 156.824 47.6572<188.644 361.489>
LayerCount: 2
Fore
SplineSet
523 0 m 1
 30 0 l 1
 30 42 l 1
 30 42 156.82421875 143.315626273 156.82421875 289.379882812 c 0
 156.82421875 391.588284089 79.3515625 418.16779209 79.3515625 547.185546875 c 0
 79.3515625 671.398535433 171.462698585 739.461914062 302.80859375 739.461914062 c 0
 432.1704466 739.461914062 489.95703125 691.405273438 489.95703125 691.405273438 c 1
 474.9375 646.024414062 l 1
 474.9375 646.024414062 395.268923075 692.62109375 307.80859375 692.62109375 c 0
 211.186534475 692.62109375 133.330078125 663.294238939 133.330078125 542 c 0
 133.330078125 429.217185139 204.481445312 412.4421136 204.481445312 290.158203125 c 0
 204.481445312 138.866475482 100.319335938 46 100.319335938 46 c 1
 523 46 l 1
 523 0 l 1
424 235 m 1
 60 235 l 1
 60 281 l 1
 424 281 l 1
 424 235 l 1
424 365 m 1
 60 365 l 1
 60 411 l 1
 424 411 l 1
 424 365 l 1
EndSplineSet
EndChar

StartChar: uni20B5
Encoding: 8373 8373 135
Width: 623
Flags: W
HStem: -9.99805 9.46777<350 399> 725 14.1211<350 399>
VStem: 55 51.8486<217.759 512.272> 350 49<-105 -0.530273 725 829.47>
LayerCount: 2
Fore
SplineSet
55 364.561523438 m 0
 55 591.206054688 174.848802211 739.12109375 385.888671875 739.12109375 c 0
 530.311117971 739.12109375 589.681640625 672.891601562 589.681640625 672.891601562 c 1
 566.35546875 639.138671875 l 1
 566.35546875 639.138671875 506.417383509 694.659179688 384.888671875 694.659179688 c 0
 190.120574947 694.659179688 106.848632812 562.505743866 106.848632812 364.561523438 c 0
 106.848632812 169.015917072 191.318559847 38.4638671875 388.888671875 38.4638671875 c 4
 511.224365 38.4638671875 576.018554688 82.595703125 576.018554688 82.595703125 c 5
 592.827148438 44.595703125 l 1
 592.827148438 44.595703125 529.615919689 -9.998046875 385.888671875 -9.998046875 c 0
 174.848802211 -9.998046875 55 137.916992188 55 364.561523438 c 0
350 -105 m 1
 350 -0.5302734375 l 1
 399 -0.5302734375 l 1
 399 -105 l 1
 350 -105 l 1
350 725 m 1
 350 829.469726562 l 1
 399 829.469726562 l 1
 399 725 l 1
 350 725 l 1
EndSplineSet
EndChar

StartChar: uni20B2
Encoding: 8370 8370 136
Width: 739
Flags: W
HStem: -9.99805 22.4678<350 399> 327 44<386 552.019 600.827 704> 327 27.5957<552.019 600.827> 710 29.1211<350 399>
VStem: 55 51.8486<212.982 507.944> 350 49<-105 12.4697 710 829.47> 588.481 48.001<129.495 326.164>
LayerCount: 2
Fore
SplineSet
350 -105 m 1x9e
 350 12.4697265625 l 1
 399 12.4697265625 l 1
 399 -105 l 1
 350 -105 l 1x9e
350 710 m 1
 350 829.469726562 l 1
 399 829.469726562 l 1
 399 710 l 1
 350 710 l 1
704 327 m 1xde
 386 327 l 1
 386 371 l 1
 704 371 l 1
 704 327 l 1xde
55 364.561523438 m 4
 55 591.206054688 177.553245686 739.12109375 378.888671875 739.12109375 c 0
 521.184860258 739.12109375 579.681640625 672.891601562 579.681640625 672.891601562 c 1
 557.35546875 639.138671875 l 1
 557.35546875 639.138671875 498.738599811 691.659179688 379.888671875 691.659179688 c 0
 200.406732081 691.659179688 106.848632812 560.706783316 106.848632812 364.561523438 c 4
 106.848632812 167.816610039 189.113881419 36.4638671875 369.888671875 36.4638671875 c 0
 526.003845591 36.4638671875 588.481445312 112.250159964 588.481445312 226 c 0
 588.481445312 315.940220595 552.018554688 354.595703125 552.018554688 354.595703125 c 1
 600.827148438 354.595703125 l 1xbe
 600.827148438 354.595703125 636.482421875 323.538471622 636.482421875 222 c 0
 636.482421875 93.0859042083 550.68317635 -9.998046875 369.888671875 -9.998046875 c 0
 169.320180376 -9.998046875 55 137.916992188 55 364.561523438 c 4
EndSplineSet
EndChar

StartChar: uni20BA
Encoding: 8378 8378 137
Width: 648
Flags: W
HStem: 0 51<164 417.111> 711.008 20G<115 164>
VStem: 115 49<51 731.008>
LayerCount: 2
Fore
SplineSet
354 368 m 5
 50 268 l 1
 50 318 l 1
 354 418 l 5
 354 368 l 5
354 498 m 5
 50 398 l 1
 50 448 l 1
 354 548 l 5
 354 498 l 5
164 51 m 1
 300 51 l 2
 552.5 51 553 275 553 275 c 1
 609 268 l 1
 609 268 596.571920759 -3.26960680752e-14 300 0 c 2
 115 0 l 1
 115 731.0078125 l 1
 164 731.0078125 l 1
 164 51 l 1
EndSplineSet
EndChar

StartChar: fraction
Encoding: 8260 8260 138
Width: 304
Flags: W
HStem: 0 21G<-70 -8.82503> 711.008 20G<362.825 424>
LayerCount: 2
Fore
SplineSet
-70 0 m 1
 375 731.0078125 l 1
 424 731.0078125 l 5
 -21 0 l 5
 -70 0 l 1
EndSplineSet
Validated: 524289
EndChar

StartChar: endash
Encoding: 8211 8211 139
Width: 570
Flags: W
HStem: 258 43<50 520>
LayerCount: 2
Fore
SplineSet
50 258 m 5
 50 301 l 1
 520 301 l 1
 520 258 l 5
 50 258 l 5
EndSplineSet
Validated: 1
EndChar

StartChar: emdash
Encoding: 8212 8212 140
Width: 820
Flags: W
HStem: 258 43<30 790>
LayerCount: 2
Fore
SplineSet
30 258 m 1
 30 301 l 5
 790 301 l 5
 790 258 l 1
 30 258 l 1
EndSplineSet
Validated: 1
EndChar

StartChar: Euro
Encoding: 8364 8364 141
Width: 683
Flags: W
HStem: -9.99805 44.4619<329.175 586.53> 280 46<40 431.957> 410 46<40 464.879> 698.659 40.4619<330.387 562.405>
VStem: 115 46.8486<273.925 461.211>
LayerCount: 2
Fore
SplineSet
431.95703125 280 m 1
 40 280 l 1
 40 326 l 1
 447.12109375 326 l 1
 431.95703125 280 l 1
464.87890625 410 m 1
 40 410 l 1
 40 456 l 1
 480.04296875 456 l 1
 464.87890625 410 l 1
115 364.561523438 m 0
 115 591.206054688 234.84872234 739.12109375 445.888671875 739.12109375 c 0
 590.310755049 739.12109375 649.681640625 672.891601562 649.681640625 672.891601562 c 1
 626.35546875 643.138671875 l 1
 626.35546875 643.138671875 567.077377792 698.659179688 446.888671875 698.659179688 c 0
 247.21659097 698.659179688 161.848632812 564.904357933 161.848632812 364.561523438 c 0
 161.848632812 166.617303005 249.61254793 34.4638671875 454.888671875 34.4638671875 c 4
 573.301607626 34.4638671875 636.018554688 78.595703125 636.018554688 78.595703125 c 1
 652.827148438 44.595703125 l 1
 652.827148438 44.595703125 589.616104905 -9.998046875 445.888671875 -9.998046875 c 0
 234.84872234 -9.998046875 115 137.916992188 115 364.561523438 c 0
EndSplineSet
EndChar

StartChar: uni20AD
Encoding: 8365 8365 142
Width: 665
Flags: W
HStem: 0 21G<111 160 549.663 635> 332 47<30 594> 711.008 20G<111 160 547.754 625>
VStem: 111 49<0 731.008>
LayerCount: 2
Fore
SplineSet
594 332 m 5
 30 332 l 1
 30 379 l 1
 594 379 l 5
 594 332 l 5
567 0 m 1
 274 338 l 1
 274 374 l 1
 564 731.0078125 l 1
 625 731.0078125 l 1
 321 361 l 1
 635 0 l 1
 567 0 l 1
111 0 m 1
 111 731.0078125 l 1
 160 731.0078125 l 1
 160 0 l 1
 111 0 l 1
EndSplineSet
EndChar

StartChar: uni20B9
Encoding: 8377 8377 143
Width: 574
Flags: W
HStem: 0 21G<434.485 495> 302 50.3516<50 307.213> 470 46<50 524> 684.649 46.3584<50 310.251>
VStem: 405.929 49.8486<428.801 603.866>
LayerCount: 2
Fore
SplineSet
204 302 m 2
 50 302 l 1
 50 352.3515625 l 1
 166.888671875 352.461914062 l 2
 303.381982307 352.590773856 405.928710938 381.609033706 405.928710938 514.561523438 c 0
 405.928710938 652.762958768 303.005967847 684.427254711 167.888671875 684.545898438 c 2
 50 684.649414062 l 1
 50 731.0078125 l 1
 183.888671875 731.0078125 l 2
 326.745750968 731.0078125 455.77734375 672.058469979 455.77734375 514.561523438 c 0
 455.77734375 357.076102541 315.688476562 326.276367188 315.688476562 326.276367188 c 1
 315.688476562 326.276367188 378.019015659 319.255801637 426.100585938 188.03515625 c 2
 495 0 l 1
 442 0 l 1
 397.94921875 117.228515625 l 2
 347.473982111 251.553876019 337.812232728 302 204 302 c 2
524 470 m 5
 50 470 l 5
 50 516 l 1
 524 516 l 1
 524 470 l 5
EndSplineSet
EndChar

StartChar: uni20B4
Encoding: 8372 8372 144
Width: 677
Flags: W
HStem: -10 47.4619<236.499 491.355> 275 46<50 627> 405 46<50 627> 690.659 48.4619<191.205 438.793>
VStem: 100 52.1816<108.539 265.022> 517.581 49.3115<470.912 622.124>
LayerCount: 2
Fore
SplineSet
627 275 m 1
 50 275 l 1
 50 321 l 1
 627 321 l 1
 627 275 l 1
627 405 m 1
 50 405 l 1
 50 451 l 1
 627 451 l 1
 627 405 l 1
353.543945312 347.65625 m 0
 176.665279306 301.878800047 152.181640625 265.604625235 152.181640625 187 c 0
 152.181640625 87.7118664333 227.171210145 37.4619140625 356.823242188 37.4619140625 c 0
 468.811231444 37.4619140625 556.546875 85.982421875 556.546875 85.982421875 c 1
 573.703125 42.2294921875 l 1
 573.703125 42.2294921875 488.709940692 -10 352.71484375 -10 c 0
 187.984148816 -10 100 67.4985703477 100 194 c 0
 100 295.794549136 160.018265122 344.529884588 314.522460938 385.081054688 c 0
 474.832367047 427.155991468 517.581054688 465.208739323 517.581054688 541 c 0
 517.581054688 638.374706201 453.548357483 690.659179688 311.15625 690.659179688 c 0
 212.84659493 690.659179688 146.1484375 648.138671875 146.1484375 648.138671875 c 1
 127.774414062 688.891601562 l 1
 127.774414062 688.891601562 189.782634948 739.12109375 317.286132812 739.12109375 c 0
 472.446505144 739.12109375 566.892578125 661.124440713 566.892578125 540 c 0
 566.892578125 445.352752352 516.347531008 389.790969605 353.543945312 347.65625 c 0
EndSplineSet
EndChar

StartChar: colonmonetary
Encoding: 8353 8353 145
Width: 623
Flags: W
HStem: -9.99805 19.4678<353.378 392.378> 698.659 40.4619<348.532 454.383>
VStem: 55 51.8486<216.851 513.18> 172.614 39<-105 -78.9114> 322.614 39<-105 -78.9534> 337.386 39<803.423 829.47> 487.386 39<803.423 829.47>
LayerCount: 2
Fore
SplineSet
322.614257812 -105 m 1xfa
 353.377929688 9.4697265625 l 1
 392.377929688 9.4697265625 l 1
 361.614257812 -105 l 1
 322.614257812 -105 l 1xfa
456.622070312 715 m 1
 487.385742188 829.469726562 l 1
 526.385742188 829.469726562 l 1
 495.622070312 715 l 1
 456.622070312 715 l 1
55 364.561523438 m 0
 55 591.206054688 174.848802211 739.12109375 385.888671875 739.12109375 c 0
 530.311117971 739.12109375 589.681640625 672.891601562 589.681640625 672.891601562 c 1
 566.35546875 643.138671875 l 1
 566.35546875 643.138671875 506.417383509 698.659179688 384.888671875 698.659179688 c 0
 190.120574947 698.659179688 106.848632812 564.904357933 106.848632812 364.561523438 c 0
 106.848632812 166.617303005 192.516544747 34.4638671875 392.888671875 34.4638671875 c 4
 511.301879999 34.4638671875 574.018554688 82.595703125 574.018554688 82.595703125 c 5
 592.827148438 44.595703125 l 1
 592.827148438 44.595703125 529.615919689 -9.998046875 385.888671875 -9.998046875 c 0
 174.848802211 -9.998046875 55 137.916992188 55 364.561523438 c 0
172.614257812 -105 m 1
 211.377929688 39.4697265625 l 1
 250.377929688 39.4697265625 l 1
 211.614257812 -105 l 1
 172.614257812 -105 l 1
306.622070312 715 m 1
 337.385742188 829.469726562 l 1
 376.385742188 829.469726562 l 1xf6
 345.622070312 715 l 1
 306.622070312 715 l 1
EndSplineSet
EndChar

StartChar: zero.inferior
Encoding: 8320 8320 148
Width: 454
Flags: W
HStem: -358 42.545<152.211 303.789> 100.455 42.545<152.211 303.789>
VStem: 35.67 43.255<-230.229 14.5045> 377.075 43.255<-230.229 14.5045>
LayerCount: 2
Fore
SplineSet
78.925 -108 m 0
 78.925 -232.73 123.6 -315.455 228 -315.455 c 0
 332.4 -315.455 377.075 -232.73 377.075 -108 c 0
 377.075 16.73 332.4 100.455 228 100.455 c 0
 123.6 100.455 78.925 16.73 78.925 -108 c 0
35.67 -108 m 0
 35.67 44 102.145 143 228 143 c 0
 353.855 143 420.33 44 420.33 -108 c 0
 420.33 -260 353.855 -358 228 -358 c 0
 102.145 -358 35.67 -260 35.67 -108 c 0
EndSplineSet
EndChar

StartChar: one.inferior
Encoding: 8321 8321 149
Width: 276
Flags: W
VStem: 176.215 45.635<-350 79.98>
LayerCount: 2
Fore
SplineSet
221.85 137 m 1
 221.85 -350 l 1
 176.215 -350 l 1
 176.215 79.98 l 1
 176.215 79.98 45.19 15.78 45.19 15.78 c 1
 45.19 15.78 29.295 51.33 29.295 51.33 c 1
 188.025 137 l 1
 221.85 137 l 1
EndSplineSet
EndChar

StartChar: two.inferior
Encoding: 8322 8322 150
Width: 404
Flags: W
HStem: -350 41.26<83.3 379.81> 103.6 39.4<101.606 281.564>
VStem: 38.335 44.965<-308.74 -238.787> 327.125 42.015<-61.0388 63.0146>
LayerCount: 2
Fore
SplineSet
327.125 -0.47 m 0
 327.125 56.445 293.595 103.6 194.575 103.6 c 0
 120.855 103.6 67.66 65.98 67.66 65.98 c 1
 51.48 103.43 l 1
 51.48 103.43 110.48 143 196.67 143 c 0
 304.19 143 369.14 95.24 369.14 -0.09 c 0
 369.14 -84.945 311.28 -120.42 233 -155.08 c 0
 101.165 -212.61 83.395 -254.285 83.3 -308.74 c 1
 379.81 -308.74 l 1
 379.81 -350 l 1
 38.335 -350 l 1
 38.335 -314 l 2
 38.335 -223.055 98.905 -170.105 209.905 -119.635 c 0
 284.875 -86.63 327.125 -63.87 327.125 -0.47 c 0
EndSplineSet
EndChar

StartChar: three.inferior
Encoding: 8323 8323 151
Width: 388
Flags: W
HStem: -358 40.545<56.6801 265.236> -121.655 39.31<110.19 259.489> 101.885 41.115<68.6232 260.974>
VStem: 301.555 42.49<-51.7758 64.5429> 310.65 43.49<-278.899 -157.38>
LayerCount: 2
Fore
SplineSet
175.72 -82.345 m 2xe8
 259.59 -82.345 301.555 -53.53 301.555 4.815 c 0
 301.555 59.78 269.5 101.885 168.955 101.885 c 0
 90.615 101.885 44.66 68.645 44.66 68.645 c 1
 44.66 68.645 29.525 105.38 29.525 105.38 c 1
 29.525 105.38 81.525 143 171.43 143 c 0
 280 143 344.045 96.62 344.045 9.05 c 0xf0
 344.045 -81.67 258.18 -101.62 258.18 -101.62 c 1
 258.18 -101.62 354.14 -118.14 354.14 -218.86 c 0
 354.14 -315.38 279.76 -358 168 -358 c 0
 72.715 -358 16.335 -323 16.335 -323 c 1
 16.335 -323 31.28 -284.98 31.28 -284.98 c 1
 31.28 -284.98 81.425 -317.455 166.67 -317.455 c 0
 264.45 -317.455 310.65 -282.115 310.65 -219.055 c 0
 310.65 -151.565 264.165 -121.655 175.815 -121.655 c 2
 110.19 -121.655 l 1
 110.19 -82.345 l 1
 175.72 -82.345 l 2xe8
EndSplineSet
EndChar

StartChar: four.inferior
Encoding: 8324 8324 152
Width: 439
Flags: W
HStem: -216.37 39.69<92.88 408.045>
VStem: 281.305 43.255<-350 68.47>
LayerCount: 2
Fore
SplineSet
324.56 137 m 1
 324.56 -350 l 1
 281.305 -350 l 1
 281.305 68.47 l 1
 281.305 68.47 92.88 -176.68 92.88 -176.68 c 1
 92.88 -176.68 408.045 -176.68 408.045 -176.68 c 1
 408.045 -216.37 l 1
 50.145 -216.37 l 1
 39.245 -183.345 l 1
 282.4 137 l 1
 324.56 137 l 1
EndSplineSet
EndChar

StartChar: five.inferior
Encoding: 8325 8325 153
Width: 404
Flags: W
HStem: -357 40.115<66.6787 270.392> -72.265 37.595<134.118 280.43> 96.74 40.26<107.69 340.475>
VStem: 328.79 42.11<-264.836 -117.275>
LayerCount: 2
Fore
SplineSet
182.285 -357 m 0
 82.24 -357 22.67 -323 22.67 -323 c 1
 37.52 -284.695 l 1
 37.52 -284.695 96.235 -316.885 172.665 -316.885 c 0
 281.97 -316.885 328.79 -269.59 328.79 -191.765 c 0
 328.79 -116.75 287.305 -72.265 205.765 -72.265 c 0
 116.365 -72.265 89.17 -139.235 89.17 -139.235 c 1
 89.17 -139.235 46.81 -129.05 46.81 -129.05 c 1
 46.81 -129.05 72.715 137 72.715 137 c 1
 340.475 137 l 1
 340.475 96.74 l 1
 107.69 96.74 l 1
 89.495 -89.26 l 1
 89.495 -89.26 120.12 -34.67 216.805 -34.67 c 0
 310.325 -34.67 370.9 -93.48 370.9 -190.48 c 0
 370.9 -294.335 301.66 -357 182.285 -357 c 0
EndSplineSet
EndChar

StartChar: six.inferior
Encoding: 8326 8326 154
Width: 427
Flags: W
HStem: -358 42.5<140.399 300.938> -69.5 37.12<143.44 300.267> 102.455 40.545<155.326 338.408>
VStem: 35.67 38.635<-125.745 -0.015625> 351.36 40.875<-265.477 -118.313>
LayerCount: 2
Fore
SplineSet
88.115 -192 m 0
 88.115 -263.395 132.555 -315.5 220.905 -315.5 c 0
 310.97 -315.5 351.36 -263.395 351.36 -192 c 0
 351.36 -120.605 313.4 -69.5 220.905 -69.5 c 0
 132.555 -69.5 88.115 -120.605 88.115 -192 c 0
74.305 -125.745 m 1
 74.305 -125.745 95.635 -32.38 227.615 -32.38 c 0
 329.95 -32.38 392.235 -97.19 392.235 -191 c 0
 392.235 -298 326.76 -358 221 -358 c 0
 99.38 -358 35.67 -285 35.67 -107 c 0
 35.67 54 107.525 143 237.57 143 c 0
 328.805 143 374.47 105.24 374.47 105.24 c 1
 358.86 71.265 l 1
 358.86 71.265 317.525 102.455 240.235 102.455 c 0
 133.79 102.455 75.16 39.445 74.305 -125.745 c 1
EndSplineSet
EndChar

StartChar: seven.inferior
Encoding: 8327 8327 155
Width: 402
Flags: W
HStem: 95.74 41.26<33.095 319.845>
VStem: 141.255 44.92<-350 -211.046>
LayerCount: 2
Fore
SplineSet
186.175 -350 m 1
 141.255 -350 l 1
 149.97 -82.735 319.845 95.74 319.845 95.74 c 1
 33.095 95.74 l 1
 33.095 137 l 1
 369.905 137 l 1
 369.905 101.02 l 1
 369.905 101.02 188.985 -87.89 186.175 -350 c 1
EndSplineSet
EndChar

StartChar: eight.inferior
Encoding: 8328 8328 156
Width: 444
Flags: W
HStem: -358 39.595<129.046 316.224> -106.14 23.135<116.05 331> 102.405 40.595<138.777 308.224>
VStem: 35.67 41.445<-273.35 -158.835> 59.575 39.97<-42.3064 65.193> 349.22 39.97<-42.3064 64.2875> 368.65 41.445<-273.35 -158.835>
LayerCount: 2
Fore
SplineSet
223.24 -79.155 m 0xec
 300.59 -79.155 349.22 -44.815 349.22 9.195 c 0
 349.22 68.255 302.4 102.405 222.43 102.405 c 0
 144.46 102.405 99.545 68.255 99.545 9.195 c 0
 99.545 -44.815 146.365 -79.155 223.24 -79.155 c 0xec
222.43 143 m 0
 326 143 389.19 93.81 389.19 12 c 0
 389.19 -59.9 331 -106.14 222.43 -106.14 c 0
 116.05 -106.14 59.575 -59.9 59.575 12 c 0
 59.575 93.81 120.86 143 222.43 143 c 0
222.525 -318.405 m 0
 311.255 -318.405 368.65 -281.875 368.65 -215.435 c 0
 368.65 -152.09 311.255 -112.845 222.525 -112.845 c 0
 133.795 -112.845 77.115 -152.09 77.115 -215.435 c 0xf2
 77.115 -281.875 133.795 -318.405 222.525 -318.405 c 0
222.525 -83.005 m 0
 343 -83.005 410.095 -132.1 410.095 -220.1 c 0
 410.095 -303.43 336 -358 222.525 -358 c 0
 109.05 -358 35.67 -303.43 35.67 -220.1 c 0
 35.67 -132.1 102.05 -83.005 222.525 -83.005 c 0
EndSplineSet
EndChar

StartChar: nine.inferior
Encoding: 8329 8329 157
Width: 426
Flags: W
HStem: -358 40.545<86.6568 271.357> -182.81 37.93<127.266 283.112> 100.31 42.69<126.613 286.309>
VStem: 35.67 41.16<-96.4019 51.6725> 352.125 39.205<-220.738 -89.97>
LayerCount: 2
Fore
SplineSet
337.55 -23 m 0
 337.55 48.395 293.92 100.31 206.38 100.31 c 0
 117.125 100.31 76.83 48.395 76.83 -23 c 0
 76.83 -93.585 114.695 -144.88 206.38 -144.88 c 0
 293.92 -144.88 337.55 -93.585 337.55 -23 c 0
352.125 -89.97 m 1
 352.125 -89.97 330.795 -182.81 199.385 -182.81 c 0
 97.05 -182.81 35.67 -117.81 35.67 -23.905 c 0
 35.67 83.095 100.24 143 206 143 c 0
 327.62 143 391.33 70 391.33 -108 c 0
 391.33 -269 318.665 -358 189.43 -358 c 0
 98.195 -358 52.53 -321.05 52.53 -321.05 c 1
 52.53 -321.05 67.665 -286.98 67.665 -286.98 c 1
 67.665 -286.98 109.905 -317.455 186.765 -317.455 c 0
 292.83 -317.455 351.27 -255.16 352.125 -89.97 c 1
EndSplineSet
EndChar

StartChar: zero.superior
Encoding: 8304 8304 158
Width: 455
Flags: W
HStem: 342 42.545<152.211 303.94> 800.455 42.545<152.211 303.94>
VStem: 35.67 43.255<469.771 714.505> 377.98 43.255<472.054 712.158>
LayerCount: 2
Fore
SplineSet
78.925 592 m 0
 78.925 467.27 123.6 384.545 228 384.545 c 0
 332.4 384.545 377.98 467.27 377.98 592 c 0
 377.98 716.73 332.4 800.455 228 800.455 c 0
 123.6 800.455 78.925 716.73 78.925 592 c 0
35.67 592 m 0
 35.67 744 102.145 843 228 843 c 0
 353.855 843 421.235 744 421.235 592 c 0
 421.235 440 353.855 342 228 342 c 0
 102.145 342 35.67 440 35.67 592 c 0
EndSplineSet
EndChar

StartChar: one.superior
Encoding: 185 185 159
Width: 276
Flags: W
VStem: 176.215 45.635<350 779.98>
LayerCount: 2
Fore
SplineSet
221.85 837 m 1
 221.85 350 l 1
 176.215 350 l 1
 176.215 779.98 l 1
 176.215 779.98 45.19 715.78 45.19 715.78 c 1
 45.19 715.78 29.295 751.33 29.295 751.33 c 1
 188.025 837 l 1
 221.85 837 l 1
EndSplineSet
EndChar

StartChar: two.superior
Encoding: 178 178 160
Width: 404
Flags: W
HStem: 350 41.26<83.3 379.81> 803.6 39.4<101.628 281.596>
VStem: 38.335 44.965<391.26 461.213> 327.125 42.015<638.961 763.015>
LayerCount: 2
Fore
SplineSet
327.125 699.53 m 0
 327.125 756.445 293.69 803.6 194.67 803.6 c 0
 120.95 803.6 67.66 765.98 67.66 765.98 c 1
 51.48 803.335 l 1
 51.48 803.335 110.48 843 196.67 843 c 0
 304.19 843 369.14 795.24 369.14 699.91 c 0
 369.14 615.055 311.28 579.58 233 544.92 c 0
 101.165 487.39 83.395 445.715 83.3 391.26 c 1
 379.81 391.26 l 1
 379.81 350 l 1
 38.335 350 l 1
 38.335 386 l 2
 38.335 476.945 99.095 529.895 210 580.365 c 0
 284.97 613.37 327.125 636.13 327.125 699.53 c 0
EndSplineSet
EndChar

StartChar: three.superior
Encoding: 179 179 161
Width: 388
Flags: W
HStem: 342 40.545<58.8614 265.236> 578.345 39.31<110.19 259.489> 801.885 41.115<68.6232 260.974>
VStem: 301.555 42.49<648.224 764.543> 310.65 43.49<421.142 542.66>
LayerCount: 2
Fore
SplineSet
175.72 617.655 m 2xe8
 259.59 617.655 301.555 646.47 301.555 704.815 c 0
 301.555 759.78 269.5 801.885 168.955 801.885 c 0
 90.615 801.885 44.66 769.36 44.66 769.36 c 1
 29.525 805.285 l 1
 29.525 805.285 81.525 843 171.43 843 c 0
 280 843 344.045 796.62 344.045 709.05 c 0xf0
 344.045 618.33 258.18 598.38 258.18 598.38 c 1
 258.18 598.38 354.14 581.955 354.14 481.235 c 0
 354.14 384.715 279.76 342 168 342 c 0
 72.715 342 16.335 376.81 16.335 376.81 c 1
 31.28 415.83 l 1
 31.28 415.83 81.425 382.545 166.67 382.545 c 0
 264.45 382.545 310.65 417.885 310.65 480.945 c 0
 310.65 548.435 264.165 578.345 175.815 578.345 c 2
 110.19 578.345 l 1
 110.19 617.655 l 1
 175.72 617.655 l 2xe8
EndSplineSet
EndChar

StartChar: four.superior
Encoding: 8308 8308 162
Width: 439
Flags: W
HStem: 483.63 39.69<92.88 408.045>
VStem: 281.305 43.255<350 768.185>
LayerCount: 2
Fore
SplineSet
324.56 837 m 1
 324.56 350 l 1
 281.305 350 l 1
 281.305 768.185 l 1
 281.305 768.185 92.88 523.32 92.88 523.32 c 1
 92.88 523.32 408.045 523.32 408.045 523.32 c 1
 408.045 483.63 l 1
 50.145 483.63 l 1
 39.245 516.655 l 1
 282.4 837 l 1
 324.56 837 l 1
EndSplineSet
EndChar

StartChar: five.superior
Encoding: 8309 8309 163
Width: 404
Flags: W
HStem: 343 40.115<66.6787 270.392> 627.735 37.595<134.118 280.43> 796.74 40.26<107.69 340.475>
VStem: 328.79 42.11<435.164 582.725>
LayerCount: 2
Fore
SplineSet
182.285 343 m 0
 82.24 343 22.67 377 22.67 377 c 1
 37.52 415.305 l 1
 37.52 415.305 96.235 383.115 172.665 383.115 c 0
 281.97 383.115 328.79 430.41 328.79 508.235 c 0
 328.79 583.25 287.305 627.735 205.765 627.735 c 0
 116.365 627.735 89.17 560.765 89.17 560.765 c 1
 89.17 560.765 46.81 570.95 46.81 570.95 c 1
 46.81 570.95 72.715 837 72.715 837 c 1
 340.475 837 l 1
 340.475 796.74 l 1
 107.69 796.74 l 1
 89.495 610.74 l 1
 89.495 610.74 120.12 665.33 216.805 665.33 c 0
 310.325 665.33 370.9 606.52 370.9 509.52 c 0
 370.9 405.665 301.66 343 182.285 343 c 0
EndSplineSet
EndChar

StartChar: six.superior
Encoding: 8310 8310 164
Width: 427
Flags: W
HStem: 342 42.5<140.399 300.938> 630.5 37.12<143.44 300.267> 802.455 40.545<155.326 340.246>
VStem: 35.67 38.635<574.065 699.984> 351.36 40.875<434.523 581.687>
LayerCount: 2
Fore
SplineSet
88.115 508 m 0
 88.115 436.605 132.555 384.5 220.905 384.5 c 0
 310.97 384.5 351.36 436.605 351.36 508 c 0
 351.36 579.395 313.4 630.5 220.905 630.5 c 0
 132.555 630.5 88.115 579.395 88.115 508 c 0
74.305 574.065 m 1
 74.305 574.065 95.635 667.62 227.615 667.62 c 0
 329.95 667.62 392.235 602.81 392.235 509 c 0
 392.235 402 326.76 342 221 342 c 0
 99.38 342 35.67 415 35.67 593 c 0
 35.67 754 107.525 843 237.57 843 c 0
 328.805 843 374.47 805.24 374.47 805.24 c 1
 358.86 771.98 l 1
 358.86 771.98 317.525 802.455 240.235 802.455 c 0
 133.79 802.455 75.16 739.35 74.305 574.065 c 1
EndSplineSet
EndChar

StartChar: seven.superior
Encoding: 8311 8311 165
Width: 402
Flags: W
HStem: 795.74 41.26<33.095 319.845>
VStem: 141.255 44.92<350 488.945>
LayerCount: 2
Fore
SplineSet
186.175 350 m 1
 141.255 350 l 1
 149.97 617.265 319.845 795.74 319.845 795.74 c 1
 33.095 795.74 l 1
 33.095 837 l 1
 369.905 837 l 1
 369.905 800.925 l 1
 369.905 800.925 188.985 612.11 186.175 350 c 1
EndSplineSet
EndChar

StartChar: eight.superior
Encoding: 8312 8312 166
Width: 444
Flags: W
HStem: 342 39.595<129.202 316.638> 593.86 23.135<116.145 331.475> 802.405 40.595<138.907 308.684>
VStem: 35.67 41.445<426.65 541.165> 59.575 39.97<657.694 765.193> 349.79 39.97<657.694 764.288> 369.22 41.445<426.65 541.165>
LayerCount: 2
Fore
SplineSet
223.525 620.845 m 0xec
 301.065 620.845 349.79 655.185 349.79 709.195 c 0
 349.79 768.255 302.875 802.405 222.715 802.405 c 0
 144.65 802.405 99.545 768.255 99.545 709.195 c 0
 99.545 655.185 146.46 620.845 223.525 620.845 c 0xec
222.715 843 m 0
 326.475 843 389.76 793.81 389.76 712 c 0
 389.76 640.1 331.475 593.86 222.715 593.86 c 0
 116.145 593.86 59.575 640.1 59.575 712 c 0
 59.575 793.81 120.955 843 222.715 843 c 0
222.81 381.595 m 0
 311.635 381.595 369.22 418.125 369.22 484.565 c 0
 369.22 547.91 311.635 587.155 222.81 587.155 c 0
 133.985 587.155 77.115 547.91 77.115 484.565 c 0xf2
 77.115 418.125 133.985 381.595 222.81 381.595 c 0
222.81 616.995 m 0
 343.475 616.995 410.665 567.9 410.665 479.9 c 0
 410.665 396.57 336.38 342 222.81 342 c 0
 109.24 342 35.67 396.57 35.67 479.9 c 0
 35.67 567.9 102.145 616.995 222.81 616.995 c 0
EndSplineSet
EndChar

StartChar: nine.superior
Encoding: 8313 8313 167
Width: 426
Flags: W
HStem: 342 40.545<88.5038 271.357> 517.19 37.93<127.266 283.112> 800.31 42.69<126.613 286.309>
VStem: 35.67 41.16<603.598 751.673> 352.125 39.205<479.898 610.935>
LayerCount: 2
Fore
SplineSet
337.55 677 m 0
 337.55 748.395 293.92 800.31 206.38 800.31 c 0
 117.125 800.31 76.83 748.395 76.83 677 c 0
 76.83 606.415 114.695 555.12 206.38 555.12 c 0
 293.92 555.12 337.55 606.415 337.55 677 c 0
352.125 610.935 m 1
 352.125 610.935 330.795 517.19 199.385 517.19 c 0
 97.05 517.19 35.67 582.19 35.67 676.095 c 0
 35.67 783.095 100.24 843 206 843 c 0
 327.62 843 391.33 770 391.33 592 c 0
 391.33 431 318.665 342 189.43 342 c 0
 98.195 342 52.53 379.76 52.53 379.76 c 1
 67.665 413.83 l 1
 67.665 413.83 109.905 382.545 186.765 382.545 c 0
 292.83 382.545 351.27 445.745 352.125 610.935 c 1
EndSplineSet
EndChar

StartChar: circumflex
Encoding: 710 710 168
Width: 362
Flags: W
HStem: 526 205.008
VStem: 31 300
LayerCount: 2
Fore
SplineSet
301 526 m 1
 181 677.432617188 l 1
 61 526 l 1
 31 546 l 1
 151 731.0078125 l 1
 211 731.0078125 l 5
 331 546 l 1
 301 526 l 1
EndSplineSet
EndChar

StartChar: caron
Encoding: 711 711 169
Width: 362
Flags: W
HStem: 536 205.008
VStem: 31 300
LayerCount: 2
Fore
SplineSet
61 741.0078125 m 1
 181 589.575195312 l 1
 301 741.0078125 l 1
 331 721.0078125 l 1
 211 536 l 5
 151 536 l 1
 31 721.0078125 l 1
 61 741.0078125 l 1
EndSplineSet
EndChar

StartChar: breve
Encoding: 728 728 170
Width: 322
VWidth: 999
Flags: W
HStem: 638.937 46.9375<75.1574 247.663> 715 20G<16.7445 44.9434 277.877 306.076>
VStem: 15 292.82
LayerCount: 2
Fore
SplineSet
161.41015625 638.936523438 m 0
 58.8579610684 638.936523438 15 713.762695312 15 713.762695312 c 5
 44.943359375 735 l 1
 44.943359375 735 70.6854390078 685.874023438 161.41015625 685.874023438 c 0
 252.134873492 685.874023438 277.876953125 735 277.876953125 735 c 1
 307.8203125 713.762695312 l 5
 307.8203125 713.762695312 263.962351432 638.936523438 161.41015625 638.936523438 c 0
EndSplineSet
EndChar

StartChar: dotaccent
Encoding: 729 729 171
Width: 248
Flags: W
HStem: 652.543 86.4492<86.5703 162.43>
VStem: 81.8867 85.2266<657.294 734.241>
LayerCount: 2
Fore
SplineSet
81.88671875 695.767578125 m 0
 81.88671875 721.953745338 98.6834026649 738.9921875 124.499023438 738.9921875 c 0
 150.315728066 738.9921875 167.11328125 721.953745338 167.11328125 695.767578125 c 0
 167.11328125 669.580937819 150.315728066 652.54296875 124.499023438 652.54296875 c 0
 98.6834026646 652.54296875 81.88671875 669.580937819 81.88671875 695.767578125 c 0
EndSplineSet
EndChar

StartChar: tilde
Encoding: 732 732 172
Width: 371
VWidth: 999
Flags: W
HStem: 656.364 46.9375<199.581 332.311> 704.934 46.0684<42.4823 171.932> 712.364 20G<340.457 355.182>
LayerCount: 2
Fore
SplineSet
366.400390625 697.126953125 m 1xa0
 366.400390625 697.126953125 327.183893129 656.364257812 266.725585938 656.364257812 c 4
 183.856613926 656.364257812 166.920722796 704.93359375 106.413085938 704.93359375 c 0
 62.3859403694 704.93359375 26.46875 671.395507812 26.46875 671.395507812 c 1
 5 708.876953125 l 1
 5 708.876953125 48.3019408036 751.001953125 104.67578125 751.001953125 c 0xc0
 186.229239266 751.001953125 209.741498988 703.301757812 264.98828125 703.301757812 c 4
 314.912717903 703.301757812 340.45703125 732.364257812 340.45703125 732.364257812 c 1
 366.400390625 697.126953125 l 1xa0
EndSplineSet
EndChar

StartChar: hungarumlaut
Encoding: 733 733 173
Width: 412
Flags: W
HStem: 536 205.008
LayerCount: 2
Fore
SplineSet
255 536 m 1
 217 546 l 1
 325 741.0078125 l 5
 381 721.0078125 l 5
 255 536 l 1
65 536 m 1
 27 546 l 1
 135 741.0078125 l 5
 191 721.0078125 l 5
 65 536 l 1
EndSplineSet
EndChar

StartChar: multiply
Encoding: 215 215 174
Width: 450
Flags: W
LayerCount: 2
Fore
SplineSet
418.040039062 519.944335938 m 1
 63.0556640625 164.959960938 l 1
 31.9599609375 196.055664062 l 1
 386.944335938 551.040039062 l 1
 418.040039062 519.944335938 l 1
386.944335938 164.959960938 m 1
 31.9599609375 519.944335938 l 1
 63.0556640625 551.040039062 l 1
 418.040039062 196.055664062 l 1
 386.944335938 164.959960938 l 1
EndSplineSet
Validated: 524293
EndChar

StartChar: divide
Encoding: 247 247 175
Width: 450
Flags: W
HStem: 181.496 87.8037<186.413 263.587> 338 40<30 420> 446.7 87.8037<186.413 263.587>
VStem: 181.648 86.7031<186.321 264.474 451.526 529.679>
CounterMasks: 1 e0
LayerCount: 2
Fore
SplineSet
420 338 m 5
 30 338 l 5
 30 378 l 1
 420 378 l 1
 420 338 l 5
181.6484375 225.397460938 m 4
 181.6484375 251.99405633 198.736037677 269.299804688 224.999023438 269.299804688 c 4
 251.263084951 269.299804688 268.3515625 251.99405633 268.3515625 225.397460938 c 4
 268.3515625 198.801147595 251.263084951 181.49609375 224.999023438 181.49609375 c 4
 198.736037677 181.49609375 181.6484375 198.801147595 181.6484375 225.397460938 c 4
181.6484375 490.602539062 m 0
 181.6484375 517.198341418 198.736037677 534.50390625 224.999023438 534.50390625 c 0
 251.263084951 534.50390625 268.3515625 517.198341418 268.3515625 490.602539062 c 0
 268.3515625 464.005432678 251.263084951 446.700195312 224.999023438 446.700195312 c 0
 198.736037677 446.700195312 181.6484375 464.005432678 181.6484375 490.602539062 c 0
EndSplineSet
Validated: 524289
EndChar

StartChar: AE
Encoding: 198 198 176
Width: 1024
Flags: W
HStem: 0 46<569 974> 179 44<222 541> 347 46<550 914> 685.008 46<569 974>
VStem: 525 16<179 223> 550 19<347 393>
AnchorPoint: "Anchor-0" 592 731 basechar 0
LayerCount: 2
Fore
SplineSet
914 347 m 1
 550 347 l 1
 550 393 l 1
 914 393 l 1
 914 347 l 1
569 685.0078125 m 1
 569 46 l 1
 974 46 l 1
 974 0 l 1
 525 0 l 1
 525 731.0078125 l 1
 974 731.0078125 l 1
 974 685.0078125 l 1
 569 685.0078125 l 1
541 179 m 1
 172 179 l 1
 222 223 l 1
 541 223 l 1
 541 179 l 1
556 731.0078125 m 1
 556 707 l 1
 79 0 l 5
 25 0 l 1
 525 731.0078125 l 1
 556 731.0078125 l 1
EndSplineSet
EndChar

StartChar: ae
Encoding: 230 230 177
Width: 872
Flags: W
HStem: -9.99805 42.4619<529.985 769.84> -9.99805 43.4619<135.751 311.995> 232 42<390 784> 246.284 43.6494<190.403 397.777> 469.011 42<111.95 313.803> 469.284 41.6494<515.805 698.46>
VStem: 45 51.8486<68.3823 190.643> 373.929 40<98.1811 155.15 158 406.205> 390 30.8486<232 274> 785 42.4658<253.01 380.429>
AnchorPoint: "Anchor-0" 417 501.011 basechar 0
LayerCount: 2
Fore
SplineSet
373.928710938 177.561523438 m 1x5340
 416 152 l 1
 399.695750248 39.9064423263 336.027783821 -9.998046875 217.888671875 -9.998046875 c 0
 106.888483022 -9.998046875 45 44.8345384227 45 128 c 0
 45 267.679468644 192.008322568 289.80347623 397.928710938 289.93359375 c 1
 397.77734375 246.284179688 l 1
 142.553878477 246.105242628 96.8486328125 203.436965851 96.8486328125 127.561523438 c 0
 96.8486328125 65.1452146435 145.441399551 33.4638671875 224.888671875 33.4638671875 c 0
 313.729817839 33.4638671875 373.928710938 80.7520425994 373.928710938 177.561523438 c 1x5340
413.928710938 158 m 1
 373.928710938 165 l 1
 373.928710938 330.010742188 l 2
 373.928710938 427.145224292 311.00880698 469.010742188 225.928710938 469.010742188 c 0
 146.603124999 469.010742188 89.9287109375 439.010742188 89.9287109375 439.010742188 c 1
 78.9287109375 477.010742188 l 1
 78.9287109375 477.010742188 134.121548171 511.010742188 233 511.010742188 c 0x0b40
 340.053002765 511.010742188 413.928710938 442.926207049 413.928710938 340.010742188 c 2
 413.928710938 158 l 1
EndSplineSet
Refer: 43 101 N 1 0 0 1 321 0 2
EndChar

StartChar: Eth
Encoding: 208 208 178
Width: 789
Flags: W
HStem: 0 44.3516<186 495.864> 339 43<40 424> 686.649 44.3584<186 492.196>
VStem: 137 49<44.3516 686.649> 684.929 49.8486<225.272 503.916>
LayerCount: 2
Fore
SplineSet
424 339 m 1
 40 339 l 1
 40 382 l 5
 424 382 l 5
 424 339 l 1
EndSplineSet
Refer: 5 68 N 1 0 0 1 62 0 2
EndChar

StartChar: eth
Encoding: 240 240 179
Width: 588
Flags: W
HStem: -9.99805 41.4619<200.921 387.375> 469.284 41.6494<198.188 394.817>
VStem: 58.0713 42.8486<138.726 365.4> 495 43.8486<142.273 441.784>
LayerCount: 2
Fore
SplineSet
191.078125 596.658203125 m 1
 517.991210938 690.080078125 l 1
 529.170898438 648.467773438 l 1
 202.256835938 555.044921875 l 1
 191.078125 596.658203125 l 1
495 251.561523438 m 0
 495 522.476913445 382.083735305 652.587726704 272.93359375 744.548828125 c 1
 308.827148438 771.274414062 l 1
 308.827148438 771.274414062 538.848632812 601 538.848632812 279 c 0
 538.848632812 93.8330078125 446.74884496 -9.998046875 296.959960938 -9.998046875 c 0
 148.461719113 -9.998046875 58.0712890625 94.0830078121 58.0712890625 253.561523438 c 0
 58.0712890625 409.295898438 143.042936801 510.93359375 291 510.93359375 c 0
 433.112069405 510.93359375 533.848632812 427.548166205 533.848632812 291.561523438 c 5
 495 273.561523438 l 1
 495 388.61932779 425.700115587 469.284179688 295.848632812 469.284179688 c 0
 159.299157833 469.284179688 100.919921875 382.920004359 100.919921875 253.561523438 c 0
 100.919921875 120.380661358 159.63238352 31.4638671875 296.959960938 31.4638671875 c 0
 439.726421292 31.4638671875 495 140.240360637 495 251.561523438 c 0
EndSplineSet
EndChar

StartChar: Thorn
Encoding: 222 222 180
Width: 650
Flags: W
HStem: 0 21G<75 124> 154 51.3516<104 455.274> 545.649 51.3584<105 452.881> 711.008 20G<75 124>
VStem: 75 49<0 154 205.352 545.649 597.008 731.008> 105 19<154 205.352 545.649 597.008> 542.929 52.8486<282.207 467.392>
LayerCount: 2
Fore
SplineSet
75 0 m 1xfa
 75 731.0078125 l 1
 124 731.0078125 l 1
 124 0 l 1
 75 0 l 1xfa
104 154 m 1
 104 205.3515625 l 1
 319.888671875 205.461914062 l 2
 447.579418536 205.527183228 542.928710938 235.867885707 542.928710938 374.561523438 c 0
 542.928710938 513.577419387 447.565250037 545.484394401 319.888671875 545.545898438 c 2
 105 545.649414062 l 1
 105 597.0078125 l 1xf6
 338.888671875 597.0078125 l 2
 474.05048035 597.0078125 595.77734375 536.424889558 595.77734375 374.561523438 c 0
 595.77734375 213.240207598 483.259109269 154 338.888671875 154 c 2
 104 154 l 1
EndSplineSet
Validated: 524293
EndChar

StartChar: thorn
Encoding: 254 254 181
Width: 602
Flags: W
HStem: -9.99805 41.4619<220.955 408.848> 470.284 40.6494<223.661 410.102> 731.002 20G<77 122>
VStem: 77 45<-180 751.002> 89.1514 32.8486<283.562 389.377> 104.151 17.8486<66.4395 183.562> 504.08 44.8486<133.477 370.783>
LayerCount: 2
Fore
SplineSet
77 -180 m 1xf2
 77 751.001953125 l 1
 122 751.001953125 l 1
 122 -180 l 1
 77 -180 l 1xf2
122 213.561523438 m 1
 122 124.844348937 180.71205465 31.4638671875 318.040039062 31.4638671875 c 0
 448.361441938 31.4638671875 504.080078125 120.37938092 504.080078125 253.561523438 c 0
 504.080078125 383.519656167 448.396253843 470.284179688 318.151367188 470.284179688 c 0
 200.74714221 470.284179688 122 395.530705383 122 283.561523438 c 1xf2
 89.1513671875 283.561523438 l 1xea
 89.1513671875 425.747070312 182.000407039 510.93359375 325 510.93359375 c 0
 467.240234375 510.93359375 548.928710938 409.295898438 548.928710938 253.561523438 c 0
 548.928710938 94.0830078121 463.45703125 -9.998046875 323.040039062 -9.998046875 c 4
 186.974534089 -9.998046875 104.151367188 66.4394531246 104.151367188 183.561523438 c 1xe6
 122 213.561523438 l 1
EndSplineSet
Validated: 524293
EndChar

StartChar: kgreenlandic
Encoding: 312 312 182
Width: 555
Flags: W
HStem: 0 21G<77 122 452.343 535> 233 46<89 243> 481.011 20G<77 122 440.451 525>
VStem: 77 45<0 233 279 501.011> 89 33<233 279>
LayerCount: 2
Fore
SplineSet
243 279 m 1xe8
 243 233 l 1
 89 233 l 1
 89 279 l 1
 243 279 l 1xe8
472 0 m 1
 243 233 l 1
 243 279 l 1
 460 501.010742188 l 1
 525 501.010742188 l 1
 285 255 l 1
 535 0 l 1
 472 0 l 1
77 0 m 1xf0
 77 501.010742188 l 1
 122 501.010742188 l 5
 122 0 l 5
 77 0 l 1xf0
EndSplineSet
Validated: 524293
EndChar

StartChar: Eng
Encoding: 330 330 183
Width: 719
Flags: W
HStem: -189.994 46<362.434 554.735> 0 21G<75 124> 711.008 20G<75 144.255 595 644>
VStem: 75 49<0 655.005> 595 49<-99.6249 -7.33691 78.5996 731.008>
LayerCount: 2
Back
SplineSet
75 0 m 5
 75 731.0078125 l 5
 208 731.0078125 l 5
 517 228.599609375 l 5
 517 731.0078125 l 5
 644 731.0078125 l 5
 644 0 l 5
 511 0 l 5
 202 515.004882812 l 5
 202 0 l 5
 75 0 l 5
EndSplineSet
Fore
SplineSet
75 0 m 1
 75 731.0078125 l 1
 130 731.0078125 l 1
 595 78.599609375 l 1
 595 731.0078125 l 1
 644 731.0078125 l 1
 644 -3 l 2
 644 -125.529296875 596.224137931 -189.994140625 481 -189.994140625 c 0
 402.939351664 -189.994140625 357 -168.994140625 357 -168.994140625 c 1
 367 -125.994140625 l 5
 367 -125.994140625 413.255906326 -143.994140625 478 -143.994140625 c 4
 548.850128348 -143.994140625 593.4765625 -113.095589697 593.4765625 -7.3369140625 c 1
 124 655.004882812 l 1
 124 0 l 1
 75 0 l 1
EndSplineSet
Substitution2: "'ss06' Style Set 6 lookup 7-1" Eng.ss06
EndChar

StartChar: eng
Encoding: 331 331 184
Width: 595
Flags: W
HStem: -189.994 42<279.293 441.686> 0 21G<77 122> 465.284 45.6494<221.069 416.479> 481.011 20G<77 122>
VStem: 77 45<0 501.011> 483.777 45<-103.08 389.765>
LayerCount: 2
Fore
SplineSet
77 0 m 1xdc
 77 501.010742188 l 1
 122 501.010742188 l 1
 122 0 l 1
 77 0 l 1xdc
122 284 m 1
 87 293.561523438 l 1
 113.399687322 444 196.999117713 510.93359375 332 510.93359375 c 0
 461.949232852 510.93359375 528.77734375 437.606197646 528.77734375 284.561523438 c 2
 528.77734375 -9 l 2
 528.77734375 -117.937600252 481.880928775 -189.994140625 368.77734375 -189.994140625 c 4
 312.619441106 -189.994140625 273.77734375 -171.994140625 273.77734375 -171.994140625 c 1
 283.77734375 -132.994140625 l 1
 283.77734375 -132.994140625 317.94868164 -147.994140625 365.77734375 -147.994140625 c 4
 448.855099239 -147.994140625 483.77734375 -105.223056288 483.77734375 -5.994140625 c 2
 483.77734375 267.561523438 l 2
 483.77734375 413 434.652132991 465.284179688 319 465.284179688 c 0xec
 202.000348351 465.284179688 122 392.707695874 122 284 c 1
EndSplineSet
EndChar

StartChar: OE
Encoding: 338 338 185
Width: 991
Flags: W
HStem: 0 45.4619<299.842 532.777> 0 46<541 946> 347 46<517 886> 685.008 46<541 946> 685.546 45.4619<299.38 532.777>
VStem: 65 47.8486<230.53 498.636> 517 24<347 393>
LayerCount: 2
Fore
SplineSet
532.77734375 45.3515625 m 1xae
 532.77734375 0 l 1
 428.888671875 0 l 2
 238.550019579 0 65 97.9169921873 65 364.561523438 c 0
 65 631.206054688 237.429446776 731.0078125 428.888671875 731.0078125 c 2
 532.77734375 731.0078125 l 1
 532.77734375 685.649414062 l 1
 448.888671875 685.545898438 l 2
 287.144580404 685.350469561 112.848632812 625.531131947 112.848632812 364.561523438 c 4
 112.848632812 102.840401374 287.14458083 45.6702486194 448.888671875 45.4619140625 c 2
 532.77734375 45.3515625 l 1xae
EndSplineSet
Refer: 10 69 N 1 0 0 1 417 0 2
EndChar

StartChar: oe
Encoding: 339 339 186
Width: 920
Flags: W
HStem: -9.99805 41.4619<194.997 359.414 602.32 815.942> 232 42<468 832> 469.284 41.6494<195.025 359.442 585.505 754.539>
VStem: 55 45.8486<136.419 367.64> 454 44.8486<238.555 268.816> 468 26.7773<238.774 268.002> 833 42.4658<253.01 384.613>
LayerCount: 2
Fore
SplineSet
100.848632812 253.561523438 m 0xf2
 100.848632812 120.379882812 163.589073242 31.4638671875 278.888671875 31.4638671875 c 0
 389.101684511 31.4638671875 448.928710938 120.379882812 448.928710938 253.561523438 c 0
 448.928710938 382.919921875 389.135652871 469.284179688 279 469.284179688 c 0
 163.622744526 469.284179688 100.848632812 382.919921875 100.848632812 253.561523438 c 0xf2
55 253.561523438 m 0
 55 409.295898438 139.714929437 510.93359375 278.888671875 510.93359375 c 0
 413.08938336 510.93359375 494.77734375 409.295898438 494.77734375 253.561523438 c 0xf6
 494.77734375 94.0830078125 413.08938336 -9.998046875 278.888671875 -9.998046875 c 0
 139.714929437 -9.998046875 55 94.0830078125 55 253.561523438 c 0
454 253.561523438 m 0xfa
 454 409.295898438 536.444436412 510.93359375 671.888671875 510.93359375 c 4
 826.88427941 510.93359375 875.465820312 380.849609375 875.465820312 287.7109375 c 0
 875.465820312 253.317382812 871 232 871 232 c 1
 468 232 l 1
 468 274 l 1xf6
 832 274 l 1
 832 274 833 278.717773438 833 289 c 0
 833 383.20703125 784.715869968 469.284179688 671 469.284179688 c 4
 550.406998477 469.284179688 498.848632812 382.120117188 498.848632812 251.561523438 c 0
 498.848632812 108.389648438 564.417167793 32.4638671875 706 32.4638671875 c 4
 788.185191147 32.4638671875 835.018554688 60.595703125 835.018554688 60.595703125 c 1
 845.827148438 18.595703125 l 1
 845.827148438 18.595703125 795.429650909 -9.998046875 707.888671875 -9.998046875 c 4
 532.489701997 -9.998046875 454 94.0830078125 454 253.561523438 c 0xfa
EndSplineSet
EndChar

StartChar: longs
Encoding: 383 383 187
Width: 269
Flags: W
HStem: 0 21G<112 157> 722.011 39<196.926 347.512>
VStem: 112 45<0 683.399>
AnchorPoint: "Anchor-0" 256 752.002 basechar 0
LayerCount: 2
Fore
SplineSet
157 587.010742188 m 6
 157 0 l 5
 112 0 l 5
 112 600.010742188 l 6
 112 696.915811109 155.965389039 761.010742188 262 761.010742188 c 4
 315.202223558 761.010742188 352 745.010742188 352 745.010742188 c 5
 344 707.010742188 l 5
 344 707.010742188 312.329003906 722.010742188 268 722.010742188 c 4
 189.850585937 722.010742188 157 681.347482341 157 587.010742188 c 6
EndSplineSet
EndChar

StartChar: uni018F
Encoding: 399 399 188
Width: 765
Flags: W
HStem: -9.99805 48.4619<254.809 499.273> 354.123 44<99.1084 691.108> 693.659 45.4619<183.561 476.793>
VStem: 50 48<201.465 353.431> 668.26 24.8486<354.123 398.123>
LayerCount: 2
Back
SplineSet
35 364.561523438 m 0
 35 591.206054688 163.541887394 739.12109375 389.888671875 739.12109375 c 0
 653.541980974 739.12109375 740.108398438 551.971330386 740.108398438 365.891601562 c 0
 740.108398438 303.039520695 732 284 732 284 c 1
 162 284 l 1
 160 424 l 1
 562 424 l 1
 562 424 560.13712938 586.659179688 391 586.659179688 c 0
 261.796380576 586.659179688 205.848632812 497.743164062 205.848632812 364.561523438 c 4
 205.848632812 231.379882812 273.845797251 142.463867188 432.888671875 142.463867188 c 0
 580.720714467 142.463867188 659.018554688 179.595703125 659.018554688 179.595703125 c 1
 682.827148438 32.595703125 l 1
 682.827148438 32.595703125 604.343305548 -9.998046875 425.888671875 -9.998046875 c 0
 176.581210181 -9.998046875 35 137.916992188 35 364.561523438 c 0
EndSplineSet
Fore
SplineSet
715.108398438 364.561523438 m 0
 715.108398438 137.916992187 593.810579258 -9.998046875 380.219726562 -9.998046875 c 0
 131.622868548 -9.998046875 50 162.108712068 50 333.231445312 c 0
 50 374.009656889 58.1083984375 398.123046875 58.1083984375 398.123046875 c 1
 691.108398438 398.123046875 l 1
 693.108398438 354.123046875 l 1
 99.1083984375 354.123046875 l 5
 99.1083984375 354.123046875 98 349.492565764 98 333 c 4
 98 179.676390611 167.085433893 38.4638671875 378.108398438 38.4638671875 c 0
 575.566316222 38.4638671875 668.259765625 169.015917072 668.259765625 364.561523438 c 0
 668.259765625 561.906090351 560.912174087 693.659179688 343.219726562 693.659179688 c 0
 199.96392257 693.659179688 124.08984375 647.52734375 124.08984375 647.52734375 c 1
 107.28125 692.52734375 l 1
 107.28125 692.52734375 179.655938361 739.12109375 344.219726562 739.12109375 c 0
 580.77125647 739.12109375 715.108398438 591.206054687 715.108398438 364.561523438 c 0
EndSplineSet
EndChar

StartChar: florin
Encoding: 402 402 190
Width: 398
Flags: W
HStem: -190.011 41<-31.7463 118.496> 459 42.0107<34 362> 718.011 43<234.089 387.341>
VStem: 152 45<-114.932 680.292>
LayerCount: 2
Fore
SplineSet
34 501.010742188 m 1
 362 501.010742188 l 1
 362 459 l 1
 34 459 l 1
 34 501.010742188 l 1
152 -20.0107421875 m 2
 152 600.010742188 l 2
 152 696.915811109 195.965389039 761.010742188 302 761.010742188 c 0
 355.202223558 761.010742188 392 745.010742188 392 745.010742188 c 1
 384 703.010742188 l 1
 384 703.010742188 352.329003906 718.010742188 308 718.010742188 c 0
 229.850585937 718.010742188 197 678.55231967 197 587.010742188 c 2
 197 -19.0107421875 l 2
 197 -121.934912804 158.017241379 -190.010742188 64 -190.010742188 c 4
 3.70413729039 -190.010742188 -38 -171.010742188 -38 -171.010742188 c 1
 -26 -130.010742188 l 1
 -26 -130.010742188 7.3375901442 -149.010742188 54 -149.010742188 c 0
 122.997167969 -149.010742188 152 -110.155320501 152 -20.0107421875 c 2
EndSplineSet
EndChar

StartChar: uni01B7
Encoding: 439 439 191
Width: 584
Flags: W
HStem: -9.99805 44.9375<97.6458 386.34> 365.737 44.2627<247 404.253> 685 46<50 438>
VStem: 488.827 46.084<124.596 297.921>
AnchorPoint: "Anchor-0" 289 731 basechar 0
LayerCount: 2
Fore
SplineSet
247 410 m 1
 437.387289755 410 534.911132812 359.04663516 534.911132812 216.670898438 c 0
 534.911132812 54.8275574441 421.016355364 -9.998046875 250 -9.998046875 c 0
 109.204711624 -9.998046875 25.451171875 38.9091796875 25.451171875 38.9091796875 c 1
 39.7744140625 79.2626953125 l 1
 39.7744140625 79.2626953125 120.062470447 34.939453125 246 34.939453125 c 0
 413.978086596 34.939453125 488.827148438 93.9560688719 488.827148438 219.670898438 c 0
 488.827148438 321.14778517 414.893655301 365.357300024 273.138671875 365.737304688 c 2
 174 366 l 1
 174 400 l 1
 438 685 l 5
 50 685 l 1
 50 731 l 1
 504 731 l 5
 504 689 l 5
 247 410 l 1
EndSplineSet
EndChar

StartChar: uni0292
Encoding: 658 658 192
Width: 524
Flags: W
HStem: -189.994 47.9375<73.6026 331.077> 151.741 45.2588<234 352.905> 456.011 45<44 403>
VStem: 424.827 50.084<-62.6079 91.1898>
AnchorPoint: "Anchor-0" 260 501.011 basechar 0
LayerCount: 2
Fore
SplineSet
234 197 m 1
 370.014568262 197 474.911132812 142.058139535 474.911132812 22 c 0
 474.911132812 -124.882543867 369.011464318 -189.994140625 210 -189.994140625 c 0
 100.555418183 -189.994140625 35.451171875 -159.086914062 35.451171875 -159.086914062 c 1
 49.7744140625 -110.733398438 l 1
 49.7744140625 -110.733398438 109.428430451 -142.056640625 203 -142.056640625 c 0
 356.451128465 -142.056640625 424.827148438 -78.1733007046 424.827148438 16 c 0
 424.827148438 114.077462451 355.691651766 151.195665859 223.138671875 151.741210938 c 2
 154 152.00390625 l 1
 154 178.00390625 l 1
 403 456.010742188 l 5
 44 456.010742188 l 1
 44 501.010742188 l 1
 464 501.010742188 l 1
 464 460.010742188 l 1
 234 197 l 1
EndSplineSet
EndChar

StartChar: Oslash
Encoding: 216 216 193
Width: 797
Flags: W
HStem: -9.99805 48.4619<278.711 519.067> 690.659 48.4619<278.711 519.067>
VStem: 55 49.8486<225.787 503.336> 692.929 49.8486<225.787 503.336>
AnchorPoint: "Anchor-0" 399 731 basechar 0
AnchorPoint: "Anchor-2" 398 0 basechar 0
AnchorPoint: "Anchor-3" 451 20 basechar 0
LayerCount: 2
Fore
SplineSet
181.5 -91.4697265625 m 1
 566.5 801.403320312 l 1
 615.5 801.403320312 l 5
 230.5 -91.4697265625 l 5
 181.5 -91.4697265625 l 1
EndSplineSet
Refer: 1 79 N 1 0 0 1 0 0 2
EndChar

StartChar: oslash
Encoding: 248 248 194
Width: 589
Flags: W
HStem: -9.99805 41.4619<203.647 385.001> 469.284 41.6494<203.675 387.877>
VStem: 55 45.8486<138.726 365.4> 488.929 45.8486<138.726 365.4>
AnchorPoint: "Anchor-3" 357 18 basechar 0
AnchorPoint: "Anchor-2" 294 0 basechar 0
AnchorPoint: "Anchor-0" 294 501.011 basechar 0
LayerCount: 2
Fore
SplineSet
91.5 -91.4697265625 m 1
 452.5 581.403320312 l 1
 497.5 581.403320312 l 1
 136.5 -91.4697265625 l 1
 91.5 -91.4697265625 l 1
EndSplineSet
Refer: 29 111 N 1 0 0 1 0 0 2
EndChar

StartChar: ring
Encoding: 730 730 197
Width: 355
Flags: W
HStem: 530.07 36.8965<126.508 229.733> 723.918 37.084<125.268 229.747>
VStem: 65 39.9531<586.441 704.816> 250.824 39.9531<587.685 704.816>
LayerCount: 2
Fore
SplineSet
104.953125 647.396484375 m 0
 104.953125 599.166885329 126.530007541 566.966796875 176.99609375 566.966796875 c 4
 228.712994283 566.966796875 250.82421875 599.166885329 250.82421875 647.396484375 c 0
 250.82421875 693.282857413 228.742838196 723.91796875 177.094726562 723.91796875 c 0
 126.559854332 723.91796875 104.953125 693.282857413 104.953125 647.396484375 c 0
65 647.629882812 m 0
 65 716.231117543 107.336286517 761.001953125 176.888671875 761.001953125 c 0
 247.68425148 761.001953125 290.77734375 716.231117543 290.77734375 647.629882812 c 0
 290.77734375 576.49521511 247.68425148 530.0703125 176.888671875 530.0703125 c 4
 107.336286517 530.0703125 65 576.49521511 65 647.629882812 c 0
EndSplineSet
EndChar

StartChar: ogonek
Encoding: 731 731 198
Width: 307
VWidth: 999
Flags: W
HStem: -240 40<116.639 267.607>
VStem: 50 45<-180.395 -53.648>
LayerCount: 2
Fore
SplineSet
50 -130 m 4
 50 -30.5220125786 148 39 148 39 c 1
 198 39 l 1
 198 39 95 -38.6496815286 95 -128 c 4
 95 -179.76434949 129.066476004 -200 189 -200 c 4
 241.413661859 -200 265 -179 265 -179 c 5
 277 -217 l 5
 277 -217 244.426287616 -240 179 -240 c 4
 99.5662817214 -240 50 -200.865017361 50 -130 c 4
EndSplineSet
EndChar

StartChar: minute
Encoding: 8242 8242 203
Width: 235
Flags: W
HStem: 456 275.008
VStem: 137 53<712.674 731.008>
LayerCount: 2
Fore
SplineSet
47 456 m 1
 137 731.0078125 l 1
 190 731.0078125 l 1
 85 456 l 5
 47 456 l 1
EndSplineSet
EndChar

StartChar: bullet
Encoding: 8226 8226 206
Width: 325
Flags: W
HStem: 250 226.449<92.6443 232.581>
VStem: 50 225.227<292.876 433.573>
LayerCount: 2
Fore
SplineSet
50 363.224609375 m 0
 50 431.817406607 94.3894466578 476.44921875 162.612304688 476.44921875 c 0
 230.836094646 476.44921875 275.2265625 431.817406607 275.2265625 363.224609375 c 0
 275.2265625 294.630626073 230.836094646 250 162.612304688 250 c 4
 94.3894466578 250 50 294.630626073 50 363.224609375 c 0
EndSplineSet
Validated: 1
EndChar

StartChar: dagger
Encoding: 8224 8224 207
Width: 530
Flags: W
HStem: 410.011 41<30 500>
VStem: 245.5 39<8.07119 759.47>
LayerCount: 2
Fore
SplineSet
235.5 -171.469726562 m 1
 245.5 427 l 1
 240.5 759.469726562 l 1
 289.5 759.469726562 l 1
 284.5 426 l 1
 294.5 -171.469726562 l 1
 235.5 -171.469726562 l 1
30 410.010742188 m 5
 30 451.010742188 l 5
 500 451.010742188 l 5
 500 410.010742188 l 5
 30 410.010742188 l 5
EndSplineSet
EndChar

StartChar: daggerdbl
Encoding: 8225 8225 208
Width: 530
Flags: W
HStem: 120.011 41<30 500> 460.011 41<30 500>
VStem: 235.5 59<-171.47 43.7591 191 428.6 561.741 759.47> 245.5 39<-78.9288 759.47>
LayerCount: 2
Fore
SplineSet
30 120.010742188 m 1xc0
 30 161.010742188 l 1
 500 161.010742188 l 1
 500 120.010742188 l 1
 30 120.010742188 l 1xc0
235.5 -171.469726562 m 1xe0
 245.5 137 l 1
 239.5 317 l 1
 245.5 477 l 1
 240.5 759.469726562 l 5
 289.5 759.469726562 l 1
 284.5 476 l 1
 290.5 318 l 1
 284.5 136 l 1xd0
 294.5 -171.469726562 l 1
 235.5 -171.469726562 l 1xe0
30 460.010742188 m 1
 30 501.010742188 l 1
 500 501.010742188 l 1
 500 460.010742188 l 1
 30 460.010742188 l 1
EndSplineSet
EndChar

StartChar: uni2116
Encoding: 8470 8470 209
Width: 1126
Flags: W
HStem: 0 21G<75 124 574.802 644> 273 43<742 1064> 398.061 44.5264<836.458 978.589> 694.278 44.7139<836.48 978.611> 711.008 20G<75 144.255 595 644>
VStem: 75 49<0 655.005> 595 49<78.5996 731.008> 748.111 47.4121<487.394 651.488> 1020.48 47.4121<487.394 651.488>
LayerCount: 2
Fore
SplineSet
742 316 m 1xe780
 1064 316 l 5
 1064 273 l 5
 742 273 l 1
 742 316 l 1xe780
795.5234375 570.844726562 m 0
 795.5234375 493.935029867 830.715198332 442.586914062 906.897460938 442.586914062 c 0
 984.621921189 442.586914062 1020.4765625 493.935029867 1020.4765625 570.844726562 c 4
 1020.4765625 644.862108409 984.659402001 694.278320312 907.020507812 694.278320312 c 0xf780
 830.752691087 694.278320312 795.5234375 644.862108409 795.5234375 570.844726562 c 0
748.111328125 570.620117188 m 0
 748.111328125 672.501752458 808.231411992 738.9921875 907 738.9921875 c 0
 1007.01176227 738.9921875 1067.88867188 672.501752458 1067.88867188 570.620117188 c 4
 1067.88867188 466.20524343 1007.01176227 398.060546875 907 398.060546875 c 0
 808.231411992 398.060546875 748.111328125 466.20524343 748.111328125 570.620117188 c 0
EndSplineSet
Refer: 11 78 N 1 0 0 1 0 0 2
EndChar

StartChar: uni20BF
Encoding: 8383 8383 210
Width: 640
Flags: W
HStem: -105 134.47<190 239 370 419> 0 44.46<119 459.868> 344.656 41.6953<94 431.765> 686.649 44.3584<119 432.204> 695 134.47<190 239 370 419>
VStem: 94 25<344.656 386.352> 190 49<-105 29.4697 695 829.47> 370 49<-105 29.4697 695 829.47> 521.929 44.8486<457.195 614.961> 544.929 44.8486<114.871 276.33>
LayerCount: 2
Fore
SplineSet
370 -105 m 5xa7
 370 29.4697265625 l 5
 419 29.4697265625 l 5
 419 -105 l 5
 370 -105 l 5xa7
370 695 m 5x2f
 370 829.469726562 l 5
 419 829.469726562 l 5
 419 695 l 5
 370 695 l 5x2f
190 -105 m 1xa7
 190 29.4697265625 l 1
 239 29.4697265625 l 1
 239 -105 l 1
 190 -105 l 1xa7
190 695 m 1x2f
 190 829.469726562 l 1
 239 829.469726562 l 1
 239 695 l 1
 190 695 l 1x2f
EndSplineSet
Refer: 19 66 N 1 0 0 1 0 0 2
EndChar

StartChar: uni20A6
Encoding: 8358 8358 211
Width: 874
Flags: W
HStem: 0 21G<163 210 647.436 718> 275 51<50 184 690 824> 408 51<50 184 690 824> 711.008 20G<163 233.617 671 718>
VStem: 50 160<275 326 408 459> 163 47<0 275 326 408 459 665.005> 163 21<275 326 408 459> 671 153<275 326 408 459> 671 47<68.5996 275 326 408 459 731.008> 690 28<275 326 408 459>
LayerCount: 2
Fore
SplineSet
824 275 m 1xf1
 690 275 l 1
 690 326 l 1xf040
 824 326 l 1
 824 275 l 1xf1
824 408 m 1xf1
 690 408 l 1
 690 459 l 1xf040
 824 459 l 1
 824 408 l 1xf1
184 275 m 5xf2
 50 275 l 5
 50 326 l 5xf8
 184 326 l 5
 184 275 l 5xf2
184 408 m 5xf2
 50 408 l 5
 50 459 l 5xf8
 184 459 l 5
 184 408 l 5xf2
163 0 m 1xf440
 163 731.0078125 l 1
 220 731.0078125 l 1
 671 68.599609375 l 1
 671 731.0078125 l 1
 718 731.0078125 l 1xf280
 718 0 l 1
 661 0 l 1
 210 665.004882812 l 1
 210 0 l 1
 163 0 l 1xf440
EndSplineSet
EndChar

StartChar: uni20BD
Encoding: 8381 8381 212
Width: 703
Flags: W
HStem: 0 21G<151 200> 178.352 46<30 544> 318.352 48<30 521.857> 683.649 47.3584<200 505.501>
VStem: 151 49<0 683.649> 598.929 49.8486<432.187 603.565>
LayerCount: 2
Fore
SplineSet
544 178.3515625 m 1
 30 178.3515625 l 1
 30 224.3515625 l 1
 544 224.3515625 l 1
 544 178.3515625 l 1
30 318.3515625 m 1
 30 366.3515625 l 1
 392.888671875 366.461914062 l 2
 510.846539304 366.627729363 598.928710938 396.630499468 598.928710938 517.561523438 c 4
 598.928710938 649.51209469 498.021531305 683.376570739 362.888671875 683.545898438 c 2
 200 683.649414062 l 1
 200 0 l 1
 151 0 l 1
 151 731.0078125 l 1
 364.888671875 731.0078125 l 2
 547.502929688 731.0078125 648.77734375 667.95890246 648.77734375 517.561523438 c 0
 648.77734375 388.702748086 557.397460938 318.3515625 403 318.3515625 c 2
 30 318.3515625 l 1
EndSplineSet
EndChar

StartChar: dong
Encoding: 8363 8363 213
Width: 645
Flags: W
HStem: 0 51<40 584> 130.002 50.6494<215.136 407.311> 519.472 48.4619<217.646 405.972> 626 47<311 595> 731.002 20G<478 533>
VStem: 91.0713 49.8486<254.801 442.534> 478 55<335.374 751.002> 478 47.8486<377.374 488.656>
LayerCount: 2
Fore
SplineSet
584 0 m 1xfc
 40 0 l 1
 40 51 l 1
 584 51 l 1
 584 0 l 1xfc
595 626 m 1
 311 626 l 1
 311 673 l 1
 595 673 l 1
 595 626 l 1
533 140 m 5xfe
 478 140 l 5xfd
 478 751.001953125 l 5
 533 751.001953125 l 5
 533 140 l 5xfe
478 375.374023438 m 5xfe
 478 445.577954659 433.503364592 519.471679688 306.959960938 519.471679688 c 0
 197.03602282 519.471679688 140.919921875 450.574113537 140.919921875 347.374023438 c 0
 140.919921875 247.397942291 197.004685123 180.651367188 306.848632812 180.651367188 c 0
 433.464386111 180.651367188 478 242.594634547 478 335.374023438 c 5xfe
 520.848632812 347.374023438 l 5
 520.848632812 217.6953125 443.587171865 130.001953125 295 130.001953125 c 0
 155.463867188 130.001953125 91.0712890625 221.894531249 91.0712890625 347.374023438 c 0
 91.0712890625 476.597656249 161.975585938 567.93359375 299.959960938 567.93359375 c 0
 454.199615923 567.93359375 525.848632812 488.656329029 525.848632812 377.374023438 c 5xfd
 478 375.374023438 l 5xfe
EndSplineSet
EndChar

StartChar: uni1E9E
Encoding: 7838 7838 220
Width: 743
Flags: W
HStem: -10 45.124<357.989 572.377> 0 21G<75 124> 353 42<421 562.735> 686.008 45<209.866 591>
VStem: 75 49<0 605.168> 651 47<110.398 281.874>
LayerCount: 2
Fore
SplineSet
75 504 m 2x7c
 75 663.708074726 153.818181818 731.0078125 330 731.0078125 c 6
 655 731.0078125 l 1
 655 696.0078125 l 1
 421 395 l 1
 569.705263158 395 698 359.019323671 698 199 c 0
 698 57.8333333333 612.56097561 -10 472 -10 c 0
 371.834101329 -10 315 26 315 26 c 1
 335 68 l 1
 335 68 386.373692287 35.1240234375 472.015625 35.1240234375 c 0xbc
 581.023440829 35.1240234375 651 89.61231222 651 199 c 0
 651 305.37113402 581.893617022 353 419 353 c 2
 351 353 l 1
 351 379 l 1
 591 686.0078125 l 1
 345 686.0078125 l 6
 156.019074851 686.0078125 124 621.495814732 124 471.0078125 c 2
 124 0 l 1
 75 0 l 1
 75 504 l 2x7c
EndSplineSet
EndChar

StartChar: germandbls
Encoding: 223 223 221
Width: 725
Flags: W
HStem: -9.99805 42.9795<348.567 581.63> 0 21G<112 157> 469.904 42.0293<403.675 604.196> 722.011 39<249.053 497.487>
VStem: 112 45<0 635.924> 308.204 46.0576<311.92 427.335> 605 41.6182<498 621.734> 626.521 44.1689<73.0582 183.211>
LayerCount: 2
Fore
SplineSet
473.0625 232.336914062 m 0xbd
 340.391874272 256.187438313 308.204101562 299.002808129 308.204101562 365 c 0
 308.204101562 456.529587663 381.53053135 511.93359375 487 511.93359375 c 0
 561.800183798 511.93359375 605 498 605 498 c 5
 605 650.510980632 547.518315421 722.010742188 370 722.010742188 c 0
 196.156214039 722.010742188 157 649.713642495 157 507.010742188 c 2
 157 0 l 1
 112 0 l 1
 112 520.010742188 l 2
 112 667.185989078 175.260004979 761.010742188 361 761.010742188 c 0
 613.035479265 761.010742188 646.618164062 626.413109206 646.618164062 499 c 0x7e
 646.618164062 465.542315499 642.294921875 439.444335938 642.294921875 439.444335938 c 1
 642.294921875 439.444335938 588.716372788 469.904296875 509.743164062 469.904296875 c 0
 402.494108719 469.904296875 354.26171875 431.097894028 354.26171875 368.518554688 c 0
 354.26171875 313.234818853 385 289 497.563476562 269.692382812 c 0
 629.209123692 247.11166803 670.689453125 202.795859219 670.689453125 133.40234375 c 0
 670.689453125 45.0263222041 603.204802572 -9.998046875 476.856445312 -9.998046875 c 0
 369.224601994 -9.998046875 301 26.5625 301 26.5625 c 1
 314.314453125 68.861328125 l 1
 314.314453125 68.861328125 381.554998645 32.9814453125 463.993164062 32.9814453125 c 0
 574.099887713 32.9814453125 626.520507812 65.4188186225 626.520507812 128.336914062 c 0
 626.520507812 176.007215841 601.666213961 209.21750853 473.0625 232.336914062 c 0xbd
EndSplineSet
EndChar

StartChar: uni2113
Encoding: 8467 8467 222
Width: 619
Flags: W
HStem: -10 44.1299<289.827 506.113> 717.872 43.1299<321.105 474.217>
VStem: 143 46.2295<149.537 506.484> 519.644 43.4961<476.626 669.608>
LayerCount: 2
Fore
SplineSet
143 290.099609375 m 0
 143 600.148191607 232.282329173 761.001953125 400.400390625 761.001953125 c 0
 517.054389104 761.001953125 563.139648438 671.336863444 563.139648438 587.70703125 c 0
 563.139648438 223.716222303 30 168 30 168 c 1
 26 213 l 1
 26 213 519.643554688 259.584111928 519.643554688 583.001953125 c 4
 519.643554688 667.769494587 479.52891145 717.872070312 402.400390625 717.872070312 c 0
 252.174467435 717.872070312 189.229492188 550.378638571 189.229492188 305.875 c 0
 189.229492188 129.452172078 235.270702551 34.1298828125 397 34.1298828125 c 0
 489.842664375 34.1298828125 545.958007812 76.4248046875 545.958007812 76.4248046875 c 1
 563 42 l 1
 563 42 508.298335646 -10 387.400390625 -10 c 0
 229.529483894 -10 143 88.8153053385 143 290.099609375 c 0
EndSplineSet
EndChar

StartChar: uni20B8
Encoding: 8376 8376 223
Width: 614
Flags: W
HStem: 0 21G<282.5 331.5> 525 46<40 282.5 331.5 574> 525 16<282.5 331.5> 685 46<40 574>
VStem: 282.5 49<0 541>
LayerCount: 2
Fore
SplineSet
574 685 m 1x98
 40 685 l 1
 40 731 l 1
 574 731 l 1
 574 685 l 1x98
574 525 m 5xd8
 40 525 l 5
 40 571 l 5
 574 571 l 5
 574 525 l 5xd8
282.5 0 m 1
 282.5 541 l 5
 331.5 541 l 5xb8
 331.5 0 l 1
 282.5 0 l 1
EndSplineSet
EndChar

StartChar: uni20BC
Encoding: 8380 8380 224
Width: 839
Flags: W
HStem: 0 21G<75 124 395 444 711.777 760.777> 502.544 48.4619<272.936 562.841> 711.008 20G<395 444>
VStem: 75 49<0 354.126> 395 49<0 731.008> 711.777 49<0 354.126>
LayerCount: 2
Fore
SplineSet
417.888671875 551.005859375 m 0
 673.96125481 551.005859375 760.77734375 418.886581312 760.77734375 216.446289062 c 6
 760.77734375 0 l 1
 711.77734375 0 l 1
 711.77734375 186.446289062 l 6
 711.77734375 375.994811938 671.257310749 502.543945312 417.888671875 502.543945312 c 0
 164.520033001 502.543945312 124 375.994811938 124 186.446289062 c 6
 124 0 l 1
 75 0 l 1
 75 216.446289062 l 6
 75 418.886581312 161.81608894 551.005859375 417.888671875 551.005859375 c 0
395 0 m 1
 395 731.0078125 l 1
 444 731.0078125 l 1
 444 0 l 1
 395 0 l 1
EndSplineSet
EndChar

StartChar: Ohorn
Encoding: 416 416 225
Width: 797
Flags: W
HStem: -9.99805 48.4619<278.711 519.067> 690.659 48.4619<278.711 519.067>
VStem: 55 49.8486<225.787 503.336> 663.16 46.7598<679.571 813.507> 692.929 49.8486<225.787 503.336>
AnchorPoint: "Anchor-0" 399 731 basechar 0
AnchorPoint: "Anchor-2" 398 0 basechar 0
AnchorPoint: "Anchor-3" 471 20 basechar 0
LayerCount: 2
Fore
SplineSet
633.080078125 825.799804688 m 1xf0
 633.080078125 825.799804688 687.759765625 825.799804688 687.759765625 825.799804688 c 1
 687.759765625 825.799804688 709.919921875 795.200195312 709.919921875 738.9921875 c 0
 709.919921875 659.129089514 633.599609375 614.639648438 633.599609375 614.639648438 c 1
 608.16015625 641.360351562 l 1
 608.16015625 641.360351562 663.16015625 688 663.16015625 733.729492188 c 0
 663.16015625 790.55078125 633.080078125 825.799804688 633.080078125 825.799804688 c 1xf0
EndSplineSet
Refer: 1 79 N 1 0 0 1 0 0 2
EndChar

StartChar: ohorn
Encoding: 417 417 226
Width: 589
Flags: W
HStem: -9.99805 41.4619<203.647 385.001> 469.284 41.6494<203.675 387.877>
VStem: 55 45.8486<138.726 365.4> 483.16 46.7598<469.571 603.507> 488.929 45.8486<138.726 365.4>
AnchorPoint: "Anchor-0" 264 501.011 basechar 0
AnchorPoint: "Anchor-2" 294 0 basechar 0
AnchorPoint: "Anchor-3" 357 28 basechar 0
LayerCount: 2
Fore
SplineSet
453.080078125 615.799804688 m 1xf0
 453.080078125 615.799804688 507.759765625 615.799804688 507.759765625 615.799804688 c 1
 507.759765625 615.799804688 529.919921875 585.200195312 529.919921875 528.9921875 c 0
 529.919921875 449.129089514 453.599609375 404.639648438 453.599609375 404.639648438 c 1
 428.16015625 431.360351562 l 1
 428.16015625 431.360351562 483.16015625 478 483.16015625 523.729492188 c 0
 483.16015625 580.55078125 453.080078125 615.799804688 453.080078125 615.799804688 c 1xf0
EndSplineSet
Refer: 29 111 N 1 0 0 1 0 0 2
EndChar

StartChar: Uhorn
Encoding: 431 431 227
Width: 777
Flags: W
HStem: -9.99805 49.4619<236.685 479.093> 691 40.0078<608 671.862> 711.008 20G<75 124 591.777 640.777>
VStem: 75 49<156.12 731.008> 591.777 49<156.12 731.008> 677 50<737.751 815.713>
AnchorPoint: "Anchor-0" 362 731 basechar 0
AnchorPoint: "Anchor-2" 358 0.0117188 basechar 0
AnchorPoint: "Anchor-3" 451 18 basechar 0
LayerCount: 2
Fore
SplineSet
643.080078125 825.799804688 m 1xbc
 697.759765625 825.799804688 l 1
 697.759765625 825.799804688 727 803.495917746 727 762 c 0
 727 715.186813187 679 691 608 691 c 1xdc
 604 731.0078125 l 1
 638 731.0078125 677 732.480474404 677 770 c 0
 677 804 643.080078125 825.799804688 643.080078125 825.799804688 c 1xbc
EndSplineSet
Refer: 6 85 N 1 0 0 1 0 0 2
EndChar

StartChar: uhorn
Encoding: 432 432 228
Width: 660
Flags: W
HStem: -9.92285 45.6494<189.298 385.152> 0 21G<483.777 528.777> 461.003 40.0078<511 553.375> 481.011 20G<77 122 483.777 528.777>
VStem: 77 45<111.246 501.011> 483.777 45<207.449 501.011> 560 50<508.873 596.713>
AnchorPoint: "Anchor-0" 302 501.011 basechar 0
AnchorPoint: "Anchor-2" 302 0.0117188 basechar 0
AnchorPoint: "Anchor-3" 454 0 basechar 0
LayerCount: 2
Fore
SplineSet
517.759765625 615.799804688 m 1x1e
 572.439453125 615.799804688 l 1
 572.439453125 615.799804688 610 588.253065321 610 537.002929688 c 0
 610 486.893039577 570.067226891 461.002929688 511 461.002929688 c 1x2e
 487 501.010742188 l 1
 521 501.010742188 560 502.672238349 560 545.002929688 c 0
 560 588.140961503 517.759765625 615.799804688 517.759765625 615.799804688 c 1x1e
EndSplineSet
Refer: 50 117 N 1 0 0 1 0 0 2
EndChar

StartChar: integral
Encoding: 8747 8747 229
Width: 448
Flags: W
HStem: -190.011 104<-40.9308 85.4223> 665.011 96<312.771 440.464>
LayerCount: 2
Fore
SplineSet
115 31.9892578125 m 2
 165 570.010742188 l 2
 174.599709604 684.979719828 216.879159066 761.010742188 342 761.010742188 c 0
 407.024939904 761.010742188 452 745.010742188 452 745.010742188 c 1
 438 654.010742188 l 1
 438 654.010742188 410.496240234 665.010742188 372 665.010742188 c 0
 310.04370777 665.010742188 291.103268007 633.160827408 284 557.010742188 c 2
 234 20.9892578125 l 2
 223.364882068 -105.906604899 182.120689655 -190.010742188 57 -190.010742188 c 0
 -8.02494998095 -190.010742188 -53 -174.010742188 -53 -174.010742188 c 1
 -39 -75.0107421875 l 1
 -39 -75.0107421875 -11.496488131 -86.0107421875 27 -86.0107421875 c 0
 88.9566406249 -86.0107421875 107.28283228 -51.0507828302 115 31.9892578125 c 2
EndSplineSet
Validated: 1
EndChar

StartChar: dotlessi
Encoding: 305 305 231
Width: 269
Flags: W
HStem: 0 21G<112 157> 481.011 20G<112 157>
VStem: 112 45<0 501.011>
AnchorPoint: "Anchor-2" 137 0 basechar 0
AnchorPoint: "Anchor-3" 141 0 basechar 0
AnchorPoint: "Anchor-0" 134 501.011 basechar 0
LayerCount: 2
Fore
SplineSet
112 0 m 1
 112 501.010742188 l 1
 157 501.010742188 l 5
 157 0 l 5
 112 0 l 1
EndSplineSet
Validated: 524289
EndChar

StartChar: uni0237
Encoding: 567 567 232
Width: 269
Flags: W
HStem: -190 41<-71.7392 77.7489> 481.011 20G<112 157>
VStem: 112 45<-114.921 501.011>
AnchorPoint: "Anchor-2" 17 -179.988 basechar 0
AnchorPoint: "Anchor-0" 134 501.011 basechar 0
LayerCount: 2
Fore
SplineSet
112 -20 m 2
 112 501.010742188 l 1
 157 501.010742188 l 1
 157 -19 l 2
 157 -121.924170616 118.896551724 -190 27 -190 c 0
 -35.0692704363 -190 -78 -171 -78 -171 c 1
 -66 -130 l 5
 -66 -130 -32.6624098557 -149 14 -149 c 0
 82.9971679687 -149 112 -110.144578313 112 -20 c 2
EndSplineSet
Validated: 524289
EndChar

StartChar: uni20B3
Encoding: 8371 8371 233
Width: 824
Flags: W
HStem: 0 21G<77.5 138.402 684.349 746.5> 159 46<50 774> 289 46<80 744> 711.008 20G<378.532 434.769>
LayerCount: 2
Fore
SplineSet
426 731.0078125 m 1
 746.5 0 l 1
 693 0 l 1
 407.393554688 660.313476562 l 1
 130 0 l 1
 77.5 0 l 1
 387 731.0078125 l 1
 426 731.0078125 l 1
744 289 m 1
 80 289 l 1
 80 335 l 1
 744 335 l 1
 744 289 l 1
774 159 m 1
 50 159 l 1
 50 205 l 1
 774 205 l 1
 774 159 l 1
EndSplineSet
EndChar

StartChar: hookabovecomb
Encoding: 777 777 234
Width: 0
Flags: W
HStem: 523 34.0488<92.2897 177.011> 700.229 38.7637<10.6742 171.823>
VStem: 71.1816 41.9561<468 523.653> 199.854 42.7744<575.025 675.264>
AnchorPoint: "Anchor-0" 103 427 mark 0
LayerCount: 2
Fore
SplineSet
111.645507812 523.653320312 m 1
 113.137695312 468 l 1
 71.181640625 468 l 1
 72.9150390625 561.46875 l 1
 72.9150390625 561.46875 91.6435432928 557.048828125 115.157226562 557.048828125 c 0
 172.443798351 557.048828125 199.854492188 581.170584435 199.854492188 626.145507812 c 0
 199.854492188 677.524528589 157.621683255 700.228515625 95.6533203125 700.228515625 c 0
 45.5254064844 700.228515625 12.6826171875 680.958007812 12.6826171875 680.958007812 c 5
 0 715.311523438 l 1
 0 715.311523438 37.4070491068 738.9921875 101.653320312 738.9921875 c 0
 184.273645193 738.9921875 242.62890625 705.948692106 242.62890625 625.010742188 c 0
 242.62890625 556.131199511 190.400326138 523 132 523 c 0
 118.704392039 523 111.645507812 523.653320312 111.645507812 523.653320312 c 1
EndSplineSet
EndChar

StartChar: uni20B1
Encoding: 8369 8369 235
Width: 844
Flags: W
HStem: 0 21G<171 220> 251 53.3516<200 532.56> 357 51<50 194 640 794> 487 51<50 194 650 794> 679.649 51.3584<220 526.631>
VStem: 50 170<357 408 487 538> 171 23<357 408 487 538> 200 20<251 304.352> 640 51.7773<410.183 575.448> 650 41.7773<487 538>
LayerCount: 2
Fore
SplineSet
794 357 m 1xf880
 640 357 l 1
 640 408 l 1
 794 408 l 1
 794 357 l 1xf880
794 487 m 1
 650 487 l 1
 650 538 l 1xf840
 794 538 l 1
 794 487 l 1
194 357 m 5xfa
 50 357 l 5
 50 408 l 5xfc
 194 408 l 5
 194 357 l 5xfa
194 487 m 5xfa
 50 487 l 5
 50 538 l 5xfc
 194 538 l 5
 194 487 l 5xfa
200 251 m 1xfb80
 200 304.3515625 l 1
 376.888671875 304.461914062 l 2
 525.189494202 304.544720996 635.928710938 336.845806821 635.928710938 484.561523438 c 0
 635.928710938 643.090205295 525.189492578 679.457463294 376.888671875 679.545898438 c 2
 220 679.649414062 l 1
 220 0 l 1
 171 0 l 1
 171 731.0078125 l 1
 394.888671875 731.0078125 l 2
 551.096454467 731.0078125 691.77734375 663.888524502 691.77734375 484.561523438 c 0
 691.77734375 313.731853316 550.18185941 251 394.888671875 251 c 2
 200 251 l 1xfb80
EndSplineSet
EndChar

StartChar: uni20A9
Encoding: 8361 8361 236
Width: 1114
Flags: W
HStem: 0 21G<323.692 400.339 722.532 799.472> 278 51<70 254 860 1044> 408 51<50 254 890 1064> 711.008 20G<135 189.339 939.609 994>
LayerCount: 2
Fore
SplineSet
1044 278 m 1
 860 278 l 1
 860 329 l 1
 1044 329 l 1
 1044 278 l 1
1064 408 m 1
 890 408 l 1
 890 459 l 1
 1064 459 l 1
 1064 408 l 1
254 278 m 1
 70 278 l 1
 70 329 l 1
 254 329 l 1
 254 278 l 1
254 408 m 1
 50 408 l 1
 50 459 l 1
 254 459 l 1
 254 408 l 1
329 0 m 1
 135 731.0078125 l 1
 184 731.0078125 l 1
 365.606445312 50.6943359375 l 1
 525 671.0078125 l 1
 594 671.0078125 l 1
 761.606445312 50.6943359375 l 1
 945 731.0078125 l 1
 994 731.0078125 l 1
 794 0 l 1
 728 0 l 1
 559.5 616.271484375 l 1
 395 0 l 1
 329 0 l 1
EndSplineSet
EndChar

StartChar: franc
Encoding: 8355 8355 237
Width: 584
Flags: W
HStem: 0 21G<115 164> 144 41<40 374> 362 47<140 484> 685.008 46<164 544>
VStem: 115 49<0 362 409 685.008> 140 24<362 409>
LayerCount: 2
Fore
SplineSet
374 144 m 5xf0
 40 144 l 1
 40 185 l 1
 374 185 l 5
 374 144 l 5xf0
484 362 m 1
 140 362 l 1
 140 409 l 1xf4
 484 409 l 1
 484 362 l 1
164 685.0078125 m 1xf8
 164 0 l 1
 115 0 l 1
 115 731.0078125 l 1
 544 731.0078125 l 1
 544 685.0078125 l 1
 164 685.0078125 l 1xf8
EndSplineSet
EndChar

StartChar: peseta
Encoding: 8359 8359 238
Width: 844
Flags: W
HStem: 0 21G<171 220> 251 53.3516<200 532.56> 447 49<40 804> 679.649 51.3584<220 531.777>
VStem: 171 49<0 251 304.352 679.649> 200 20<251 304.352> 635.929 55.8486<393.791 586.621>
LayerCount: 2
Fore
SplineSet
804 447 m 1xf2
 629 447 l 1
 585 447 l 1
 265 447 l 1
 209 447 l 1
 40 447 l 5
 40 496 l 5
 211 496 l 1
 267 496 l 1
 583 496 l 1
 627 496 l 1
 804 496 l 1
 804 447 l 1xf2
200 251 m 1xf6
 200 304.3515625 l 1xf6
 376.888671875 304.461914062 l 2
 525.189456124 304.581538951 635.928710938 336.845806821 635.928710938 484.561523438 c 0
 635.928710938 643.090205295 533.739420518 679.40494257 396.888671875 679.545898438 c 2
 220 679.649414062 l 1
 220 0 l 1
 171 0 l 1
 171 731.0078125 l 1xfa
 414.888671875 731.0078125 l 2
 560.573467409 731.0078125 691.77734375 663.888524502 691.77734375 484.561523438 c 0
 691.77734375 313.731853316 550.18185941 251 394.888671875 251 c 2
 200 251 l 1xf6
EndSplineSet
EndChar

StartChar: uni20BE
Encoding: 8382 8382 239
Width: 781
Flags: W
HStem: 0 46<40 395.889 459 734> 15.002 30.998<200.924 395.889> 691.659 47.4619<385.536 495.24>
VStem: 75 49.8486<246.569 522.182> 329 51<388 812> 459 51<388 812> 686.355 50.3262<420.892 532.264>
LayerCount: 2
Fore
SplineSet
510 812 m 1x3e
 510 388 l 1
 459 388 l 1
 459 812 l 1
 510 812 l 1x3e
380 812 m 1
 380 388 l 1
 329 388 l 1
 329 812 l 1
 380 812 l 1
734 0 m 1xbe
 40 0 l 1
 40 46 l 1
 734 46 l 1
 734 0 l 1xbe
395.888671875 15.001953125 m 1x7e
 200.92448034 15.001953125 75 164.891324705 75 394.561523438 c 0
 75 603.05352116 198.470747889 739.12109375 415.888671875 739.12109375 c 0
 609.42718533 739.12109375 728.681640625 620.695335117 736.681640625 420.891601562 c 1
 686.35546875 418.138671875 l 1
 675.572387384 611.163859036 577.364351725 691.659179688 422.888671875 691.659179688 c 0
 214.11002103 691.659179688 124.848632812 568.714352112 124.848632812 384.561523438 c 0
 124.848632812 181.542559179 238.337823787 46 459 46 c 1xbe
 395.888671875 15.001953125 l 1x7e
EndSplineSet
EndChar

StartChar: uni030F
Encoding: 783 783 251
Width: 0
Flags: W
HStem: 536 205.008
AnchorPoint: "Anchor-0" 255 480 mark 0
LayerCount: 2
Fore
SplineSet
153 536 m 1
 27 721.0078125 l 1
 83 741.0078125 l 1
 191 546 l 1
 153 536 l 1
343 536 m 1
 217 721.0078125 l 1
 273 741.0078125 l 5
 381 546 l 1
 343 536 l 1
EndSplineSet
EndChar

StartChar: uni0326
Encoding: 806 806 254
Width: 0
Flags: W
HStem: -86 86.4492<25.0441 62.1133>
VStem: 20 85.2266<-78.0575 -5.59316>
AnchorPoint: "Anchor-2" 82 48 mark 0
LayerCount: 2
Fore
SplineSet
20 -43.232421875 m 0
 20 -16.7695752403 36.0531615377 0.44921875 60.7255859375 0.44921875 c 0
 87.685168186 0.44921875 105.2265625 -18.6551149542 105.2265625 -53.232421875 c 0
 105.2265625 -114.141810692 28.11328125 -162 28.11328125 -162 c 1
 6.11328125 -136 l 5
 6.11328125 -136 44.8178125 -111.029481132 62.11328125 -86 c 1
 36.3875891978 -83.7968798396 20 -67.4430270483 20 -43.232421875 c 0
EndSplineSet
EndChar

StartChar: uni031B
Encoding: 795 795 258
Width: 0
Flags: W
HStem: 519.848 211.16
VStem: 85 46.7598<584.779 718.715>
LayerCount: 2
Fore
SplineSet
54.919921875 731.0078125 m 5
 109.599609375 731.0078125 l 5
 109.599609375 731.0078125 131.759765625 700.408203124 131.759765625 644.200195312 c 4
 131.759765625 564.337097326 55.439453125 519.84765625 55.439453125 519.84765625 c 5
 30 546.568359375 l 5
 30 546.568359375 85 593.208007812 85 638.9375 c 4
 85 695.758789062 54.919921875 731.0078125 54.919921875 731.0078125 c 5
EndSplineSet
EndChar

StartChar: dcaron
Encoding: 271 271 406
Width: 763
Flags: W
HStem: -9.99805 41.6494<203.447 394.29> 0 21G<485 530> 468.472 42.4619<204.728 391.981> 731 20G<672.313 738> 731.002 20G<485 530>
VStem: 58.0713 44.8486<135.535 361.951> 485 32.8486<75.1885 217.374 317.374 401.424> 485 45<217.374 751.002>
LayerCount: 2
Fore
SplineSet
681 751 m 25x34
 738 751 l 25
 633 553 l 25
 595 553 l 25
 681 751 l 25x34
EndSplineSet
Refer: 44 100 N 1 0 0 1 0 0 2
EndChar

StartChar: tcaron
Encoding: 357 357 407
Width: 463
Flags: W
HStem: -10 43<226.243 361.485> 459 42.0107<34 362> 731 20G<382.313 448>
VStem: 152 45<63.8153 657.011>
LayerCount: 2
Fore
SplineSet
391 751 m 5
 448 751 l 5
 343 553 l 5
 305 553 l 5
 391 751 l 5
EndSplineSet
Refer: 41 116 N 1 0 0 1 0 0 2
EndChar

StartChar: dcroat
Encoding: 273 273 409
Width: 622
Flags: W
HStem: -9.99805 41.6494<203.447 394.29> 0 21G<485 530> 468.472 42.4619<204.728 391.981> 590 41<308 602> 731.002 20G<485 530>
VStem: 58.0713 44.8486<135.535 361.951> 485 32.8486<75.1885 217.374 317.374 401.424> 485 45<217.374 751.002>
LayerCount: 2
Fore
SplineSet
602 590 m 5x3c
 308 590 l 5
 308 631 l 5
 602 631 l 5
 602 590 l 5x3c
EndSplineSet
Refer: 44 100 N 1 0 0 1 0 0 2
EndChar

StartChar: Tbar
Encoding: 358 358 410
Width: 614
Flags: W
HStem: 0 21G<282.5 331.5> 288 45<125 489> 685 16<282.5 331.5> 685 46<40 282.5 331.5 574>
VStem: 282.5 49<0 701>
LayerCount: 2
Fore
SplineSet
489 288 m 5xc8
 125 288 l 1
 125 333 l 1
 489 333 l 5
 489 288 l 5xc8
EndSplineSet
Refer: 17 84 N 1 0 0 1 0 0 2
EndChar

StartChar: tbar
Encoding: 359 359 411
Width: 412
Flags: W
HStem: -10 43<226.243 361.485> 245 40<49 333> 459 42.0107<34 362>
VStem: 152 45<63.8153 657.011>
LayerCount: 2
Fore
SplineSet
333 245 m 5
 49 245 l 1
 49 285 l 1
 333 285 l 5
 333 245 l 5
EndSplineSet
Refer: 41 116 N 1 0 0 1 0 0 2
EndChar

StartChar: Hbar
Encoding: 294 294 412
Width: 859
Flags: W
HStem: 0 21G<145 194 665 714> 335 46<160 684> 548.011 46<50 809> 711.008 20G<145 194 665 714>
VStem: 145 49<0 335 381 731.008> 160 34<335 381> 665 19<335 381> 665 49<0 335 381 731.008>
LayerCount: 2
Fore
SplineSet
809 548.010742188 m 5xf0
 50 545 l 1
 50 591 l 1
 809 594.010742188 l 5
 809 548.010742188 l 5xf0
EndSplineSet
Refer: 2 72 N 1 0 0 1 70 0 2
EndChar

StartChar: hbar
Encoding: 295 295 413
Width: 637
Flags: W
HStem: 0 21G<119 164 525.777 570.777> 465.284 45.6494<262.626 458.479> 590 41<40 354> 731.002 20G<119 164>
VStem: 119 45<0 751.002> 525.777 45<0 389.765>
LayerCount: 2
Fore
SplineSet
354 590 m 5
 40 590 l 5
 40 631 l 5
 354 631 l 5
 354 590 l 5
EndSplineSet
Refer: 36 104 N 1 0 0 1 42 0 2
EndChar

StartChar: uogonek
Encoding: 371 371 423
Width: 595
HStem: -259 40<442.639 593.607> -9.92285 45.6494<189.298 385.152> 0 21G<483.777 528.777> 481.011 20G<77 122 483.777 528.777>
VStem: 77 45<111.246 501.011> 376 45<-199.395 -79.5677> 483.777 45<207.449 501.011>
LayerCount: 2
Fore
SplineSet
376 -149 m 0x9e
 376 -49.5224609375 494 20 494 20 c 1
 524 6 l 5
 524 6 421 -65.1398823447 421 -147 c 0
 421 -198.764648438 455.06640625 -219 515 -219 c 0
 567.4140625 -219 591 -198 591 -198 c 1
 603 -236 l 1
 603 -236 570.426757812 -259 505 -259 c 0
 425.56640625 -259 376 -219.865234375 376 -149 c 0x9e
EndSplineSet
Refer: 50 117 N 1 0 0 1 0 0 3
EndChar

StartChar: Lslash
Encoding: 321 321 429
Width: 612
Flags: W
HStem: 0 46<168 588> 711.008 20G<119 168>
VStem: 119 49<46 731.008>
LayerCount: 2
Fore
SplineSet
412 412 m 5
 38 323 l 5
 32 365 l 5
 406 454 l 5
 412 412 l 5
EndSplineSet
Refer: 7 76 N 1 0 0 1 44 0 2
EndChar

StartChar: lslash
Encoding: 322 322 430
Width: 425
Flags: W
HStem: -10.0088 44<204.685 354.385> 731.002 20G<121 166>
VStem: 121 45<75.445 751.002>
LayerCount: 2
Fore
SplineSet
352 435 m 5
 28 346 l 5
 22 387 l 1
 346 476 l 1
 352 435 l 5
EndSplineSet
Refer: 35 108 N 1 0 0 1 44 0 2
EndChar

StartChar: guilsinglleft
Encoding: 8249 8249 530
Width: 340
Flags: W
VStem: 75 195
LayerCount: 2
Fore
SplineSet
75 271 m 1
 215 441 l 1
 270 441 l 1
 116.75 254 l 1
 270 67 l 1
 215 67 l 1
 75 237 l 5
 75 271 l 1
EndSplineSet
EndChar

StartChar: guilsinglright
Encoding: 8250 8250 531
Width: 340
Flags: W
VStem: 70 195
LayerCount: 2
Fore
SplineSet
265 237 m 1
 125 67 l 1
 70 67 l 5
 223.25 254 l 5
 70 441 l 5
 125 441 l 1
 265 271 l 1
 265 237 l 1
EndSplineSet
EndChar

StartChar: uni20AE
Encoding: 8366 8366 532
Width: 614
Flags: W
HStem: 0 21G<282.5 331.5> 685 46<40 282.5 331.5 574> 685 16<282.5 331.5>
VStem: 282.5 49<0 701>
LayerCount: 2
Fore
SplineSet
574 685 m 5xd0
 40 685 l 5
 40 731 l 1
 574 731 l 1
 574 685 l 5xd0
282.5 0 m 1
 282.5 701 l 1
 331.5 701 l 1xb0
 331.5 0 l 1
 282.5 0 l 1
494 275 m 1
 120 165 l 1
 120 211 l 1
 494 321 l 1
 494 275 l 1
494 405 m 1
 120 295 l 1
 120 341 l 1
 494 451 l 1
 494 405 l 1
EndSplineSet
EndChar

